<?xml version="1.0" encoding="utf-8"?>
<!-- Generator: Adobe Illustrator 17.1.0, SVG Export Plug-In . SVG Version: 6.00 Build 0)  -->
<!DOCTYPE svg PUBLIC "-//W3C//DTD SVG 1.1//EN" "http://www.w3.org/Graphics/SVG/1.1/DTD/svg11.dtd">
<svg version="1.1" id="Layer_1" xmlns="http://www.w3.org/2000/svg" xmlns:xlink="http://www.w3.org/1999/xlink" x="0px" y="0px"
	 viewBox="0 0 557.8 418.5" style="enable-background:new 0 0 557.8 418.5;" xml:space="preserve">
<style type="text/css">
	.st0{fill:#BE2F26;}
	.st1{fill:#3A7458;}
	.st2{fill:#FFFFFF;}
</style>
<g>
	<g>
		<path class="st0" d="M226.8,397.8c-5.2,0.3-10.4,0.6-15.6,1c-4.1,0.4-7.3,2.5-9.5,5.9c-0.3,0.5-0.7,1-0.8,1.5
			c-3,9.1-9.8,12.1-18.7,11.9c-3.3-0.1-6.6,0.1-10,0c-6.6-0.2-9.7-4.5-7.5-10.6c3.7-10.4,7.7-20.6,11.6-30.9
			c8.3-22.2,16.7-44.4,25-66.6c0.5-1.2,1-2.4,1.5-3.7c2.5-6.8,7.8-9.9,14.7-10c6.8-0.2,13.7,0,20.5,0.6c4.7,0.4,8.2,3.4,10.1,7.8
			c3,7.1,5.8,14.3,8.5,21.5c10.1,26.6,20.1,53.1,30.2,79.7c0.3,0.9,0.6,1.8,0.8,2.7c1.4,4.7-1,8.6-5.8,8.8c-6.7,0.3-13.5,0.3-20.2,0
			c-3.5-0.2-6.5-2.1-8.4-5.2c-1.4-2.2-2.6-4.6-3.8-6.9c-2.5-4.8-6.7-6.8-11.8-7.1c-3.6-0.2-7.2,0-10.8,0
			C226.8,398.1,226.8,398,226.8,397.8z M235.7,361.4c0-5.9-1.6-11.5-4.4-16.7c-2.9-5.4-8.7-5.4-11.4,0.1c-2.9,6-4.8,12.3-4.1,19.1
			c0.2,2,1.3,4.4,2.8,5.6c3.9,3,8.4,3,12.8,1.1C235.3,368.7,235.8,365.1,235.7,361.4z"/>
		<path class="st0" d="M496.6,397.8c-5.2,0.3-10.4,0.6-15.6,1c-4.1,0.4-7.3,2.5-9.5,5.9c-0.3,0.5-0.7,1-0.8,1.5
			c-3,9.1-9.8,12.1-18.7,11.9c-3.3-0.1-6.6,0.1-10,0c-6.6-0.2-9.7-4.5-7.5-10.6c3.7-10.4,7.7-20.6,11.6-30.9
			c8.3-22.2,16.7-44.4,25-66.6c0.5-1.2,1-2.4,1.5-3.7c2.5-6.8,7.8-9.9,14.7-10c6.8-0.2,13.7,0,20.5,0.6c4.7,0.4,8.2,3.4,10.1,7.8
			c3,7.1,5.8,14.3,8.5,21.5c10.1,26.6,20.1,53.1,30.2,79.7c0.3,0.9,0.6,1.8,0.8,2.7c1.4,4.7-1,8.6-5.8,8.8c-6.7,0.3-13.5,0.3-20.2,0
			c-3.5-0.2-6.5-2.1-8.4-5.2c-1.4-2.2-2.6-4.6-3.8-6.9c-2.5-4.8-6.7-6.8-11.8-7.1c-3.6-0.2-7.2,0-10.8,0
			C496.6,398.1,496.6,398,496.6,397.8z M505.5,361.4c0-5.9-1.6-11.5-4.4-16.7c-2.9-5.4-8.7-5.4-11.4,0.1c-2.9,6-4.8,12.3-4.1,19.1
			c0.2,2,1.3,4.4,2.8,5.6c3.9,3,8.4,3,12.8,1.1C505.2,368.7,505.6,365.1,505.5,361.4z"/>
		<path class="st0" d="M114.6,370.8c0-11.1,0.1-22.2,0-33.3c0-7-3.9-11-10.8-11.1c-4.9-0.1-9.9,0.2-14.8-0.1
			c-6.5-0.3-9.1-2.4-10.1-8.1c-0.7-4.4-0.7-9.1-0.1-13.5c0.7-4.8,5.5-8.3,10.7-8.5c3.6-0.2,5.2,0,8.8,0c10-0.1,19.9-0.4,29.9-0.3
			c14.2,0,28.4,0.2,42.7,0.4c3.9,0,5.8-0.2,9.5,0.6c4.8,0.9,7.2,4.3,7.4,9.1c0.2,3.4,0.1,6.8,0,10.2c-0.1,4.6-2.6,7.8-6.9,9
			c-3.6,1-5.4,1.1-9.1,1.4c-2.2,0.2-4.4-0.1-6.5-0.1c-8.4,0-12.9,4-13,12.3c-0.1,20.1,0.1,40.2,0,60.3c0,3.8-0.6,7.7-1.3,11.5
			c-0.6,3.3-3.1,5.4-6.3,6.3c-7.4,2.1-15,1.7-22.5,0.2c-4.7-0.9-7-3.9-7-8.7c-0.1-12.5,0-25,0-37.6
			C114.9,370.8,114.8,370.8,114.6,370.8z"/>
		<path class="st0" d="M291.8,356.5c0.3-16.8,0.5-33.6,0.9-50.3c0.1-4.8,2.3-8,7-8.6c6.6-0.8,13.4-1.3,20-0.8
			c7.1,0.6,10.3,5.4,10.5,13.8c0.2,11.8-0.4,23.7-0.5,35.5c-0.1,9.7,0,19.4,0.1,29c0,1.9,0.6,3.9,1,5.8c1.1,4.5,4.3,6.9,8.5,7
			c8.8,0.4,17.6,0.3,26.4,0.4c4.5,0.1,8.9,0,13.4,0.3c5.4,0.4,9.2,4.2,9.7,10.1c0.3,4.1-0.3,8.3-1.2,12.3c-0.9,4-4.3,5.8-8.2,6.5
			c-1.9,0.4-4,0.6-5.9,0.6c-23.3-0.1-46.7-0.2-70-0.5c-6.4-0.1-10.6-4.3-10.7-10.5c-0.3-14-0.3-28.1-0.4-42.1c0-2.8,0-5.7,0-8.5
			C292.1,356.5,292,356.5,291.8,356.5z"/>
		<path class="st0" d="M74.4,357.3c0,14.9,0,29.8,0,44.7c0,2.6,0.1,5.2-0.5,7.6c-1.6,6.4-5.6,8.1-11.8,8.5
			c-5.1,0.3-10.2-0.1-15.3-0.5c-4.8-0.4-8.6-4.4-9-9.4c-0.2-2.6-0.4-5.3-0.4-8c0-24.5,0-49,0-73.4c0-6.4-0.3-12.9-0.2-19.3
			c0.1-6.5,4-10.3,10.6-10.5c5.9-0.2,11.9-0.3,17.9,0.1c4.9,0.3,8.5,4.4,8.5,9.3c0.1,17,0,34,0,50.9
			C74.2,357.3,74.3,357.3,74.4,357.3z"/>
		<path class="st0" d="M430.5,357.6c0,14.9,0,29.8,0,44.7c0,2.6,0.1,5.2-0.5,7.6c-1.6,6.4-5.6,8.1-11.8,8.5
			c-5.1,0.3-10.2-0.1-15.3-0.5c-4.8-0.4-8.6-4.4-9-9.4c-0.2-2.6-0.4-5.3-0.4-8c0-24.5,0-49,0-73.4c0-6.4-0.3-12.9-0.2-19.3
			c0.1-6.5,4-10.3,10.6-10.5c5.9-0.2,11.9-0.3,17.9,0.1c4.9,0.3,8.5,4.4,8.5,9.3c0.1,17,0,34,0,50.9
			C430.2,357.6,430.3,357.6,430.5,357.6z"/>
	</g>
	<g>
		<g>
			<path class="st1" d="M441.1,45.3c-3.1,0-6.3,0-9.4,0c-1.6,0-2.4-0.8-2.7-2.1c-0.5-2.3-1-4.6-1.6-6.9c-0.2-0.8-0.8-1.4-1.2-2.1
				c-0.7,0.5-1.6,0.8-2.1,1.5c-1.7,2.4-3.2,4.9-4.8,7.3c-1.1,1.8-1.9,1.8-3,0c-1.6-2.6-3.2-5.2-4.7-7.9c-0.2-0.3-0.3-0.7-0.6-0.9
				c-0.5-0.4-1.1-1-1.5-0.9c-0.5,0.2-1.1,0.9-1.3,1.4c-0.7,2.5-1.3,5-2,7.5c-0.8,3.1-1.2,3.4-4.3,3.4c-2.9,0-5.8,0-8.8,0
				c-1.7,0-2.3-0.8-1.9-2.4c1.6-6.4,3.2-12.9,4.7-19.3c1.3-5.1,2.6-10.2,3.8-15.3c0.4-1.9,1.4-2.5,3.1-2.6c2.3-0.1,4.6-0.1,6.8-0.1
				c1.4,0,2.1,1,2.7,2.2c1.7,3.9,3.4,7.7,5.1,11.6c0.1,0.2,0.2,0.5,0.3,0.7c0.9,1.8,2.2,1.9,3.3,0.2c1.1-1.8,2.1-3.8,3.1-5.7
				c1.1-2.2,2.2-4.5,3.3-6.7c0.6-1.3,1.7-2.1,3.1-2.1c2-0.1,4-0.2,5.9,0c2.3,0.2,2.8,0.9,3.1,3.3c0.9,7.4,1.8,14.8,2.9,22.2
				c0.6,3.7,1.7,7.3,2.5,10.9c0.6,2.6,0.2,3.2-2.5,3.2c-0.5,0-1,0-1.4,0C441.1,45.5,441.1,45.4,441.1,45.3z"/>
			<path class="st1" d="M157.8,45.6c-1.6,0-3.2,0.1-4.8,0c-2.4-0.1-3-1.1-2.8-3.4c0.4-3.1,0.8-6.2,0.9-9.3c0.2-4.8,0.2-9.6,0-14.5
				c-0.1-2.9-0.5-5.8-0.9-8.7c-0.4-2.7,0.4-3.8,3.2-3.8c2.2,0,4.4,0,6.5,0.4c1.2,0.2,2.4,0.9,3.3,1.7c3.6,3.2,7,6.6,10.5,9.8
				c0.5,0.5,1.5,1,2,0.9c0.5-0.1,1-1.2,1-1.9c0.1-2,0-4,0-6c0-0.5,0-1.1,0-1.6c0.2-2.7,1-3.2,3.7-3.1c3.1,0.1,6.2-0.1,9.3-0.1
				c2.6,0,3.1,0.5,3.1,3.1c-0.1,5.5-0.3,11.1-0.3,16.6c0,5.2,0.2,10.4,0.3,15.7c0,0.5,0.2,0.9,0.2,1.4c0.3,1.6-0.4,2.6-2.1,2.7
				c-2.3,0.1-4.7,0.2-7,0c-1.1-0.1-2.3-0.7-3-1.5c-4.4-4.4-8.6-8.9-12.9-13.3c-0.5-0.5-1.4-1.1-2-0.9c-0.5,0.1-1.1,1.2-1.1,1.8
				c-0.1,3.7-0.1,7.4-0.1,11.1c0,2.7-0.4,3.1-3.2,3.1C160.4,45.6,159.1,45.6,157.8,45.6C157.8,45.6,157.8,45.6,157.8,45.6z"/>
			<path class="st1" d="M143.5,15.7c0,3.2-0.1,6.4,0,9.6c0.1,5.8,0.3,11.6,0.5,17.4c0.1,1.8-0.8,2.9-2.5,2.9
				c-3.3-0.1-6.6-0.2-9.9-0.3c-1.2,0-1.9-0.6-2.4-1.6c-0.8-1.7-1.7-1.9-2.7-0.5c-1.9,2.8-4.6,2.8-7.4,2.3c-4-0.7-8-1.5-11.9-2.6
				c-3.8-1.1-3.8-2.3-3.4-5.8c0.5-4.9,1-9.7,1.1-14.6c0.1-4.8-0.4-9.6-0.6-14.4c-0.1-1.5,0.7-2.3,2.2-2.3c3.4,0,6.8,0,10.2,0
				c2.5,0,3.4,0.8,3.4,3.3c-0.1,4.1-0.1,8.2-0.4,12.3c-0.2,2.6-0.8,5.1-1.3,7.6c-0.3,1.4,0.1,2.4,1.2,3.1c1.9,1.3,4,1.9,6.3,1.8
				c1.5-0.1,2.2-0.7,2.2-2.3c0-1.8-0.3-3.6-0.3-5.4c0.1-6,0.2-11.9,0.3-17.9c0-1.6,0.9-2.5,2.3-2.5c3.8-0.1,7.6-0.1,11.4-0.1
				c1.3,0,2.1,0.8,2.1,2.3c-0.1,2.5,0,5,0,7.5C143.7,15.7,143.6,15.7,143.5,15.7z"/>
			<path class="st1" d="M222.6,45.7c-2.2-0.1-4.3-0.3-6.5-0.4c-2.6-0.2-5-1.1-6.8-2.9c-2.6-2.6-5.5-5.1-7.6-8.2
				c-4.3-6.5-3.3-9.4,0.9-15.3c5.2-7.4,12.7-11.4,21.2-14.1c1.2-0.4,2,0.3,2.6,1.1c1.6,2.3,3.2,4.6,4.7,7c1,1.6,0.7,2.2-1,3.1
				c-3.5,1.7-6.9,3.4-10.3,5.2c-1.1,0.6-2,1.5-2.9,2.4c-2,2-1.5,5,1.1,6.8c0.5,0.3,1,0.6,1.5,0.9c3,1.7,4.3,1.1,4.5-2.4
				c0.1-1.8,0-3.5,0-5.3c0-1.7,0.6-2.4,2.2-2c3.6,1,7.2,2,10.7,3.2c1.5,0.5,1.9,1.9,1.5,4.1c-0.8,4.6-0.6,9.3,0.2,13.9
				c0.2,1.4-0.4,2.4-1.8,2.4c-4.7,0-9.3,0-14,0C222.6,45.4,222.6,45.6,222.6,45.7z"/>
			<path class="st1" d="M297.9,45.3c-2.9,0-5.9,0-8.8,0c-1.3,0-2.6,0.1-3.8,0.2c-2.3,0.2-3.9,0-3.7-3.2c0.2-4.1,0-8.2,0.1-12.3
				c0-3.9,0.2-7.7,0.3-11.6c0-3.3-0.2-6.6-0.3-9.9c0-2.2,0.5-2.7,2.7-2.7c4.7,0,9.4,0,14,0c2.8,0,5.5,0,8.3,0c1.3,0,2.2,0.6,2.5,1.8
				c0.6,2.1,1.2,4.3,1.6,6.4c0.4,1.8-0.4,2.3-2.3,2.2c-3-0.1-5.9-0.2-8.9-0.1c-1.4,0-2,1.1-1.9,2.4c0.1,1.4,1,2,2.3,2c3,0,6,0,8.9,0
				c1.4,0,1.9,0.5,1.6,1.9c-0.5,2.1-0.9,4.2-1.4,6.3c-0.4,1.5-1.5,2.1-3,2.1c-2,0-4.1,0-6.1,0c-1.2,0-2.1,0.3-2.4,1.6
				c-0.3,1.7,0.2,2.7,1.8,3c1.5,0.3,3,0.2,4.5,0.1c1.6,0,3.3-0.2,4.9-0.3c1.2-0.1,1.8,0.6,1.6,1.6c-0.4,2.3-0.8,4.7-1.5,6.9
				c-0.2,0.6-1.2,1.3-1.9,1.3C304,45.4,300.9,45.3,297.9,45.3C297.9,45.3,297.9,45.3,297.9,45.3z"/>
			<path class="st1" d="M265.3,31.6c2.5-0.3,4.9-0.6,7.4-0.8c1.9-0.2,2.7,0.7,2.4,2.5c-0.6,3.4-1.3,6.7-1.9,10.1
				c-0.3,1.4-1.2,2.2-2.7,2.2c-1.6,0-3.2,0.1-4.8,0c-6.3-0.1-12.6-0.2-18.8-0.3c-1.4,0-2-0.8-1.9-2.1c0.2-5.8,0.6-11.5,0.6-17.3
				c0-5.5-0.4-11-0.6-16.4c-0.1-3.1,0-3.2,3.1-3.3c3.6-0.1,7.1-0.2,10.7-0.3c2,0,2.8,0.8,2.8,2.8c-0.1,3.8-0.1,7.7-0.2,11.5
				c-0.1,2.7-0.2,5.3-0.3,8c-0.1,2.9,0.4,3.3,3.3,3.3c0.3,0,0.6,0,1,0C265.3,31.5,265.3,31.6,265.3,31.6z"/>
			<path class="st1" d="M348.1,45.3c-2.8,0-5.6,0-8.5,0c-2.2,0-3-0.6-3.6-2.8c-0.9-3.2-1.8-6.4-2.6-9.6c-0.4-1.6,0.1-2.2,1.7-2
				c1.9,0.2,3.8,0.6,5.7,0.8c1.8,0.2,3.6,0.1,4.9-1.4c1.4-1.6,1.3-3.5,1.1-5.4c0-0.3-0.2-0.6-0.2-0.9c-0.4-5.1-0.7-10.3-1.1-15.4
				c-0.1-2.1,0.6-2.8,2.7-2.7c3.6,0.1,7.1,0.2,10.7,0.2c2.7,0,3,0.3,3,3c0,4.7,0,9.5,0,14.2c0,3.3-0.1,6.7,0,10
				c0.1,3-1.6,5.2-3.1,7.5c-1,1.4-2.4,2.6-3.7,3.7C353.1,46.2,350.5,45.4,348.1,45.3z"/>
			<path class="st1" d="M89.9,5.9c1.3,0,2.6,0.1,3.8,0c2.3-0.3,3.7,1.4,3.5,4c-0.2,2.2-0.3,4.4-0.4,6.5c0,5.2-0.2,10.3,0.1,15.5
				c0.2,3.8-1.5,6.7-3.6,9.5c-2.9,4-7,4.6-11.5,4.2c-2.7-0.2-5.3-0.5-8-0.6c-1.6,0-2.5-0.8-2.9-2.2c-0.9-3.2-1.7-6.4-2.5-9.6
				c-0.6-2.2,0-2.7,2.3-2.4c2.4,0.4,4.8,0.8,7.2,0.7c2.4-0.1,3.9-1.8,3.8-4.2c-0.1-4.3-0.5-8.7-0.7-13c-0.1-2-0.3-4-0.5-6
				c-0.1-1.4,0.5-2.1,1.9-2.1C85,6,87.5,5.9,89.9,5.7C89.9,5.8,89.9,5.8,89.9,5.9z"/>
			<path class="st1" d="M489.5,34.4c-0.3,4.9-3.4,7.7-7,10.2c-3.3,2.3-6.5,2.8-10,0.1c-1.7-1.3-3.8-2.1-5.7-3.2
				c-0.5-0.3-1-0.8-1.1-1.2c0-0.4,0.6-0.9,1.1-1.2c4.8-2.5,5.8-7.7,2.4-11.9c-1.1-1.4-2.2-2.7-3.2-4.2c-2.8-4.2-2.3-8.1,1.1-11.8
				c2.2-2.3,4.8-4,7.8-5.1c0.9-0.3,2.2-0.2,3,0.2c2.5,1.3,4.9,2.9,7.4,4.3c1.5,0.9,1.6,1.7,0.3,2.9c-1.4,1.3-2.7,2.5-3.1,4.6
				c-0.4,2.1,0.2,3.8,1.4,5.5c1.3,1.9,2.8,3.8,3.8,5.8C488.6,31,488.9,32.7,489.5,34.4z"/>
			<path class="st1" d="M384.1,12.3c0,5.7,0,11.4,0,17.1c0,4.5,0.2,8.9,0.3,13.4c0,2.2-0.7,2.8-2.9,2.8c-3.5,0-7,0-10.5,0
				c-2,0-2.7-0.7-2.6-2.7c0.1-3.8,0.3-7.5,0.3-11.3c0-4.6-0.2-9.2-0.3-13.9c0-3.2,0-6.4,0-9.6c0-1.3,0.5-2,1.9-2
				c3.7-0.1,7.3-0.2,11-0.3c2.6,0,3.2,0.6,3.2,3.2c0,1.1,0,2.1,0,3.2C384.3,12.3,384.2,12.3,384.1,12.3z"/>
			<path class="st1" d="M457.3,0c1.5,0.1,3.1,0.3,4.6,0.4c1.3,0.1,1.6,0.8,1.6,2c-0.1,4.5-3,7.1-6.4,9.2c-1.9,1.1-4,1.9-6,2.7
				c-0.6,0.2-1.6,0.3-2,0c-0.4-0.2-0.4-1.3-0.3-1.9c0.9-3.5,1.9-7,2.9-10.5c0.4-1.2,1.2-1.9,2.6-1.9C455.2,0.1,456.3,0.1,457.3,0
				C457.3,0.1,457.3,0,457.3,0z"/>
		</g>
		<g>
			<path class="st1" d="M515.5,191.9c-10.3,0-20.7,0-31,0c-4.1,0-8.2,0.5-12.3,0.4c-10.5-0.1-12.2-5.8-11.7-14.1
				c0.3-5.3,0.1-10.6,0.1-15.9c0-2.7-0.2-5.5-0.1-8.2c0.1-10.3,0.4-20.7,0.5-31c0.1-14.8,0-29.5,0-44.3c0-5.5,3.6-9,9-9.2
				c4.2-0.1,8.4,0,12.5-0.1c2.3,0,4.5-0.5,6.7-0.4c3.6,0.1,7.2,0.6,10.8,0.7c2.1,0.1,4.2-0.3,6.3-0.3c6.5-0.1,13-0.1,19.6-0.1
				c6.8,0,13.6,0,20.4,0c6.3,0.1,9.7,3.4,9.7,9.7c0,3.8,0.1,7.6-0.5,11.3c-0.8,4.5-3.8,6.6-8.4,6.7c-12.4,0-24.7,0-37.1,0.1
				c-2,0-4.1,0-6,0.5c-3.5,0.9-5.1,2-5.3,5.3c-0.1,2.1-0.2,4.4,0.4,6.4c1.2,3.8,4.6,4.1,7.9,4.1c10.8,0.2,21.6,0.3,32.5,0.5
				c1.5,0,3.1-0.1,4.6,0.2c3.8,0.9,6.6,3,7.2,7.1c0.5,3.6,1.2,7.3,0.8,10.8c-0.7,5.9-3.8,8.8-11.6,9c-10.6,0.3-21.3-0.2-32-0.3
				c-1.8,0-3.5,0.2-5.3,0.5c-2.5,0.4-4.7,2.7-4.8,5.4c-0.2,3.2-0.2,6.4,0,9.6c0.2,3,2.6,5.4,5.5,5.8c1.9,0.3,3.8,0.5,5.8,0.5
				c12.9,0.1,25.9,0,38.8,0.1c5.5,0,9,2.7,9.4,8.2c0.3,4.8-0.1,9.7-0.9,14.4c-0.7,4.3-3.9,6.4-8.3,6.5
				C537.5,191.9,526.5,191.9,515.5,191.9C515.5,191.9,515.5,191.9,515.5,191.9z"/>
			<path class="st1" d="M163.6,69c4,0.2,8.1,0.2,12.1,0.6c6.6,0.6,9.7,5.1,11.7,10.8c5.7,16.4,11.5,32.8,17.2,49.1
				c6.1,17.4,12.1,34.7,18.3,52c2.8,7.6-2.4,10.3-7.6,10.3c-6.6,0.1-13.2-0.1-19.8-0.5c-3.4-0.2-6.1-2-7.7-5c-1.1-2.1-2-4.3-2.9-6.6
				c-2-5.2-4.3-7-9.8-7.2c-7.2-0.2-14.4-0.4-21.5-0.5c-7.1-0.1-9.4,1.7-11.6,8.4c-0.1,0.2-0.1,0.5-0.2,0.7
				c-2.2,7.5-5.1,11.2-14.5,10.8c-5.2-0.2-10.5,0-15.8-0.1c-4.7,0-8.6-3-6.6-8.7c3.7-10.8,7.5-21.7,11.2-32.5
				c8.1-23.1,16.1-46.3,24.2-69.4c1.7-4.9,3.7-9.7,9.4-11.3c2.1-0.6,4.4-0.7,6.6-0.9c2.4-0.1,4.8,0,7.3,0
				C163.6,69.1,163.6,69,163.6,69z M163.6,143.3c7.2,0.1,9.2-2,8.1-9.1c-0.7-4.7-2.2-9.3-3.5-13.9c-0.7-2.3-1.7-4.9-4.5-5
				c-3.1-0.2-3.8,2.7-4.5,4.8c-1.5,4.5-2.8,9.1-3.9,13.8c-1.3,5.6,0.2,8.4,4.9,9.3C161.3,143.5,162.5,143.3,163.6,143.3z"/>
			<path class="st1" d="M283.4,67.3c11.3,0.4,22,2.4,31.4,9.1c7.1,5.1,11.4,12.2,13.5,20.4c1.3,5.4-2.3,8.5-8,9.1
				c-5,0.6-10.1,0.7-15.2,1c-4.6,0.3-8.2-1.6-10.7-5.5c-1.4-2.2-2.9-4.5-4.9-6.1c-4-3.2-8.9-2.5-13.7-2.1c-5.1,0.5-7.2,4.4-5.9,8.4
				c0.6,1.8,2.3,3.9,4,4.6c5.1,2,10.4,3.5,15.7,5c8.3,2.4,16.8,4.2,24.2,8.7c9.6,5.8,16.9,13.4,19.2,24.9
				c2.2,11.1-0.7,20.9-7.2,29.8c-7.8,10.8-18.7,16.1-31.6,18.1c-8,1.2-15.8,0.7-23.8,0c-11.2-1-20.8-5.4-28.5-13.3
				c-5.7-5.8-8.9-13.1-10.8-20.9c-1.2-4.9,3-9.3,8.6-9.6c5.3-0.3,10.6-0.7,15.9-0.8c3.8-0.1,7.1,1.1,8.9,4.9
				c1.3,2.7,2.6,5.4,4.3,7.8c3.9,5.5,9.6,7,15.9,6.4c2.4-0.2,4.9-0.8,7.1-1.8c3.6-1.6,5.4-4.6,5.6-8.6c0.2-4-1.2-7.2-4.7-9.4
				c-5.2-3.2-11.1-4.3-16.9-5.8c-9.7-2.5-18.9-5.9-27.1-11.7c-8.3-5.9-13.1-14-14.8-23.9c-0.5-3.2,0.2-6.8,1.2-9.9
				c4.8-15.1,15.8-23.6,30.7-27.1C271.6,67.9,277.6,67.9,283.4,67.3z"/>
			<path class="st1" d="M413.9,132.9c0,6.8-0.1,13.6,0,20.4c0,4.6,0.4,9.2,0.4,13.8c0,5.1-0.2,10.2-0.5,15.2c-0.2,4.5-2.8,8-7.2,9
				c-7.6,1.9-15.3,0.9-22.9,0c-5.1-0.6-6.3-4.3-6.6-8c-0.5-7-0.6-14-0.5-21c0-9.6,0.4-19.1,0.4-28.7c0-7.9-0.2-15.8-0.4-23.7
				c-0.1-5.7-2.5-8-8.4-8.2c-5.6-0.2-11.1-0.4-16.7-0.5c-6.7-0.2-10.4-3.1-10.4-10.4c0-4,0-8.1,0-12.1c0.1-5.3,3.7-8.9,8.9-9
				c3.4-0.1,6.8,0,10.2-0.1c12.5-0.1,25-0.4,37.5-0.4c14.1,0,28.2,0.3,42.3,0.4c4.4,0,9,3.1,9.3,8.6c0.3,5.2,0.4,10.2-0.5,15.3
				c-1.1,5.8-6.2,8-11.3,7.5c-5.3-0.5-10.7-0.6-16-0.2c-5.6,0.4-7.6,3.1-7.7,9C413.8,117.6,413.9,125.3,413.9,132.9z"/>
			<path class="st1" d="M35.8,155c0-8.5,0-17,0-25.5c0-6.4,0.1-12.7,0-19.1c-0.1-3.5-0.5-7.1-4.6-8.4c-1.9-0.6-4.1-0.6-6.1-0.7
				c-5.8-0.2-11.6,0.2-17.3-0.4c-4.7-0.4-7.2-4-7.3-8.7C0.3,88.5,0,84.7,0,80.8c-0.1-7.2,3.6-11.4,10.9-11.2
				c5.3,0.1,10.6-0.4,16-0.4c12.7,0.1,25.4,0.3,38,0.4c11.3,0.1,22.6,0.1,33.9,0c4.8,0,8.6,2.4,9.2,7.9c0.6,5.5,0.4,11.1,0.1,16.6
				c-0.3,4.4-3.6,6.9-8,7c-5.7,0-11.5,0-17.2,0.1c-1.7,0-3.4,0.2-5,0.5c-3.3,0.7-5,3.4-5,8.1c-0.1,7,0,14-0.1,21
				c-0.1,9-0.4,17.9-0.4,26.9c0,6.9,0.3,13.9,0.4,20.8c0,2.3-0.1,4.7-0.6,7c-0.9,4.4-4.5,7.2-10.6,6.9c-5.2-0.3-10.3-0.4-15.5-0.5
				c-6.5-0.1-10.4-4.1-10.3-10.7c0-8.7,0-17.5,0-26.2C35.8,155,35.8,155,35.8,155z"/>
		</g>
	</g>
	<g>
		<g>
			<path class="st2" d="M228.5,245c-0.2-10.6,6.6-21.2,18.4-23.5c8.2-1.6,15.9-0.7,22.6,4.6c5.4,4.2,7.8,10.1,8.5,16.7
				c0.5,4.8-0.1,9.6-2.1,14.1c-3.4,7.7-9.4,11.9-17.7,13.3c-4.4,0.7-8.7,0.4-13-0.7c-8.4-2.2-14.8-9.6-16-18.4
				C228.9,249.1,228.7,247.1,228.5,245z M263.2,245.1c-0.3-2.1-0.3-3.9-0.7-5.7c-1-4.4-4.5-7.7-8.7-7.6c-5,0.1-8.1,2-9.5,7
				c-1.3,4.6-1.4,9.2-0.2,13.8c1.1,4.4,4.9,7,9.7,6.8c4.4-0.1,7.3-2.6,8.3-7.2C262.7,249.8,262.9,247.4,263.2,245.1z"/>
			<path class="st2" d="M292.4,243.5c0-5.8,0-11.6,0-17.4c0-3.1,1.3-4.5,4.3-4.5c8.6-0.1,17.3-0.1,25.9-0.2c0.4,0,0.9,0,1.3,0.1
				c4.3,0.3,6.7,4.6,4.5,8.3c-0.6,1-2.2,1.8-3.4,1.9c-3.7,0.2-7.3,0.1-11,0.1c-1.1,0-2.2,0.2-3.2,0.5c-2.3,0.7-3,1.9-2.9,4.2
				c0.1,2.3,1.8,3,3.6,3.2c3.1,0.3,6.3,0.4,9.4,0.4c3.4,0,4.9,1.3,5.1,4.8c0.2,3.3-1.3,5.2-4.6,5.4c-2.9,0.1-5.7,0-8.6,0.1
				c-3.8,0-5.3,1.5-5.3,5.3c0,3.2,0,6.5,0,9.7c0,2.8-0.9,4.2-3.7,4.5c-2.8,0.3-5.7,0.1-8.5-0.4c-2.3-0.4-3.1-2.6-3.1-6.1
				c0-6.6,0-13.2,0-19.8C292.3,243.5,292.4,243.5,292.4,243.5z"/>
		</g>
		<path class="st2" d="M190.2,253.3c1.5,0,2.8-1.2,2.8-2.8s-1.2-2.8-2.8-2.8h-41.4v-4.2h41.4c1.5,0,2.8-1.2,2.8-2.8
			c0-1.5-1.2-2.8-2.8-2.8h-41.4v-4.6h41.1c1.5,0,2.8-1.2,2.8-2.8c0-1.5-1.2-2.8-2.8-2.8h-44.1c-11.2,0-20,5.4-20,12.3v0.6L30,237.9
			c-2.9-0.1-5.3,2.6-5.3,6.1v3.4c0,3.4,2.4,6.2,5.3,6.1l95.8-2.8v0.7c0,6.8,8.7,12.1,19.7,12.1h44.4c1.5,0,2.8-1.2,2.8-2.8
			s-1.2-2.8-2.8-2.8h-41.1v-4.6H190.2z M131.4,247.4V244c0.1-0.1,0.3-0.1,0.4-0.2v3.8C131.7,247.5,131.5,247.5,131.4,247.4z"/>
		<path class="st2" d="M527.8,235.6l-69.2,2.1v-2.1h-100c0,5.6,11.2,10.6,29.3,14.3c18.1,3.6,43.1,5.9,70.7,5.9v-6.6l69.2,2.1
			c2.9,0.1,5.3-2.7,5.3-6.1v-3.4C533.2,238.3,530.7,235.5,527.8,235.6z"/>
	</g>
</g>
</svg>
