<?xml version="1.0" encoding="utf-8"?>
<!-- Generator: Adobe Illustrator 17.1.0, SVG Export Plug-In . SVG Version: 6.00 Build 0)  -->
<!DOCTYPE svg PUBLIC "-//W3C//DTD SVG 1.1//EN" "http://www.w3.org/Graphics/SVG/1.1/DTD/svg11.dtd">
<svg version="1.1" id="Layer_1" xmlns="http://www.w3.org/2000/svg" xmlns:xlink="http://www.w3.org/1999/xlink" x="0px" y="0px"
	 viewBox="0 0 526.5 350.7" style="enable-background:new 0 0 526.5 350.7;" xml:space="preserve">
<style type="text/css">
	.st0{fill:#FFFFFF;}
</style>
<g>
	<path class="st0" d="M0.9,112.4c0,6.3,0.2,12.5,0.2,18.8c0,4.3,0,8.5,0,12.8c0,4-0.2,8.1-0.2,12.1c0,2.1,0.2,4.1,0.2,6.2
		c0,1.4-0.2,2.7-0.2,4.1c0,2.4,0.2,4.7,0.2,7.1c0,2,0.8,3.1,2.7,3.5c0.8,0.2,1.6,0.3,2.4,0.3c4.4,0,8.7-0.1,13.1-0.2
		c3.5,0,7,0,10.5,0c2.8,0,5.6,0.2,8.4,0.2c2.6,0,5.2-0.3,7.8-0.2c3.3,0.2,6-1.1,8.4-3.2c3.4-3,6.8-6,10.4-8.8c2.6-2,3.8-4.4,3.6-7.7
		c-0.1-2.1-0.2-4.1-0.2-6.2c0-2.7,0.2-5.3,0.2-8c0-2.1-0.1-4.1,0.1-6.2c0.2-3.1-0.9-5.4-3.6-7.1c-2.9-1.7-5.6-3.7-8.3-5.6
		c-2.1-1.5-2.1-3.3-0.1-4.9c2-1.6,4-3.2,6-4.9c1.5-1.2,3.2-2.4,3.5-4.4c0.4-2,0.5-4,0.5-6c0.1-3.4,0-6.8,0-10.2c-0.1,0-0.1,0-0.2,0
		c0-2.7,0-5.4,0-8.1c0-1.7-0.6-3.2-1.9-4.3c-4.3-3.6-8.5-7.2-12.8-10.7c-1.3-1-2.6-1.9-4.4-2c-3,0-6.1,0-9.1,0
		c-4.1,0-8.2-0.2-12.4-0.2c-1.5,0-3.1,0.1-4.6,0.2c-3.1,0-6.2,0-9.3,0c-2.6,0-5.2-0.1-7.8,0.1c-1.9,0.2-2.9,1.3-3,3.2
		c-0.2,2.3-0.2,4.6-0.2,6.9c0,6.3,0.2,12.6,0.2,18.9C1.1,102.8,0.9,107.6,0.9,112.4z M26.9,93.2c0-2,1.1-3.1,3.1-3.1
		c3.1,0,6.2,0,9.2,0c2,0,3.1,1,3.1,3c0,5.4,0,10.7,0,16.1c0,1.7-1.2,2.8-2.8,2.9c-3,0.1-6.1,0.2-9.1,0.3c-2.3,0-3.5-1.2-3.5-3.5
		c0-2.6,0-5.2,0-7.7C26.9,98.4,26.9,95.8,26.9,93.2z M26.9,144.4c0-2.7,0-5.3,0-8c0-2.2,1.1-3.2,3.2-3.2c3.1,0,6.1,0,9.2,0
		c2.1,0,3.1,1,3.1,3.2c0,5.3,0,10.6,0,16c0,2.5-1,3.8-3.5,3.8c-3.2,0.1-6.3-0.1-9.5-0.3c-1.6-0.1-2.5-1.3-2.5-3.2
		C26.9,149.9,26.9,147.1,26.9,144.4z"/>
	<path class="st0" d="M86.1,68.9c-2.1,0.1-3.6,1.4-3.7,3.2c-0.1,4-0.3,8.1-0.2,12.1c0,6.6,0.2,13.2,0.2,19.8c0,3.3-0.2,6.5-0.2,9.8
		c0,2.1,0.2,4.2,0.2,6.3c0,2.1-0.2,4.2-0.2,6.3c0,6.2,0.2,12.5,0.2,18.7c0,4.1-0.2,8.2-0.2,12.4c0,2.9,0.9,5.5,3.3,7.4
		c3.9,3,7.6,6.2,11.3,9.4c2.3,2,4.8,2.9,8,2.8c5.2-0.2,10.3-0.1,15.5-0.1c2.7,0,5.5,0,8.2,0c2,0,3.9-0.5,5.5-1.8
		c4.2-3.6,8.4-7.2,12.7-10.7c2.4-1.9,3.1-4.3,3.1-7.2c0-23.4,0-46.8,0-70.2c0-2.7-0.2-5.3-0.2-8c0-1,0-2,0.1-3
		c0.1-1.3,0.2-2.7,0.2-4c-0.1-2.3-1.4-3.4-3.7-3.4c-5.7,0-11.4,0-17.1,0c-4.2,0-5.3,1.1-5.3,5.2c0,0.4,0,0.8,0,1.2
		c0,12.6,0,25.2,0,37.8c0,13.1,0,26.2,0,39.3c0,2.5-1.2,3.7-3.7,3.7c-2.6,0-5.1,0-7.7,0c-2.9,0-4.1-1.2-4.1-4c0-17.7,0-35.5,0-53.2
		c0-7,0-13.9,0-20.9c0-1.6,0.1-3.2,0-4.8c-0.1-1.5-0.2-3.1-1.8-3.8c-0.8-0.3-1.8-0.5-2.8-0.5c-4.5,0-9,0-13.5,0
		C88.7,68.9,87.4,68.9,86.1,68.9z"/>
	<path class="st0" d="M275.2,107.2c-0.4,1-0.9,2.4-2.2,2.1c-1.2-0.3-1.1-1.7-1.1-2.7c0.1-6,0.2-11.9,0.2-17.9c0-4.7-0.1-9.4-0.2-14
		c0-1.1-0.1-2.1-0.3-3.2c-0.2-1.6-1.3-2.5-2.9-2.5c-5.6-0.1-11.2-0.2-16.7-0.2c-4.8,0-5.9,1-5.9,5.9c0,11.2,0,22.4,0,33.6
		c0,2.5-0.2,5-0.2,7.5c0,2.6,0.2,5.1,0.1,7.7c0,3.6-0.1,7.1-0.2,10.7c0,3.3,0,6.7,0,10c0,5.4,0,10.7,0,16.1c0,2.3,0.1,4.5,0.2,6.8
		c0.1,2.5,0.1,5,0.3,7.4c0.1,1.4,1,2.3,2.4,2.5c1.3,0.2,2.6,0.3,4,0.3c1.9,0,3.9-0.2,5.8-0.2c3.3,0,6.7,0,10,0c1.8,0,2.8-1,3.1-2.8
		c0.1-1,0.2-2,0.2-3.1c0-8.9,0-17.8,0-26.7c0-1.2-0.2-2.4-0.2-3.6c0.1-1.7,0.3-3.4,0.6-5.1c0.3-1.3,1.1-1.4,1.9-0.5
		c0.6,0.7,1,1.5,1.3,2.3c3.7,8.8,7.4,17.7,11.1,26.5c1.4,3.3,2.7,6.5,4.1,9.8c0.7,1.7,1.9,2.7,3.7,3c1.1,0.2,2.2,0.3,3.3,0.3
		c3.6,0,7.3,0,10.9,0c0-0.1,0-0.2,0-0.3c2.3,0,4.6,0.1,7,0c3-0.1,4.2-1.5,2.8-4.4c-1.3-2.6-2.4-5.4-3.7-8
		c-6.2-13.6-12.3-27.3-18.6-40.8c-1.3-2.8-1.2-5.3,0.1-8c5.5-11.6,11-23.3,16.4-34.9c1.3-2.7,2.6-5.4,3.7-8.1c0.9-2.1,0-3.5-2.3-3.7
		c-1.4-0.1-2.7,0-4.1,0c-2.7-0.1-5.4-0.2-8.1-0.2c-2.6,0-5.2,0.2-7.8,0.2c-2.1,0-3.5,0.9-4.3,2.8c-1.9,4.6-3.8,9.1-5.7,13.7
		C281.1,92.6,278.2,99.9,275.2,107.2z"/>
	<path class="st0" d="M164.2,128.8c0,9.8,0,19.7,0,29.5c0,2.6,0.8,4.7,2.9,6.4c4.2,3.3,8.3,6.8,12.4,10.2c1.5,1.3,3.2,2.3,5.3,2.3
		c3.8-0.1,7.5-0.1,11.3-0.2c4.7,0,9.5,0,14.2,0c2,0,3.9-0.5,5.5-1.8c4.7-3.7,9.3-7.4,14-11.2c1.3-1,2.3-2.3,2.3-4.1
		c0.1-6.4,0.2-12.9,0.2-19.3c0-2,0-4,0-5.9c-0.1-1.8-0.4-3.6-2.4-4.2c-0.8-0.3-1.8-0.3-2.7-0.4c-3.2,0-6.4,0-9.6,0
		c-2.2,0-4.4,0.2-6.6,0.2c-3.4,0-4.6,1.2-4.7,4.6c0,0.5,0,0.9,0,1.4c0,5.4,0,10.8,0,16.3c0,1.8-0.9,3-2.6,3.2
		c-1.3,0.2-2.6,0.3-3.8,0.3c-2.1,0-4.2-0.2-6.3-0.2c-2.5,0-3.5-1-3.5-3.5c0.1-7.2,0.2-14.3,0.2-21.5c0-2.9-0.2-5.8-0.2-8.8
		c0-3.2,0.2-6.4,0.2-9.7c0-2.7-0.2-5.4-0.2-8.1c0-3.7,0-7.3,0-11c0-2.2,1.1-3.3,3.2-3.3c3.3,0,6.5,0,9.8,0c2.2,0,3.2,1.1,3.2,3.3
		c0,4,0,8,0,12c0,0.9,0.1,1.8,0.3,2.7c0.2,1.4,1.3,2.4,2.7,2.4c2.4,0.1,4.7,0.2,7.1,0.2c4,0,8-0.1,12-0.1c2.5,0,3.5-0.9,3.9-3.3
		c0.1-0.5,0.1-1.1,0.1-1.7c0-2.9,0-5.8,0-8.6c0-3,0-6,0-9c0-2.7-1-4.9-3.2-6.7c-4.2-3.2-8.2-6.6-12.4-9.8c-1.2-1-2.8-1.9-4.3-2.1
		c-4-0.4-8-0.5-12.1-0.5c-2.4,0-4.7,0.2-7.1,0.2c-2.7,0-5.4,0-8.1,0c-1.9,0-3.6,0.5-5.1,1.8c-4.4,3.7-8.9,7.3-13.3,11
		c-1.7,1.4-2.7,3.2-2.7,5.4c0,2.4-0.1,4.8-0.1,7.2c0,4.2,0.2,8.4,0.2,12.6c0,4.8-0.2,9.5-0.2,14.3
		C163.9,123.7,164.2,126.3,164.2,128.8z"/>
	<path class="st0" d="M374.1,68.9c-2.2-0.1-4.4-0.2-6.6-0.2c-3,0-6,0.2-9,0.2c-6.5,0-12.9,0-19.4,0c-0.5,0-0.9-0.1-1.4-0.1
		c-1.8,0-3.7-0.1-5.5,0.1c-2.1,0.2-3.1,1.3-3.2,3.4c-0.1,2.1,0,4.3,0,6.4c0,3.6,0,7.1,0,10.7c0,7.2,0,14.3,0,21.5c0,2-0.2,4-0.2,6
		c0,3,0,5.9,0,8.9c0.1,4.7,0.2,9.4,0.2,14.1c0,0.6-0.1,1.2-0.1,1.8c0,1,0,2.1,0,3.1c0,3.3,0,6.6,0,9.9c0,1.8,0,3.7,0,5.5
		c0,1.3,0,2.7,0.1,4c0,3.2,0,6.4,0.1,9.6c0.1,1.8,1,2.7,2.8,2.8c3,0.2,6.1,0.2,9.1,0.2c4.1,0,8.2,0,12.2,0c2.8,0,5.6,0.2,8.4,0.2
		c2.9,0,5.7-0.2,8.6-0.2c2.9,0,5.7,0,8.6,0c2.1,0,3.3-1,3.7-3.1c0.2-1.1,0.3-2.1,0.2-3.2c-0.1-4-0.1-8-0.3-12.1
		c-0.1-1.4-1.1-2.3-2.5-2.5c-1.4-0.2-2.8-0.2-4.2-0.2c-3,0-6,0.2-9,0.2c-2.9,0-5.7-0.2-8.6-0.2c-2.2,0-3.2-1.1-3.2-3.3
		c0-6.4,0-12.7,0-19.1c0-2.2,1.1-3.2,3.3-3.2c2.5,0,5,0,7.5,0c0-0.1,0-0.2,0-0.2c3.1,0,6.3,0.1,9.4,0c1.8-0.1,2.9-1.3,3.1-3
		c0.2-2.1,0.3-4.3,0.3-6.4c0-2.6-0.1-5.2-0.2-7.9c-0.1-1.8-1.2-3.3-3-3.5c-1.4-0.2-2.9-0.3-4.4-0.3c-4.1,0-8.2,0.2-12.4,0.2
		c-2.3,0-3.5-1.3-3.5-3.6c0-4.1,0-8.2,0-12.3c0-2.4,1.2-3.5,3.6-3.5c3.9,0.1,7.7,0.2,11.6,0.2c2.9,0,5.7-0.2,8.6-0.2
		c2.8,0,4-1.1,4.1-3.8c0.1-4.3,0.1-8.7,0-13c0-2.6-1.1-3.8-3.4-4C377.5,68.8,375.8,68.9,374.1,68.9z"/>
	<path class="st0" d="M472.3,72.5c-0.1,0.5-0.1,1-0.1,1.5c0,4.3,0,8.7,0,13c0,4.8,0,9.6,0,14.4c-0.1,6.2-0.2,12.3-0.2,18.5
		c0,3,0.2,6.1,0.2,9.1c0,1.3-0.2,2.6-0.2,3.9c0,3.5,0.2,6.9,0.2,10.4c0,2.2-0.2,4.4-0.2,6.6c0,2.6,0.2,5.1,0.2,7.7
		c0,5.2,0.1,10.3,0,15.5c-0.1,2.7,1.7,4,3.9,4c6.1,0,12.1,0,18.2,0c6.1,0,12.2,0,18.3,0c3.4,0,6.8,0,10.2,0c1.6,0,2.6-0.8,2.9-2.5
		c0.1-0.8,0.2-1.6,0.2-2.4c0-2.2,0.1-4.5,0.1-6.7c0-2.3-0.1-4.5-0.3-6.8c-0.1-1.3-1-2.1-2.3-2.2c-2.4-0.2-4.9-0.5-7.3-0.5
		c-2.7,0-5.4,0.2-8.1,0.2c-2.2,0-4.5,0-6.7,0c-2.1,0-3.2-1.2-3.2-3.3c0-3.2,0-6.5,0-9.7c0-1.6,0-3.3,0-4.9c0-1.6,0-3.3,0-4.9
		c0-2,1.2-3.2,3.2-3.2c1.1,0,2.2,0,3.2,0c4.2,0,8.4,0,12.6,0c2.4,0,3.8-0.9,4.2-2.6c0.2-0.9,0.3-1.9,0.3-2.8c0-3.3-0.2-6.6-0.2-9.9
		c0-0.6,0-1.2,0-1.8c-0.2-2.4-0.9-3.3-3.3-3.7c-1.7-0.2-3.5-0.3-5.3-0.3c-3.7,0-7.4,0.2-11.2,0.2c-2.3,0-3.5-1.1-3.5-3.5
		c0-4.2,0-8.3,0-12.5c0-2,1.1-3.1,3.1-3.1c6.8-0.1,13.7-0.2,20.5-0.3c3.1,0,4.1-1,4.3-4c0-0.5,0-0.9,0-1.4c0-3.9,0-7.7,0-11.6
		c0-2.8-1-3.8-3.7-3.8c-4.3,0-8.7,0-13,0c-3.5,0-7,0-10.5,0c-2.6,0-5.1-0.2-7.7-0.2c-4.9,0-9.8,0.1-14.6,0.2
		C473.6,69,472.6,69.9,472.3,72.5z"/>
	<path class="st0" d="M394.8,68.7c-2.5,0-3.6,1.4-2.9,3.8c0.1,0.5,0.3,1,0.4,1.5c2.5,6.6,5.1,13.1,7.6,19.7c4.2,11,8.4,22,12.7,33
		c1.2,3.1,1.8,6.2,1.8,9.5c0,3.3,0,6.6,0,9.9c0,4.1,0,8.2,0,12.4c0,5,0,10,0,14.9c0,1.8,1,3.2,2.8,3.4c3.8,0.3,7.6,0.5,11.4,0.7
		c0-0.1,0-0.1,0-0.2c2.4,0,4.7,0,7.1,0c0.5,0,1-0.2,1.5-0.2c1.9-0.3,3-1.3,3.1-3.1c0.2-2.9,0.3-5.8,0.3-8.7c0-6.2,0-12.4,0-18.6
		c0-0.6,0-1.3-0.1-1.9c-0.1-3.2-0.3-6.4-0.1-9.7c0.1-2.2,0.4-4.5,1.2-6.5c5.2-13.9,10.5-27.8,15.7-41.7c1.8-4.8,3.6-9.7,5.3-14.5
		c0.6-1.6-0.1-2.8-1.8-3.1c-1.4-0.3-2.9-0.3-4.3-0.4c-4.7-0.1-9.4-0.1-14.2-0.1c-3.2,0-4.9,0.6-5.8,3.7c-1.9,6.8-3.8,13.7-5.7,20.5
		c-0.4,1.5-0.8,3.1-1.4,4.5c-0.3,0.6-1.1,1.3-1.7,1.4c-0.5,0-1-0.9-1.5-1.4c-0.2-0.2-0.2-0.5-0.2-0.7c-1.4-4.8-2.7-9.7-4.1-14.5
		c-1-3.6-2-7.1-3.1-10.7c-0.4-1.4-1.3-2.3-2.8-2.4c-2.2-0.2-4.4-0.4-6.7-0.4C404.4,68.6,399.6,68.7,394.8,68.7z"/>
	<path class="st0" d="M9.7,276.1c4.6,0,9.1,0,13.7,0c0,0,0,0,0,0c4.3,0,8.7,0,13,0c1.8,0,3.5-0.5,5-1.7c3.2-2.6,6.3-5.3,9.5-7.9
		c1.8-1.5,2.6-3.4,2.6-5.7c-0.1-5.4,0-10.7,0-16.1c0-2.5-0.9-4.4-3-5.7c-1.9-1.2-3.8-2.5-5.6-3.9c-2-1.4-2.1-3-0.2-4.6
		c1.1-1,2.2-1.9,3.4-2.7c2-1.5,3.8-3,3.9-5.7c0.1-5.1,0.2-10.2,0.2-15.3c0-2.7-0.8-5.2-3.1-7c-3.1-2.4-6-5.1-9.1-7.4
		c-1.1-0.8-2.7-1.4-4-1.4c-10.4-0.2-20.8-0.2-31.1-0.3c-2.9,0-4.1,1-4.4,3.6c-0.2,1.9-0.3,3.8-0.3,5.6c0,3.6,0.2,7.2,0.2,10.8
		c0,5.7,0,11.4,0,17.1c0,3.2-0.2,6.4-0.2,9.5c0,5.9,0.2,11.9,0.2,17.8c0,1.8-0.2,3.7-0.2,5.5c0,4.2,0.1,8.3,0.2,12.5
		c0,1.7,1.2,3,2.9,3.2C5.4,276.2,7.5,276.1,9.7,276.1z M32.8,250.4c0,1.9,0,3.9,0,5.8c0,2.1-1.2,3.3-3.3,3.4c-1.7,0-3.3,0-5,0
		c-2.4,0-3.8-1.3-3.8-3.7c0-1.8,0.2-3.6,0.2-5.4c0-1.8-0.2-3.6-0.2-5.4c0-2.6,1.3-3.9,3.9-3.8c1.9,0,3.8,0.1,5.6,0.3
		c1.6,0.1,2.6,1.3,2.6,3C32.8,246.5,32.8,248.5,32.8,250.4z M20.6,211.8c0-0.8,0.2-1.6,0.4-2.4c0.5-1.8,2.1-2,3.6-2.2
		c1.7-0.1,3.4-0.1,5.2,0c1.9,0.1,3,1.2,3,3.1c0,1.9,0,3.9,0,5.8c0,1.8,0,3.6,0,5.4c0,2.1-1.1,3.2-3.1,3.2c-1.9,0-3.9,0-5.8,0
		c-2.1,0-3.2-1.1-3.2-3.2C20.6,218.3,20.6,215.1,20.6,211.8z"/>
	<path class="st0" d="M321.5,259.1c-0.1-5.1-0.1-10.1,0-15.2c0-1.6-0.4-2.9-1.7-3.9c-2.3-1.8-4.7-3.5-7-5.2c-1.8-1.3-2-2.8-0.4-4.3
		c1.7-1.5,3.6-3,5.3-4.5c1.3-1.1,2.1-2.5,2.2-4.2c0-2.5,0-5,0-7.5c-0.1-3.6-0.1-7.2-0.3-10.8c-0.1-1-0.7-2.2-1.4-2.9
		c-3.1-2.8-6.3-5.6-9.6-8.2c-1.2-0.9-2.9-1.6-4.4-1.8c-2.1-0.4-4.4-0.3-6.5-0.3c-2.8,0-5.6,0.2-8.4,0.2c-5.5,0-11.1,0-16.6-0.1
		c-2.4,0-3.9,1.1-4.3,3.2c-0.2,1.1-0.3,2.1-0.3,3.2c0,2.9,0.2,5.8,0.2,8.8c0,7.4,0,14.8,0,22.2c0,4,0,8,0,12c0,2.6-0.2,5.1-0.2,7.7
		c0,2.7,0.2,5.5,0.2,8.2c0,4.9,0,9.9,0,14.8c0,1,0.1,2,0.3,2.9c0.2,1.4,1.1,2.2,2.4,2.5c0.9,0.2,1.9,0.3,2.8,0.3
		c3.6,0,7.2-0.2,10.8-0.2c3.8,0,7.6,0,11.5,0c0,0.1,0,0.2,0,0.3c2.3,0,4.6,0,7,0c2.5,0,4.8-0.7,6.8-2.3c2.6-2.3,5.2-4.7,8-6.7
		C320.8,265.2,321.6,262.5,321.5,259.1z M300.9,250.5c0,1.9,0,3.8,0,5.7c0,2.1-0.7,3.1-2.8,3.3c-2.3,0.2-4.6,0.1-6.9-0.1
		c-1.7-0.2-2.5-1.3-2.5-3.1c0-1.7,0.2-3.3,0.2-5c0-1.8-0.2-3.7-0.2-5.5c0-3.1,1.4-4.5,4.5-4.4c1.5,0,3,0,4.5,0
		c1.9,0,3.1,1.2,3.1,3.1C300.9,246.4,300.9,248.4,300.9,250.5z M300.8,222c0,1.8-1.4,2.8-3.6,3c-0.6,0-1.2,0-1.8,0c0,0,0,0,0,0.1
		c-1.3-0.1-2.6-0.2-4-0.3c-1.4-0.2-2.5-1.1-2.5-2.5c-0.1-4.1-0.1-8.2,0-12.3c0-1.6,1.3-2.7,2.9-2.7c2.1,0,4.2,0.1,6.3,0.3
		c1.6,0.1,2.5,1.4,2.6,3.7C300.9,214.8,300.9,218.4,300.8,222z"/>
	<path class="st0" d="M526.5,214.5c-0.1,0-0.2,0-0.3,0c0-4.5,0-8.9,0-13.4c0-1,0.1-2.1,0.1-3.1c0-1.6,0-3.3-0.1-4.9
		c-0.1-1.2-0.9-1.9-2.1-2.2c-1-0.2-2-0.3-3.1-0.3c-4,0-8.1-0.1-12.1,0.1c-2.1,0.1-3.1,1.5-3.1,3.6c0,2.5,0,5,0,7.4
		c-0.1,5.4-0.2,10.8-0.2,16.2c0,1.5,0.2,2.9,0.2,4.4c0,1.8-1.2,3.1-2.9,3.1c-2.1,0.1-4.1,0.1-6.2,0c-2.1-0.1-3.2-0.9-3.5-2.4
		c-0.2-0.9-0.3-1.9-0.3-2.8c0-1.8,0.2-3.7,0.2-5.5c0-4.1-0.2-8.2-0.2-12.2c0-2.9,0.1-5.8,0-8.8c0-1.6-1-2.7-2.6-2.8
		c-4.6-0.2-9.3-0.5-13.9-0.4c-2.7,0-3.6,1.1-3.8,3.8c0,0.5,0,0.9,0,1.4c0,3.5,0,7,0,10.5c-0.1,4.6-0.2,9.3-0.2,13.9
		c0,3.7,0.2,7.4,0.2,11c0,6.5,0,13,0,19.4c0,2.7-0.2,5.3-0.2,8c0,4.4,0.1,8.8,0.2,13.3c0,0.6,0.1,1.2,0.2,1.8
		c0.3,1.4,1.3,2.3,2.8,2.3c1.2,0,2.4,0.1,3.6,0.1c3.5,0,7,0,10.5-0.1c1.6-0.1,2.7-1.2,3-2.9c0.1-0.8,0.2-1.7,0.2-2.6
		c0-3,0-6.1,0-9.1c0.1-4,0.2-8,0.2-12c0-1.5-0.2-2.9-0.2-4.4c0-1.6,0.9-2.8,2.2-2.9c2.6-0.1,5.1-0.2,7.7,0c2.1,0.1,2.7,1.1,2.7,3.1
		c0,2.6,0,5.2,0,7.9c0,1.6,0.1,3.3,0.2,4.9c0.1,5.1,0.2,10.1,0.3,15.2c0,1.4,1.3,2.5,2.7,2.7c1.1,0.2,2.3,0.3,3.5,0.2
		c3.1,0,6.3-0.1,9.4-0.2c0.8,0,1.5-0.1,2.3-0.3c1.2-0.3,2-1.1,2.2-2.2c0.2-0.8,0.3-1.7,0.3-2.6c0-2.4-0.2-4.8-0.2-7.2
		c0-6.4,0.2-12.9,0.2-19.3c0-2.4-0.2-4.9-0.2-7.3c0-4.2,0.2-8.3,0.2-12.5C526.5,221.3,526.5,217.9,526.5,214.5z"/>
	<path class="st0" d="M232.1,239.2c-2-1.3-4-2.8-6-4.2c-1.8-1.3-2-2.9-0.3-4.4c1.2-1.1,2.5-2.2,3.9-3.2c1.8-1.4,3.5-2.8,3.6-5.3
		c0-5.7,0-11.4,0-17c0-2-0.7-3.8-2.4-5.2c-2.1-1.6-4.2-3.3-6.1-5.1c-3-2.8-6.3-4.2-10.4-4c-4.6,0.2-9.3,0-13.9,0c-5,0-10,0-15,0
		c-2.4,0-3.7,1.2-3.8,3.2c-0.1,2.7-0.2,5.3-0.2,8c0,1.9,0.2,3.8,0.2,5.7c0,3-0.2,5.9-0.2,8.9c0,2.3,0.2,4.6,0.2,6.9
		c0,5.4-0.2,10.7-0.2,16.1c0,4.8,0.2,9.7,0.2,14.5c0,3.9,0,7.7,0,11.6c0,2.5,0.1,5.1,0.3,7.6c0.1,1.8,1.1,2.8,2.9,2.9
		c2,0.1,4.1,0,6.2,0c2.4,0,4.9,0.1,7.3,0c2.6-0.1,3.7-1.2,3.8-3.9c0.1-4,0.3-8,0.2-12.1c0-5.2-0.2-10.3-0.2-15.5c0-1.8,1-3,2.7-3.1
		c2-0.1,3.9-0.2,5.9-0.3c2.4,0,3.5,1.1,3.5,3.5c0,4.5,0,8.9,0,13.4c0,4.3,0,8.5,0,12.8c0,0.9,0.1,1.8,0.3,2.7
		c0.2,1.4,1.3,2.4,2.8,2.4c4.5,0,8.9,0.1,13.4,0c3-0.1,4-1.2,4.2-4.2c0-0.5,0-0.9,0-1.4c0-7.5,0-15,0-22.4c0-0.7,0.1-1.4,0.2-2
		C235.2,243.2,234.6,240.8,232.1,239.2z M214.2,221.6c0,2.1-1.1,3.2-3.2,3.2c-1.9,0-3.8,0-5.7,0c-2.1,0-3.3-1.2-3.3-3.2
		c0-3.6,0-7.3,0-11c0-2,1.1-3.1,3.1-3.1c1.9,0,3.9,0,5.8,0c2.1,0,3.2,1.1,3.2,3.2c0,1.8,0,3.7,0,5.5
		C214.2,218,214.2,219.8,214.2,221.6z"/>
	<path class="st0" d="M389.6,257.6c-0.9-5.6-1.8-11.3-2.8-16.9c-0.7-4.5-1.4-9-2.2-13.5c-0.8-5.1-1.6-10.2-2.4-15.3
		c-0.6-4-1.3-7.9-2-11.9c-0.4-2.2-0.8-4.4-1.2-6.5c-0.3-1.5-1.4-2.5-3-2.6c-4.2-0.2-8.5-0.4-12.7-0.5c-4.2-0.1-8.5,0.1-12.7,0.1
		c-2.7,0-4.1,0.8-4.7,3.5c-0.6,2.8-1.1,5.7-1.5,8.5c-1.2,7.2-2.4,14.4-3.6,21.6c-1,6.1-2,12.2-3.1,18.3c-1.7,9.7-3.4,19.5-5.1,29.2
		c-0.4,2.4,0.4,4.1,2.2,4.3c1.8,0.2,3.7,0.2,5.5,0.2c2.4,0,4.7,0,7.1,0c2.9,0,4.4-0.8,4.9-3.7c0.5-2.8,0.8-5.6,1.1-8.4
		c0.3-2.5,1.3-3.8,3.3-3.8c3.1-0.1,6.2-0.2,9.3-0.3c2.3,0,3.5,0.9,4.1,3.1c0.2,0.7,0.3,1.4,0.4,2.1c0.4,2.5,0.6,5.1,1.1,7.6
		c0.3,1.9,1.6,3.1,3.2,3.2c2.7,0,5.5,0,8.2,0c0,0.1,0,0.2,0,0.3c1.8-0.1,3.6-0.2,5.4-0.2c3.2,0,4-0.9,3.6-4.2
		c-0.1-0.4,0-0.8-0.1-1.2C391.1,266.4,390.4,262,389.6,257.6z M363.4,243.6c-0.6,0.1-1.2,0-1.8,0c-4.3,0-4.9-0.6-4.4-5
		c0.5-4.5,1.3-9,2-13.5c0.4-2.6,0.5-5.2,0.9-7.8c0.2-1.7,0.4-3.5,0.8-5.2c0.1-0.6,0.8-1.1,1.3-1.6c0.4,0.5,1.1,1,1.2,1.6
		c0.5,2.3,0.8,4.7,1.1,7.1c0.7,5.1,1.4,10.1,2,15.2c0.2,1.8,0.5,3.6,0.6,5.3C367.1,242.9,365.7,243.3,363.4,243.6z"/>
	<path class="st0" d="M406.7,266.2c3.2,2.6,6.4,5.2,9.6,7.8c1.8,1.5,3.7,2.2,6,2.1c2.4-0.1,4.9,0,7.3,0c3.4,0.1,6.9,0.2,10.3,0.2
		c2.2,0,4.1-0.6,5.8-2c3.2-2.6,6.3-5.3,9.4-8c1.4-1.2,2.3-2.8,2.5-4.6c0.2-1.4,0.3-2.7,0.3-4.1c-0.1-5.5-0.1-11-0.3-16.5
		c0-2-0.6-3.7-2.2-5c-3.4-2.8-6.7-5.6-10.1-8.4c-1.6-1.4-3.3-2.7-5.5-2.9c-3.7-0.4-7.3-0.6-11-0.8c-2.6-0.1-4-1.3-4-3.9
		c0-3.1,0-6.2,0-9.3c0-2.3,1.3-3.6,3.6-3.6c1.9,0,3.9,0.1,5.8,0.3c1.3,0.1,2.3,0.9,2.4,2.2c0.2,1.6,0.3,3.2,0.3,4.9
		c0,3,1,4.1,4.1,4.2c0.8,0,1.5,0,2.3,0c1.9-0.1,3.8-0.2,5.7-0.2c1.2,0,2.5,0.1,3.7,0c1.7-0.2,2.7-1.1,2.8-2.8
		c0.2-3.6,0.2-7.1,0.3-10.7c0-1.5-0.4-2.7-1.5-3.7c-3.7-3.1-7.4-6.2-11.2-9.3c-1.3-1-2.8-1.5-4.5-1.5c-4.3,0-8.6,0-12.9,0
		c-1.2,0-2.4,0-3.6,0c-2.1,0-4,0.4-5.6,1.8c-3.4,2.9-6.8,5.7-10.2,8.6c-1.1,0.9-1.7,2.1-1.8,3.6c-0.1,3.2-0.2,6.4-0.2,9.7
		c0,3.7,0.1,7.4,0.3,11.1c0.1,2.1,0.8,3.8,2.4,5.2c3.6,3,7.1,6.1,10.7,9c1,0.8,2.3,1.5,3.5,1.7c3.7,0.5,7.5,0.8,11.2,1.1
		c2.9,0.2,4.3,0.9,4.4,3.7c0.1,3.3,0.2,6.5,0.2,9.8c0,2.6-1.2,3.8-3.9,3.8c-1.7,0-3.4-0.2-5.1-0.2c-2-0.1-3.1-1.1-3.1-3.1
		c0-1.4,0-2.8,0-4.1c0-1.8-1.2-3.3-3-3.5c-1.2-0.2-2.5-0.3-3.7-0.3c-2,0-3.9,0.1-5.9,0.2c-1.6,0.1-3.2,0.1-4.7,0.2
		c-2,0.2-3,1.3-3,3.3c-0.1,3,0,6.1,0,9.1C404.6,263.2,405.2,265,406.7,266.2z"/>
	<path class="st0" d="M147.8,207.4c1.1-0.1,2.1,0.1,3.2,0.1c3.9-0.1,7.9-0.2,11.8-0.2c3,0,4.2-1.2,4.1-4.3c0-1.4,0-2.7,0-4.1
		c0-1.8,0-3.7-0.1-5.5c-0.1-1.5-1.1-2.3-2.5-2.6c-0.8-0.2-1.7-0.3-2.6-0.3c-4.8,0-9.7,0-14.5,0c-3.6,0-7.1,0-10.7,0
		c0,0.1,0,0.1,0,0.2c-2.9,0-5.8,0-8.8,0c-1.9,0-3.1,0.9-3.3,2.9c-0.1,1.3,0,2.7,0,4.1c-0.1,3.9-0.2,7.8-0.2,11.7
		c0,2.7,0.2,5.5,0.2,8.2c0,3.6,0,7.2,0,10.8c0,4.7,0,9.3,0,14c0,2.8-0.2,5.6-0.2,8.4c0,4.1,0,8.2,0,12.3c0,2.6,0,5.2,0,7.8
		c0,0.9,0.1,1.7,0.3,2.5c0.4,1.5,1.3,2.5,3,2.6c1.7,0.1,3.3,0,5,0c3.9,0.1,7.8,0.2,11.7,0.2c4.5,0,9-0.2,13.5-0.2
		c1.9,0,3.8,0.1,5.6,0c2.4-0.2,3.3-1.3,3.4-3.7c0.1-3.2,0.1-6.4,0-9.6c0-1.5-0.8-2.5-2.3-2.9c-1.2-0.3-2.4-0.5-3.7-0.5
		c-4.1,0-8.2,0.1-12.4,0.2c-2.5,0-3.6-1.1-3.6-3.6c0.1-4.4,0.2-8.8,0.2-13.2c0-2.5,1-3.5,3.5-3.5c3.4,0,6.7,0,10.1,0
		c3.2-0.1,4.4-1.2,4.5-4.3c0.1-2.7,0-5.4,0-8.1c0-2.9-1.3-4.3-4.2-4.4c-3.6-0.1-7.1,0-10.7,0c-1.9,0-3-0.9-3.2-2.8
		c-0.2-3.2-0.3-6.3-0.2-9.5C145.1,208.4,146,207.5,147.8,207.4z"/>
	<path class="st0" d="M67.8,199.2c-0.1,2.1-0.2,4.2-0.2,6.3c0,3.3,0.2,6.7,0.2,10c0,3.7,0,7.4,0,11.1c0,4.3-0.2,8.7-0.2,13
		c0,2.3,0.2,4.5,0.2,6.8c0,6.9,0,13.8,0,20.7c0,1.6,0,3.2,0,4.8c0,2.5,1,3.8,3.4,4c2.7,0.2,5.5,0.2,8.2,0.2c6.1,0,12.1,0,18.2,0
		c0.5,0,0.9,0.1,1.4,0.1c2.7,0,5.3,0.1,8-0.1c2-0.1,3.1-1.5,3.1-3.5c0-1,0.1-2,0.1-3c0-2.4,0.1-4.8-0.1-7.2c-0.1-1.8-1.3-3-3.1-3.1
		c-2.9-0.1-5.8,0-8.8,0c-2.1,0-4.1,0.2-6.2,0.1c-2.6-0.1-3.6-1.1-3.6-3.1c-0.1-4.3-0.2-8.7-0.3-13c-0.1-3.1,1.3-4.4,4.3-4.3
		c3.7,0.1,7.4-0.1,11.1-0.2c1.5-0.1,2.5-1,2.9-2.4c0.3-1.2,0.2-2.5,0.2-3.8c0-1,0-2-0.1-3c0-1.6,0.1-3.2-0.1-4.7
		c-0.2-1.6-1.4-2.6-3-2.6c-4-0.1-8.1-0.2-12.1-0.3c-2.1,0-3.2-1.1-3.2-3.2c0-2.8,0.1-5.7,0.2-8.5c0.1-2.5,1.1-3.3,3.6-3.3
		c4.6,0,9.3,0,13.9,0.1c2.4,0,4-0.9,4.1-3c0.2-3.7,0.1-7.4,0-11c0-1.4-1.1-2.2-2.4-2.5c-0.9-0.2-1.9-0.3-2.8-0.3
		c-2.2,0-4.4,0.2-6.6,0.2c-4.3,0-8.6,0-12.9,0c-4.5,0-9,0-13.5,0c-2.5,0-3.7,1-4,3.4C67.7,195.8,67.9,197.5,67.8,199.2z"/>
	<path class="st0" d="M291.4,296.2c-0.3-1.5-1.6-2.3-3-1.8c-3,1-5.9,2.5-8.5,4.4c-1.3,1-2.7,1.9-4.2,2.4c-1.8,0.7-3.8,1.1-5.7,1.4
		c-0.9,0.2-1.9,0.2-2.7,0c-2.2-0.7-4.5-1.5-6.6-2.6c-2.5-1.2-5.1-1.8-7.8-1.8c-2.6,0.2-5.2,0.3-7.8,0.6c-2.2,0.2-4,1.1-4.4,3.6
		c-0.2,1-0.2,2-0.2,2.9c0.1,2,0.3,4,0.3,6c-0.1,7.3-0.3,14.6-0.5,21.9c0,0.3-0.1,0.7-0.2,1c-0.3,2.8-0.1,5.1,3.6,6.2
		c1.6,0.5,2.8,1.4,3.8,2.8c0.7,0.9,1.6,1.7,2.6,2.2c1.2,0.7,2.5,1.2,3.8,1.5c2.6,0.6,5.3,1.3,8.1,0.4c1.3-0.4,2.7-0.1,3.8,1
		c0.7,0.7,1.4,1.2,2.2,1.7c1.7,1,3.2,0.7,4.2-1c0.5-0.9,0.9-1.9,1.1-3c0.5-1.9,1.3-3.3,3.1-4.3c0.9-0.5,1.8-1.5,2.3-2.5
		c1.1-2,2.5-3.4,4.6-4.2c3-1.2,5-3.5,6-6.5c0.7-2,1.2-4.1,1.5-6.2c0.6-3.8,1.4-7.6,1.5-11.4c0.1-4.5-0.4-9.1-0.7-13.6
		C291.6,297.1,291.5,296.7,291.4,296.2z"/>
	<path class="st0" d="M463.6,44.5c2.2,1.8,4.6,2.7,7.7,2.5c2.5,0,5.1-0.4,7.4-2c3.7-2.6,3.9-7.1,0.6-10.2c-3.3-3.2-12.6-3.1-16,0.3
		C460.4,38,460.4,41.9,463.6,44.5z M476,38.1c1.1-0.7,2.3,0.4,2.4,2c-0.2,0.6-0.3,1.2-0.7,1.8c-1.2,1.8-3,2.7-5.2,2.8
		c-1.5,0-2.4-1.3-1.5-2.4C472.6,40.7,474.3,39.2,476,38.1z M465.4,37.4c1.3-1.6,3-2.3,5-2.5c1.7-0.1,2.5,1.2,1.5,2.5
		c-1.2,1.5-2.7,2.8-4.3,3.9c-1.4,0.9-2.9-0.1-3.1-2C464.7,38.6,464.9,37.9,465.4,37.4z"/>
	<path class="st0" d="M516.1,47.2c3.1,0.3,6.1-0.3,8.4-2.6c1.7-1.6,1.5-5.4-0.4-6.1c-3.5-1.3-7.1-2.6-10.9-0.9
		c-0.7,0.3-1.4,0.3-1.7-0.5c-0.3-0.8,0.1-1.3,1-1.5c3-0.9,6-0.9,9,0c0.9,0.3,1.8,0.4,2.7,0.7c0.1-1.6-0.3-2.3-1.6-2.9
		c-0.9-0.4-2-0.6-3-0.7c-2.9-0.2-5.7-0.5-8.4,0.9c-4.6,2.3-5.4,8-1.6,11.4C511.4,46.7,513.8,47,516.1,47.2z M511.5,41.9
		c0.2-0.8,0.7-1.7,1.4-2.1c2.7-1.4,5.5-1.2,8.1,0.2c1.5,0.8,1.6,2.9,0.1,3.7c-1.3,0.7-2.7,1-4.1,1.5c-1.5-0.4-2.8-0.8-4.1-1.3
		C512,43.6,511.2,42.9,511.5,41.9z"/>
	<path class="st0" d="M438.8,35.8c0.2-0.1,0.3-0.1,0.5-0.2c2.6-1.3,5.4-1.2,8.1-0.5c1.2,0.3,2.1,0.9,2.2,2.2c0.1,1.3-0.7,2-1.8,2.5
		c-1.5,0.6-3.1,1.2-4.6,1.8c-1.8,0.7-3.7,1.3-5.5,2.1c-0.5,0.2-1.1,1.2-1,1.7c0.1,0.5,0.9,1.1,1.5,1.3c0.8,0.3,1.8,0.3,2.7,0.3
		c1.7,0,3.4-0.2,5.1-0.3c0,0.1,0,0.1,0,0.2c1.8-0.1,3.5-0.1,5.3-0.4c1.6-0.2,2-1.7,0.9-2.8c-1.3-1.4-1.4-1.8-0.1-3.1
		c2.1-2.1,1.5-4.5-0.6-6.1c-1.8-1.4-3.9-1.7-6-1.9c-2.6-0.3-5.2-0.1-7.7,0.8c-1,0.3-1.8,0.9-1.5,2.2
		C436.5,36.3,437.5,36.4,438.8,35.8z"/>
	<path class="st0" d="M492,44.3c-0.7,1-0.4,1.9,0.8,2.2c0.8,0.2,1.6,0.2,2.5,0.3c0.3,0,0.8,0,1.1-0.1c0.6-0.2,1.5-0.5,1.7-0.9
		c0.2-0.4-0.5-1.1-0.8-1.7c-0.4-1-1-1.9-1.1-2.9c-0.2-1.9-0.2-3.8-0.3-5.6c-0.1-1.1-0.7-1.8-1.7-1.9c-1.3-0.2-2.1,0.7-2.7,1.6
		c-0.6,0.8-0.3,1.7,0.3,2.5C493.8,40,493.8,41.8,492,44.3z"/>
	<path class="st0" d="M344.8,26.6c2,0.7,4,1.3,6.1,1.9c0.5,0.1,1.5-0.1,1.7-0.5c0.3-0.5,0-1.3-0.2-1.9c-0.2-0.8-0.6-1.6-0.8-2.1
		c0.1-0.8,0.1-1.3,0.3-1.7c0.3-1,0.7-2.1,1.9-2.2c1.2,0,1.6,1.1,1.9,2.1c0.3,1.3,0.7,2.5,1,3.8c1.1,4.1,2.9,4.6,6.1,1.7
		c1.3-1.2,2.7-2.3,4.2-3.2c1-0.6,1.8,0,1.9,1.2c0.1,2-0.8,3.5-2.5,4.5c-0.5,0.3-1.2,1-1.2,1.5c0.1,0.6,0.7,1.3,1.3,1.5
		c1.9,0.7,3.8,1.3,5.7,1.8c0.5,0.1,1.4-0.4,1.8-0.9c0.2-0.3-0.2-1.1-0.4-1.7c-0.1-0.2-0.4-0.3-0.6-0.5c-1.1-1-1.6-2.1-1-3.6
		c0.3-0.9,0.6-1.8,0.8-2.7c0.5-2.1,1.4-3.7,3.9-3.9c0.5,0,1.3-0.7,1.3-1.1c0-0.5-0.5-1.3-1-1.6c-1.1-0.6-2.4-0.9-3.6-1.3
		c-2.1-0.7-3.8,0.1-5.4,1.4c-1.6,1.3-3.2,2.6-4.7,4c-1.8,1.5-3.3,1.2-4-1c-0.6-1.9-1.2-3.8-1.7-5.7c-0.7-2.8-2.4-4.4-5.1-5.2
		c-0.7-0.2-1.3-0.3-2-0.5c-0.9-0.3-1.7-0.2-2.2,0.6c-0.6,0.9,0.1,1.5,0.8,2.1c1.1,0.9,1.5,2.1,1.2,3.5c-0.3,1.4-0.8,2.8-1.2,4.2
		c-0.5,1.8-1.7,2.8-3.5,3c-0.5,0.1-1,0.6-1.5,0.9C344.1,25.5,344.4,26.4,344.8,26.6z"/>
	<path class="st0" d="M265.6,16.8c0,0,0.1,0,0.1,0c5.2,0.3,10.4,0.6,15.7,0.9c1.5-0.1,3-0.2,4.4-0.4c0.4,0,0.8-0.2,1-0.4
		c0.8-0.7,1.4-1.4,0.8-2.5c-0.6-1.2-1.5-1-2.5-0.8c-1.4,0.3-2.9,0.8-4.3,0.8c-2.4,0-4.9-0.3-7.3-0.5c-0.5,0-1-0.1-1.3-0.3
		c-0.4-0.4-1-1-1-1.5c0-0.5,0.5-1.2,1-1.5c0.5-0.3,1.1-0.3,1.7-0.3c2.1-0.1,4.1,0,6.2-0.1c0.8,0,1.8-0.3,1.8-1.3
		c0-1-0.9-1.3-1.7-1.4c-2.2-0.2-4.4-0.3-6.5-0.5c-1.2-0.1-2.2-0.8-2.1-1.7c0.1-1.2,1-1.7,1.9-1.7c4.2,0.2,8.6-0.9,12.7,1.1
		c0.4,0.2,1.4-0.2,1.9-0.5c0.7-0.6,0.6-1.5,0-2.1c-0.4-0.5-1.1-0.9-1.7-1.1c-1.5-0.3-3.1-0.4-4.7-0.5c-3.4-0.2-6.8-0.4-10.3-0.5
		c-2-0.1-4-0.1-6,0c-0.6,0-1.4,0.7-1.5,1.2c-0.1,0.4,0.5,1.3,1.1,1.5c2.1,0.8,2.6,2.4,2.4,4.4c-0.1,0.9,0,1.7,0,2.6
		c-0.1,1.6-0.6,3-2.3,3.7c-0.8,0.4-2,0.7-1.8,1.9C263.5,16.6,264.7,16.5,265.6,16.8z"/>
	<path class="st0" d="M174.1,14.6c0.7,2.1,1.2,4.4,1.5,6.7c0.2,1.4-1.2,2-2.1,2.9c-0.3,0.3-0.7,1.1-0.6,1.4c0.2,0.5,0.9,0.8,1.4,1.1
		c0.3,0.1,0.7,0.1,1,0c1.3-0.2,2.6-0.5,3.9-0.8c1.1-0.3,2.2-0.5,3.3-1c0.4-0.2,1-0.9,0.9-1.3c0-0.4-0.6-0.9-1-1.2
		c-0.2-0.2-0.6-0.2-1-0.3c-1.1-0.3-2-1-2.3-2.2c-0.2-0.8-0.7-1.6-0.7-2.4c0-0.9,0.1-2.1,0.7-2.5c0.5-0.4,1.8-0.2,2.6,0.1
		c1.5,0.7,2.9,1.6,4.3,2.5c2.5,1.4,4.9,2.9,7.4,4.3c0.9,0.5,2,0.6,2.9-0.2c0.9-0.8,1-1.8,0.7-2.8c-0.4-1.7-0.8-3.4-1.2-5.1
		c-0.6-2.4-0.9-4.7,1.7-6.2c0.3-0.2,0.5-0.9,0.4-1.2c-0.2-0.4-0.8-0.7-1.2-0.9c-0.2-0.1-0.6,0-0.9,0c0-0.1,0-0.2-0.1-0.2
		c-2.2,0.6-4.5,1-6.7,1.7c-0.5,0.2-1.3,1-1.2,1.4c0.1,0.5,0.8,1.3,1.4,1.4c2.5,0.5,3.1,2.4,3.4,4.5c0.3,1.8-1,2.8-2.7,2.2
		c-0.7-0.2-1.3-0.6-1.9-1c-2.4-1.4-4.8-2.6-7.1-4.2c-3.2-2.2-6.4-1.8-9.6-0.6c-0.6,0.2-1,1.1-1.5,1.6c0.6,0.4,1.2,0.9,1.8,1.2
		C172.5,13.7,173.8,13.9,174.1,14.6z"/>
	<path class="st0" d="M206,17.3c3.5,2.8,7.6,3.3,11.9,2.5c2.1-0.4,4.1-1,6.2-1.5c2.1-0.5,3-1.6,2.8-3.6c-0.2-2-1.6-3.6-3.5-3.5
		c-2.5,0.1-5,0.5-7.5,1c-0.6,0.1-1.5,0.9-1.5,1.4c0,0.6,0.8,1.2,1.4,1.7c0.3,0.3,0.9,0.4,1.6,0.8c-0.7,0.4-1.1,0.7-1.6,0.9
		c-2.7,1-6.7-0.4-8.1-2.9c-0.5-0.9-0.7-2.1-0.5-3c0.6-3.1,4.1-5.5,7.4-5.7c2.7-0.1,5.2,0.5,7.8,1.2c1.2,0.3,2.4-0.5,2.6-1.7
		c0.2-1-0.8-2.3-1.9-2.3c-3-0.1-6-0.2-9,0c-3.4,0.3-6.4,1.7-8.8,4.3C202.2,10,202.5,14.5,206,17.3z"/>
	<path class="st0" d="M384.8,38.4c0.3,0.8,0.9,1.6,1.6,2.2c1.1,0.9,2.3,1.7,3.6,2.3c2.6,1.3,5.2,2.7,8,3.7c1.3,0.5,2.8,0.6,4.1,0.4
		c3-0.3,4.5-3.3,2.9-5.8c-0.8-1.2-1.9-2.2-3.1-3c-2.3-1.6-4.7-3-7-4.6c-0.9-0.6-1.7-1.5-1.1-2.7c0.6-1.3,1.8-0.9,2.8-0.8
		c0.1,0,0.2,0.1,0.4,0.1c3.5,1.1,6.6,2.7,8.9,5.7c0.9,1.2,2,1.3,2.8,0.5c0.9-0.9,0.8-2-0.3-3c-0.2-0.2-0.4-0.4-0.6-0.5
		c-2.7-1.5-5.2-3.2-8-4.6c-1.8-0.9-3.8-1.3-4.9-1.7c-4.1,0-6.1,1.7-5.7,4.5c0.2,1.2,1,2.6,1.9,3.3c2.2,1.7,4.6,3,7,4.6
		c0.9,0.6,1.8,1.2,2.5,1.9c0.4,0.4,0.5,1.3,0.3,1.9c-0.2,0.4-1,0.8-1.5,0.8c-0.9,0-1.9-0.1-2.7-0.4c-3.4-1.3-6.7-2.8-8.7-6.1
		c-0.5-0.8-1.2-1.2-2.1-0.8C385,36.6,384.5,37.5,384.8,38.4z"/>
	<path class="st0" d="M137.7,23.5c2.5,0.3,3.6,2,4.4,4.1c2.1,5.6,7.6,7.1,12.4,5.7c5.6-1.7,9.8-6.4,7.6-12.7
		c-0.7-2.1-0.7-3.9,1.2-5.4c0.4-0.3,0.6-1.3,0.4-1.5c-0.4-0.4-1.2-0.9-1.7-0.7c-2.4,0.6-4.8,1.4-7.2,2.3c-0.6,0.2-1.3,1.1-1.3,1.7
		c0,0.9,0.9,1.2,1.8,1.3c1.2,0.1,2.3,0.6,2.8,1.7c0.6,1.3,0.9,2.7,1.4,4.1c-0.1,0-0.1,0.1-0.2,0.1c-0.1,0.5-0.1,0.9-0.2,1.4
		c-1.1,3.8-6.2,6.5-9.9,5.2c-2.7-0.9-3.8-3.1-4.5-5.5c-0.5-1.8,0.1-3.2,1.5-4.4c0.3-0.3,0.5-1.1,0.3-1.5c-0.2-0.4-1-0.8-1.4-0.7
		c-2.6,0.8-5.2,1.7-7.8,2.7c-0.4,0.2-0.9,0.9-0.8,1.3C136.6,22.9,137.2,23.5,137.7,23.5z"/>
	<path class="st0" d="M255,16.8c0.9-0.1,1.8-0.3,2.6-0.7c1-0.5,1.3-1.9,0.7-2.8c-0.7-1-1.6-1-2.6-0.5c-0.8,0.4-1.6,0.8-2.4,0.9
		c-3.1,0.3-6.2,0.4-9.4,0.5c-1.7,0.1-2.9-0.9-3.1-2.6c-0.2-1.2-0.2-2.5-0.3-3.7c-0.2-2.2,0.4-3.9,2.5-4.8c0.4-0.2,0.9-1,0.8-1.5
		c-0.1-0.4-0.8-0.9-1.4-1.1c-1.1-0.3-2.2-0.3-3.3-0.4c-1.1,0.1-2.3,0.2-3.4,0.3c-1.1,0.1-2.2,0.3-2.4,1.5c-0.2,1.1,1,1.5,1.8,1.9
		c1.3,0.6,2,1.7,2,3.2c0,0.9-0.1,1.8,0.1,2.7c0.4,2.2-0.1,4-2.4,4.9c-0.7,0.3-1.5,0.9-1,1.8c0.3,0.5,1.2,1,1.8,1
		c1.1,0.1,2.2-0.2,3.3-0.2c3.9-0.1,7.7-0.2,11.6-0.3C252.1,17,253.5,16.9,255,16.8z"/>
	<path class="st0" d="M304.3,18.3c1.9,1.7,4.1,2.4,6.6,2.4c0.4,0,0.8,0,1.2,0c0.2,0,0.3-0.1,0.5-0.1c3.9-0.8,5.9-3.3,6.7-7
		c0.5-2.6,0.8-5.1,4-5.9c1.1-0.3,1-1.6,0-2.2c-0.3-0.2-0.7-0.4-1-0.5c-2.1-0.3-4.2-0.7-6.3-0.8c-0.6,0-1.6,0.3-1.9,0.8
		c-0.5,0.8,0.4,1.3,0.9,1.9c0.6,0.7,1.4,1.5,1.5,2.4c0.2,2.3-0.3,4.5-1.7,6.4c-1,1.3-2.4,1.9-4,2c-1.8,0.1-3.2-0.8-4.6-1.6
		c-0.8-0.4-1.5-0.7-2.2,0.1C303.1,17,303.7,17.7,304.3,18.3z"/>
	<path class="st0" d="M120,46.3c2.3,0.4,4.4-0.4,6.3-1.6c3.6-2.4,4.8-6.5,3.2-10.4c-0.3-0.8-0.7-1.6-1.1-2.4
		c-0.6-1.5-0.6-2.9,0.5-4.2c0.5-0.6,1.2-1.4,0.4-2c-0.5-0.4-1.5-0.4-2.1-0.2c-2.1,0.8-4,1.8-6,2.8c-0.4,0.2-0.7,0.5-1,0.8
		c-0.7,0.8-0.5,1.5,0.5,1.9c0.5,0.2,1.2,0.1,1.8,0.2c0.7,0.2,1.6,0.3,2,0.8c1.5,1.7,2.3,3.6,2.5,5.8c-0.1,1.8-0.7,3.2-2.1,4.2
		c-1.4,1.1-3.1,1.3-4.8,1.3c-0.9,0-2.1,0.3-2.1,1.4C118,45.7,119,46.1,120,46.3z"/>
	<path class="st0" d="M329.1,23.2c2.3,0.7,4.7,1.2,7.3,1.8c0.5-0.3,1.3-0.6,1.8-1.2c0.2-0.3-0.2-1.3-0.6-1.6c-1.9-1.3-2.3-2.9-1.8-5
		c0.6-2.8,0.7-5.7,4.5-6.1c0.3,0,0.9-0.6,0.9-0.9c0-0.4-0.3-1-0.7-1.2c-0.9-0.4-2-0.8-3-1c-1.8-0.4-3.7-0.7-5.5-0.9
		c-0.5,0-1.2,0.4-1.4,0.8c-0.1,0.4,0.3,1,0.6,1.5c0.2,0.3,0.5,0.4,0.8,0.6c0.9,0.7,1.4,1.5,1.3,2.6c-0.2,1.3-0.3,2.6-0.5,3.9
		c-0.3,2-1.1,3.6-3.5,4c-0.5,0.1-1.3,0.8-1.3,1.3C327.8,22.3,328.5,23.1,329.1,23.2z"/>
	<path class="st0" d="M384.3,26.2c1-0.1,1.5-0.7,1.6-2.1c-0.3-0.2-0.8-0.9-1.3-0.9c-0.9,0-1.6,0.6-1.6,1.6
		C383,25.7,383.4,26.3,384.3,26.2z"/>
	<path class="st0" d="M27.3,45.8c0.4,0.3,0.8,0.5,1.3,0.6c0.9,0.2,1.8,0.3,2.6,0.4c3.2,0.6,6.4,0.5,9.5-0.4c2.2-0.7,3.6-2.2,3.5-3.7
		c-0.1-1.6-1.4-3-3.7-3.4c-2.4-0.5-4.8-0.7-7.2-1.1c-1.5-0.2-2.4-0.9-2.3-1.8c0.2-1.4,1.3-1.5,2.4-1.8c0.2,0,0.3,0,0.5,0
		c2.3-0.2,4.5,0.3,6.6,1.1c1.5,0.6,2.4,0.3,2.7-0.7c0.3-0.9-0.5-1.8-1.9-2.2c-0.2,0-0.3-0.1-0.5-0.1c-1.6-0.1-3.2-0.2-5.5-0.4
		c-1.6,0.2-3.9,0.4-6.1,1c-1.5,0.4-2.6,1.6-2.6,3.3c0,1.7,1.1,2.7,2.6,3.3c0.3,0.1,0.6,0.2,0.8,0.3c1.9,0.3,3.9,0.5,5.8,0.8
		c0.9,0.1,1.8,0.1,2.6,0.5c0.5,0.2,1.2,0.9,1.2,1.4c0,0.6-0.6,1.3-1.1,1.6c-0.5,0.3-1.2,0.4-1.8,0.4c-2.8,0-5.7,0-8.2-1.5
		c-0.7-0.4-1.5-0.3-2,0.5C26.2,44.7,26.7,45.4,27.3,45.8z"/>
	<path class="st0" d="M3.5,46.7c0.5,0.1,0.9,0.2,1.4,0.1c4.2-0.7,8.4-0.5,12.7-0.2c0.7,0.1,1.5,0,2.1-0.3c0.9-0.3,1.8-0.8,1.4-1.9
		c-0.4-1.1-1.3-1-2.3-0.7c-1.8,0.5-3.7,0.8-5.4,1.2c-1.7-0.2-3.1-0.3-4.5-0.6c-0.8-0.2-1.4-0.9-1.1-1.7C8,42,8.6,41.4,9.1,41
		c0.4-0.3,1-0.2,1.5-0.3c1.2-0.1,2.3-0.1,3.5-0.3c0.3-0.1,0.6-0.6,0.9-0.9c-0.3-0.3-0.6-0.7-1-0.8c-0.5-0.1-1.1,0-1.7,0
		c-1-0.1-2.1-0.1-3-0.4c-0.6-0.2-1.1-0.9-1.3-1.5c-0.3-0.9,0.4-1.5,1.2-1.7c0.7-0.2,1.4-0.4,2.1-0.3c2.6,0.3,5.3,0,7.9,1
		c0.2,0.1,0.5,0.1,0.6,0c0.4-0.2,0.9-0.3,1.1-0.7c0.2-0.3,0-0.9-0.2-1.2c-0.3-0.4-0.9-0.8-1.4-0.9c-1.6-0.2-3.2-0.2-4.7-0.2
		c-1.5,0-3,0.2-4.5,0.1C8,33,6,32.8,4,32.8c-0.6,0-1.5,0.4-1.7,0.9c-0.2,0.4,0.1,1.3,0.4,1.8C4.5,38,4.5,42,2.6,44.3
		C1.7,45.5,2,46.4,3.5,46.7z"/>
	<path class="st0" d="M72.1,45.7c0.2,0.5,1,0.8,1.6,1c0.4,0.2,0.9,0.1,1.4,0c2.5-0.1,5.1-0.4,7.6-0.2c2.4,0.1,4.5-0.3,6.5-1.6
		c1.8-1.2,3-2.7,3.2-5c0.3-2.9-2.8-6.1-5.8-6.4c-3.4-0.3-6.8-0.6-10.2-0.8c-1-0.1-2,0-2.9,0.2c-1.3,0.3-1.6,1.3-0.7,2.3
		c1.2,1.3,1.5,2.7,1.4,4.4c0.2,1.6-0.2,3.1-1.3,4.4C72.4,44.5,72,45.3,72.1,45.7z M76.9,39.3c0-0.6,0.1-1.2,0.3-1.8
		c0.3-1.3,1-2.3,2.5-2.5c2.8-0.4,5.6-0.7,7.9,1.3c2.4,2.1,2.2,5-0.5,6.7c-1.7,1.1-3.6,1.4-5.3,1.3c-0.3,0-0.3,0-0.4,0
		C77.1,44.6,76.7,42.7,76.9,39.3z"/>
	<path class="st0" d="M50.2,35.7c0.6,0,1.3-0.3,2-0.5c2.7-0.7,4.9,0.5,5,2.8c0.1,2.3,0.3,4.6-1.5,6.5c-0.7,0.8-0.4,1.8,0.7,1.9
		c1.5,0.1,3.1,0.1,4.5-0.2c1.1-0.2,1.2-1,0.5-2c-0.8-1.1-1.2-2.3-1.1-3.7c0.1-0.8,0-1.5,0-2.3c0-2.6,1.8-3.9,4.3-3.2
		c0.8,0.2,1.5,0.6,2.3,0.7c0.5,0,1.4-0.2,1.6-0.6c0.2-0.4-0.2-1.3-0.5-1.6c-0.6-0.4-1.4-0.6-2.2-0.6c-3.3-0.1-6.7,0-10,0
		c0,0,0-0.1,0-0.1c-1.3,0-2.7-0.1-4,0c-0.9,0.1-1.8,0.4-2.6,0.8c-0.3,0.2-0.6,1.1-0.5,1.4C49,35.3,49.6,35.7,50.2,35.7z"/>
	<path class="st0" d="M525.5,321.9c-0.3-0.1-0.6-0.2-0.9-0.2c-3.4,0-10.2,0-13.6,0c-1.7,0-3.3,0-5,0c-0.4,0-0.7,0-1.1-0.1
		c-0.6-0.1-0.8-0.6-0.6-1.2c0.1-0.3,0.3-0.7,0.5-1c1.7-2.7,3.4-5.3,5.1-8c0.5-0.8,1.2-1.3,2.2-1.3c1.4-0.1,2.8-0.1,4.2-0.2
		c0.6,0,1.2-0.2,1.5-0.9c0.2-0.5,0.2-1-0.1-1.5c-0.4-0.5-1-0.7-1.6-0.7c-12.2,0-24.5-0.1-36.7-0.1c-1.1,0-2.1,0.1-3.2,0.1
		c-12.6,0-25.3,0.1-37.9,0.1c-0.6,0-1.2-0.1-1.8-0.1c-8.5,0-17,0-25.5,0c-13.7,0-27.4,0.1-41.1,0.1c-1.5,0-3-0.1-4.4-0.1
		c-7.6,0-15.2,0-22.8,0c-0.2,0-0.4,0-0.5,0.1c-1.1,0.2-1.8,1.1-2.4,2c-2.4,3.7-4.8,7.5-7.2,11.2c-0.5,0.8-1.1,1.3-2,1.4
		c-0.5,0.1-1,0.1-1.5,0.1c-3.9,0-11.3,0-15.2,0c-0.4,0-0.8,0.1-1.2,0.3c-0.5,0.2-0.7,0.7-0.7,1.3c0,0.5,0.2,1,0.7,1.2
		c0.4,0.2,0.8,0.3,1.3,0.3c4,0,11.4,0,15.4,0c1.5,0,2.6,0.6,3.5,2c2.3,3.8,4.8,7.4,7.1,11.2c0.8,1.2,1.8,1.8,3.2,1.8
		c5.1,0,10.2,0,15.3,0c8.8,0,17.7-0.1,26.5-0.1c0.9,0,1.7,0.1,2.6,0.1c1.5,0,3,0,4.4,0c4.8,0,9.5,0,14.3,0c26.6,0,53.1-0.1,79.7-0.1
		c0.8,0,1.7,0.1,2.5,0.1c7.8,0,15.5,0,23.3,0c1.5,0,3,0,4.5,0c0.4,0,0.7-0.1,1.1-0.3c0.5-0.2,0.8-0.7,0.7-1.3c0-0.6-0.3-1-0.8-1.2
		c-0.4-0.2-0.9-0.3-1.3-0.3c-1,0-1.9,0-2.9,0c-1.4,0-2.5-0.5-3.3-1.9c-1.2-2-2.4-3.8-3.6-5.7c-0.5-0.8-1.1-1.7-1.6-2.6
		c-0.4-0.7-0.1-1.3,0.7-1.4c0.4-0.1,0.8-0.1,1.2-0.1c2.4,0,4.8,0,7.2,0c0,0,0,0,0,0c2.5,0,8.5,0,11,0c0.4,0,0.8-0.1,1.2-0.3
		c0.6-0.3,0.8-0.8,0.8-1.5C526.4,322.5,526,322.1,525.5,321.9z M445.7,310c3.5,0,7,0,10.5,0c3.4,0,6.9,0,10.3,0c1.3,0,2.7,0,4,0
		c0.2,0,0.4,0,0.6,0c1.2,0.1,1.5,0.8,0.8,1.9c-1.1,1.8-2.3,3.6-3.4,5.4c-0.5,0.8-1.1,1.6-1.6,2.5c-0.8,1.4-2,1.9-3.4,2
		c-2.2,0-4.4,0-6.6,0c-3.1,0-6.2,0-9.3,0c-3.1,0-6.2,0-9.4,0c-0.2,0-0.3-0.1-0.5-0.1c-0.9-0.2-1.2-0.7-0.8-1.6
		c0.3-0.6,0.7-1.2,1.1-1.8c1.4-2.1,2.8-4.2,4.1-6.4C443.2,310.5,444.3,310,445.7,310z M412.2,310c3.4,0,6.8,0,10.2,0
		c2.9,0,5.9,0,8.8,0c1.9,0,3.8,0,5.6,0c0.4,0,0.7,0,1.1,0.1c0.6,0.1,0.9,0.6,0.7,1.2c-0.1,0.3-0.2,0.5-0.4,0.8
		c-1.6,2.6-3.3,5.1-4.9,7.7c-0.9,1.4-2.1,1.9-3.5,1.9c-3.4,0-6.8,0-10.1,0c0,0,0,0,0,0c-3.3,0-6.7,0-10,0c-1.5,0-2.9,0-4.4,0
		c-0.4,0-0.7,0-1.1-0.1c-0.6-0.1-0.9-0.7-0.7-1.3c0.1-0.3,0.3-0.7,0.5-1c1.6-2.5,3.3-5.1,4.9-7.6C409.6,310.4,410.8,310,412.2,310z
		 M379,309.9c1.1,0.1,2.2,0,3.3,0c0.6,0,1.2,0.1,1.8,0.1c6.3,0,12.6,0,19,0c0.4,0,0.8,0,1.2,0.1c0.8,0.1,1.1,0.7,0.7,1.4
		c-0.3,0.7-0.7,1.3-1.1,1.9c-1.4,2.2-2.8,4.3-4.2,6.5c-0.8,1.2-1.8,1.8-3.2,1.8c-4.1,0-8.3,0-12.4,0c-4.1,0-8.3,0-12.4,0
		c-0.4,0-0.7,0-1.1-0.1c-0.7-0.1-1-0.7-0.7-1.4c0.4-0.7,0.8-1.4,1.2-2.1c1.4-2.1,2.7-4.2,4.1-6.3C376.1,310.3,377.4,309.8,379,309.9
		z M336.2,320.2c0.6-1.1,1.3-2.2,2-3.3c1-1.6,2.1-3.2,3.1-4.8c0.9-1.5,2.2-2.2,3.8-2.1c2.5,0,5,0.1,7.5,0.1c5.6,0,11.2,0,16.9,0
		c0.4,0,0.7,0,1.1,0.1c0.9,0.1,1.2,0.7,0.7,1.5c-0.5,0.9-1,1.7-1.5,2.5c-1.2,1.9-2.4,3.7-3.6,5.6c-0.9,1.5-2.1,2-3.6,2
		c-4.1,0-8.2,0-12.3,0c-4,0-8.1,0-12.1,0c-0.4,0-0.8,0-1.2-0.1C336.1,321.5,335.8,320.9,336.2,320.2z M370.1,336.6
		c-0.9,0-1.8,0-2.7,0c-1.9,0-3.7,0.1-5.6,0.1c-2.5,0-5-0.1-7.5-0.1c-1.7,0-3.4,0-5,0c-1,0-2,0.1-3.1,0.1c-0.8,0-1.7-0.1-2.5-0.3
		c-0.9-0.1-1.6-0.8-2.1-1.6c-1.7-2.7-3.4-5.3-5.1-8c-0.1-0.2-0.2-0.4-0.3-0.6c-0.3-0.6,0-1.2,0.6-1.3c0.4-0.1,0.8-0.1,1.2-0.1
		c3.7,0,7.4,0,11.1,0c0,0,0,0,0,0c3.7,0,7.4,0,11.1,0c1.1,0,2.3,0,3.4,0.1c0.9,0.1,1.6,0.5,2.1,1.3c1.8,2.8,3.6,5.6,5.4,8.3
		C371.7,335.6,371.7,336.5,370.1,336.6z M405,336c-0.3,0.6-0.9,0.6-1.4,0.6c-3.2,0-6.5,0-9.7,0c-0.9,0-1.8,0.1-2.6,0.1
		c-4.2,0-8.4-0.1-12.6-0.1c-1.5,0-2.7-0.6-3.5-2c-1.5-2.6-3.2-5-4.8-7.6c-0.1-0.2-0.3-0.5-0.4-0.7c-0.3-0.7,0-1.3,0.7-1.4
		c0.4-0.1,0.8-0.1,1.2-0.1c4.1,0,8.2,0,12.3,0c4.1,0,8.2,0,12.3,0c1.4,0,2.6,0.5,3.3,1.9c0.2,0.4,0.5,0.8,0.8,1.2
		c1.4,2.2,2.8,4.4,4.2,6.6C404.9,335,405.3,335.4,405,336z M438.6,336c-0.3,0.6-1,0.6-1.5,0.6c-3.5,0-7,0-10.6,0c-0.7,0-1.3,0-2,0v0
		c-4,0-8.1,0-12.1,0c-0.5,0-1,0-1.5-0.1c-0.9-0.2-1.5-0.7-2-1.4c-1.7-2.6-3.4-5.3-5.1-7.9c-0.2-0.2-0.3-0.5-0.4-0.7
		c-0.3-0.7,0-1.3,0.7-1.4c0.4-0.1,0.8-0.1,1.2-0.1c2.3,0,4.7,0,7,0c5.8,0,11.7,0,17.5,0c1.5,0,2.6,0.6,3.5,1.9
		c1.6,2.6,3.2,5.1,4.8,7.6C438.5,334.9,438.9,335.4,438.6,336z M471.5,336.5c-0.4,0.1-0.8,0.1-1.2,0.1c-2.4,0-4.8,0-7.1,0
		c-0.8,0-1.6,0.1-2.4,0.1c-3.4,0-6.7-0.1-10.1-0.1c-1.1,0-2.2,0.1-3.3,0.1c-0.9,0-1.8-0.1-2.7-0.2c-1.1-0.2-1.9-1-2.5-2
		c-1.6-2.5-3.2-5-4.8-7.5c-0.3-0.5-0.7-1-0.4-1.6c0.3-0.6,0.9-0.6,1.5-0.6c3.7,0,7.3,0,11,0c0,0,0,0,0,0c3.6,0,7.2,0,10.8,0
		c1.3,0,2.7,0,4,0.1c1.2,0.1,2,0.7,2.7,1.7c1.7,2.7,3.4,5.3,5.1,8c0.1,0.1,0.2,0.3,0.2,0.4C472.5,335.8,472.2,336.4,471.5,336.5z
		 M505.5,334.5c0.3,0.5,0.7,0.9,0.4,1.5c-0.3,0.6-0.9,0.6-1.5,0.6c-3.2,0-6.4,0-9.6,0c-1.3,0-2.5,0.1-3.8,0.1
		c-1.3,0-2.5-0.1-3.8-0.1c-0.9,0-1.8,0.1-2.6,0.1c-1.1,0-2.1-0.1-3.2-0.1c-1,0-2,0-2.9-0.1c-1-0.1-1.8-0.7-2.3-1.6
		c-1.6-2.6-3.3-5.1-4.9-7.7c-0.2-0.3-0.3-0.6-0.5-0.9c-0.2-0.6,0-1.1,0.6-1.3c0.3-0.1,0.6-0.1,0.9-0.1c0,0,0,0.1,0,0.1
		c8.2,0,16.4,0,24.7,0c0.5,0,1,0,1.5,0.1c0.9,0.2,1.5,0.7,2,1.4C502.1,329.1,503.8,331.8,505.5,334.5z M500.6,319.8
		c-0.8,1.4-2,1.9-3.5,1.9c-4.1,0-8.3,0-12.4,0c-4.1,0-8.2,0-12.3,0c-0.3,0-0.6,0-1-0.1c-0.9-0.2-1.1-0.7-0.7-1.5
		c0.5-0.9,1-1.7,1.6-2.5c1.3-2,2.6-4,3.8-6c0.7-1.1,1.7-1.6,2.9-1.6c2.1-0.1,4.1-0.1,6.2-0.1c2.7,0,5.5,0.1,8.2,0.1
		c3.5,0,7,0,10.5,0c0.4,0,0.8,0,1.2,0.1c0.7,0.1,1.1,0.7,0.7,1.4c-0.4,0.9-1,1.7-1.5,2.5C503.1,315.9,501.8,317.8,500.6,319.8z"/>
	<path class="st0" d="M216.3,322c-0.4-0.2-0.8-0.3-1.3-0.3c-4,0-11.4,0-15.4,0c-1.5,0-2.6-0.6-3.5-2c-2.3-3.8-4.8-7.4-7.1-11.2
		c-0.8-1.2-1.8-1.8-3.2-1.8c-5.1,0-10.2,0-15.3,0c-8.8,0-17.7,0.1-26.5,0.1c-0.9,0-1.7-0.1-2.6-0.1c-1.5,0-3,0-4.4,0
		c-4.8,0-9.5,0-14.3,0c-26.6,0-53.1,0.1-79.7,0.1c-0.8,0-1.7-0.1-2.5-0.1c-7.8,0-15.5,0-23.3,0c-1.5,0-3,0-4.5,0
		c-0.4,0-0.7,0.1-1.1,0.3c-0.5,0.2-0.8,0.7-0.7,1.3c0,0.6,0.3,1,0.8,1.2c0.4,0.2,0.9,0.3,1.3,0.3c1,0,1.9,0,2.9,0
		c1.4,0,2.5,0.5,3.3,1.9c1.2,2,2.4,3.8,3.6,5.7c0.5,0.8,1.1,1.7,1.6,2.6c0.4,0.7,0.1,1.3-0.7,1.4c-0.4,0.1-0.8,0.1-1.2,0.1
		c-2.4,0-4.8,0-7.2,0c0,0,0,0,0,0c-2.5,0-8.5,0-11,0c-0.4,0-0.8,0.1-1.2,0.3c-0.6,0.3-0.8,0.8-0.8,1.5c0.1,0.6,0.4,1,0.9,1.2
		c0.3,0.1,0.6,0.2,0.9,0.2c3.4,0,10.2,0,13.6,0c1.7,0,3.3,0,5,0c0.4,0,0.7,0,1.1,0.1c0.6,0.1,0.8,0.6,0.6,1.2
		c-0.1,0.3-0.3,0.7-0.5,1c-1.7,2.7-3.4,5.3-5.1,8c-0.5,0.8-1.2,1.3-2.2,1.3c-1.4,0.1-2.8,0.1-4.2,0.2c-0.6,0-1.2,0.2-1.5,0.9
		c-0.2,0.5-0.2,1,0.1,1.5c0.4,0.5,1,0.7,1.6,0.7c12.2,0,24.5,0.1,36.7,0.1c1.1,0,2.1-0.1,3.2-0.1c12.6,0,25.3-0.1,37.9-0.1
		c0.6,0,1.2,0.1,1.8,0.1c8.5,0,17,0,25.5,0c13.7,0,27.4-0.1,41.1-0.1c1.5,0,3,0.1,4.4,0.1c7.6,0,15.2,0,22.8,0c0.2,0,0.4,0,0.5-0.1
		c1.1-0.2,1.8-1.1,2.4-2c2.4-3.7,4.8-7.5,7.2-11.2c0.5-0.8,1.1-1.3,2-1.4c0.5-0.1,1-0.1,1.5-0.1c3.9,0,11.3,0,15.2,0
		c0.4,0,0.8-0.1,1.2-0.3c0.5-0.2,0.7-0.7,0.7-1.3C217,322.7,216.8,322.2,216.3,322z M123.8,310.5c0.3-0.6,0.9-0.6,1.4-0.6
		c3.2,0,6.5,0,9.7,0c0.9,0,1.8-0.1,2.6-0.1c4.2,0,8.4,0.1,12.6,0.1c1.5,0,2.7,0.6,3.5,2c1.5,2.6,3.2,5,4.8,7.6
		c0.1,0.2,0.3,0.5,0.4,0.7c0.3,0.7,0,1.3-0.7,1.4c-0.4,0.1-0.8,0.1-1.2,0.1c-4.1,0-8.2,0-12.3,0c-4.1,0-8.2,0-12.3,0
		c-1.4,0-2.6-0.5-3.3-1.9c-0.2-0.4-0.5-0.8-0.8-1.2c-1.4-2.2-2.8-4.4-4.2-6.6C123.9,311.6,123.5,311.1,123.8,310.5z M90.2,310.5
		c0.3-0.6,1-0.6,1.5-0.6c3.5,0,7,0,10.6,0c0.7,0,1.3,0,2,0c0,0,0,0,0,0c4,0,8.1,0,12.1,0c0.5,0,1,0,1.5,0.1c0.9,0.2,1.5,0.7,2,1.4
		c1.7,2.6,3.4,5.3,5.1,7.9c0.2,0.2,0.3,0.5,0.4,0.7c0.3,0.7,0,1.3-0.7,1.4c-0.4,0.1-0.8,0.1-1.2,0.1c-2.3,0-4.7,0-7,0
		c-5.8,0-11.7,0-17.5,0c-1.5,0-2.6-0.6-3.5-1.9c-1.6-2.6-3.2-5.1-4.8-7.6C90.3,311.6,89.9,311.2,90.2,310.5z M57.2,310
		c0.4-0.1,0.8-0.1,1.2-0.1c2.4,0,4.8,0,7.1,0c0.8,0,1.6-0.1,2.4-0.1c3.4,0,6.7,0.1,10.1,0.1c1.1,0,2.2-0.1,3.3-0.1
		c0.9,0,1.8,0.1,2.7,0.2c1.1,0.2,1.9,1,2.5,2c1.6,2.5,3.2,5,4.8,7.5c0.3,0.5,0.7,1,0.4,1.6c-0.3,0.6-0.9,0.6-1.5,0.6
		c-3.7,0-7.3,0-11,0c0,0,0,0,0,0c-3.6,0-7.2,0-10.8,0c-1.3,0-2.7,0-4-0.1c-1.2-0.1-2-0.7-2.7-1.7c-1.7-2.7-3.4-5.3-5.1-8
		c-0.1-0.1-0.2-0.3-0.2-0.4C56.2,310.8,56.5,310.1,57.2,310z M23.3,312c-0.3-0.5-0.7-0.9-0.4-1.5c0.3-0.6,0.9-0.6,1.5-0.6
		c3.2,0,6.4,0,9.6,0c1.3,0,2.5-0.1,3.8-0.1c1.3,0,2.5,0.1,3.8,0.1c0.9,0,1.8-0.1,2.6-0.1c1.1,0,2.1,0.1,3.2,0.1c1,0,2,0,2.9,0.1
		c1,0.1,1.8,0.7,2.3,1.6c1.6,2.6,3.3,5.1,4.9,7.7c0.2,0.3,0.3,0.6,0.5,0.9c0.2,0.6,0,1.1-0.6,1.3c-0.3,0.1-0.6,0.1-0.9,0.1
		c0,0,0-0.1,0-0.1c-8.2,0-16.4,0-24.7,0c-0.5,0-1,0-1.5-0.1c-0.9-0.2-1.5-0.7-2-1.4C26.7,317.4,25,314.7,23.3,312z M52.6,334.9
		c-0.7,1.1-1.7,1.6-2.9,1.6c-2.1,0.1-4.1,0.1-6.2,0.1c-2.7,0-5.5-0.1-8.2-0.1c-3.5,0-7,0-10.5,0c-0.4,0-0.8,0-1.2-0.1
		c-0.7-0.1-1.1-0.7-0.7-1.4c0.4-0.9,1-1.7,1.5-2.5c1.2-2,2.6-3.9,3.7-5.9c0.8-1.4,2-1.9,3.5-1.9c4.1,0,8.3,0,12.4,0
		c4.1,0,8.2,0,12.3,0c0.3,0,0.6,0,1,0.1c0.9,0.2,1.1,0.7,0.7,1.5c-0.5,0.9-1,1.7-1.6,2.5C55.2,330.9,53.8,332.9,52.6,334.9z
		 M83,336.5c-3.5,0-7,0-10.5,0c-3.4,0-6.9,0-10.3,0c-1.3,0-2.7,0-4,0c-0.2,0-0.4,0-0.6,0c-1.2-0.1-1.5-0.8-0.8-1.9
		c1.1-1.8,2.3-3.6,3.4-5.4c0.5-0.8,1.1-1.6,1.6-2.5c0.8-1.4,2-1.9,3.4-2c2.2,0,4.4,0,6.6,0c3.1,0,6.2,0,9.3,0c3.1,0,6.2,0,9.4,0
		c0.2,0,0.3,0.1,0.5,0.1c0.9,0.2,1.2,0.7,0.8,1.6c-0.3,0.6-0.7,1.2-1.1,1.8c-1.4,2.1-2.8,4.2-4.1,6.4
		C85.6,336.1,84.4,336.5,83,336.5z M116.5,336.5c-3.4,0-6.8,0-10.2,0c-2.9,0-5.9,0-8.8,0c-1.9,0-3.8,0-5.6,0c-0.4,0-0.7,0-1.1-0.1
		c-0.6-0.1-0.9-0.6-0.7-1.2c0.1-0.3,0.2-0.5,0.4-0.8c1.6-2.6,3.3-5.1,4.9-7.7c0.9-1.4,2.1-1.9,3.5-1.9c3.4,0,6.8,0,10.1,0
		c0,0,0,0,0,0c3.3,0,6.7,0,10,0c1.5,0,2.9,0,4.4,0c0.4,0,0.7,0,1.1,0.1c0.6,0.1,0.9,0.7,0.7,1.3c-0.1,0.3-0.3,0.7-0.5,1
		c-1.6,2.5-3.3,5.1-4.9,7.6C119.1,336.1,117.9,336.5,116.5,336.5z M149.7,336.6c-1.1-0.1-2.2,0-3.3,0c-0.6,0-1.2-0.1-1.8-0.1
		c-6.3,0-12.6,0-19,0c-0.4,0-0.8,0-1.2-0.1c-0.8-0.1-1.1-0.7-0.7-1.4c0.3-0.7,0.7-1.3,1.1-1.9c1.4-2.2,2.8-4.3,4.2-6.5
		c0.8-1.2,1.8-1.8,3.2-1.8c4.1,0,8.3,0,12.4,0c4.1,0,8.3,0,12.4,0c0.4,0,0.7,0,1.1,0.1c0.7,0.1,1,0.7,0.7,1.4
		c-0.4,0.7-0.8,1.4-1.2,2.1c-1.4,2.1-2.7,4.2-4.1,6.3C152.7,336.2,151.3,336.7,149.7,336.6z M192.5,326.3c-0.6,1.1-1.3,2.2-2,3.3
		c-1,1.6-2.1,3.2-3.1,4.8c-0.9,1.5-2.2,2.2-3.8,2.1c-2.5,0-5-0.1-7.5-0.1c-5.6,0-11.2,0-16.9,0c-0.4,0-0.7,0-1.1-0.1
		c-0.9-0.1-1.2-0.7-0.7-1.5c0.5-0.9,1-1.7,1.5-2.5c1.2-1.9,2.4-3.7,3.6-5.6c0.9-1.5,2.1-2,3.6-2c4.1,0,8.2,0,12.3,0
		c4,0,8.1,0,12.1,0c0.4,0,0.8,0,1.2,0.1C192.6,325,192.9,325.6,192.5,326.3z M192,321.5c-0.4,0.1-0.8,0.1-1.2,0.1
		c-3.7,0-7.4,0-11.1,0c0,0,0,0,0,0c-3.7,0-7.4,0-11.1,0c-1.1,0-2.3,0-3.4-0.1c-0.9-0.1-1.6-0.5-2.1-1.3c-1.8-2.8-3.6-5.6-5.4-8.3
		c-0.6-1-0.7-1.9,1-2c0.9,0,1.8,0,2.7,0c1.9,0,3.7-0.1,5.6-0.1c2.5,0,5,0.1,7.5,0.1c1.7,0,3.4,0,5,0c1,0,2-0.1,3.1-0.1
		c0.8,0,1.7,0.1,2.5,0.3c0.9,0.1,1.6,0.8,2.1,1.6c1.7,2.7,3.4,5.3,5.1,8c0.1,0.2,0.2,0.4,0.3,0.6C192.9,320.9,192.6,321.4,192,321.5
		z"/>
</g>
</svg>
