<?xml version="1.0" encoding="utf-8"?>
<!-- Generator: Adobe Illustrator 17.1.0, SVG Export Plug-In . SVG Version: 6.00 Build 0)  -->
<!DOCTYPE svg PUBLIC "-//W3C//DTD SVG 1.1//EN" "http://www.w3.org/Graphics/SVG/1.1/DTD/svg11.dtd">
<svg version="1.1" id="Layer_1" xmlns="http://www.w3.org/2000/svg" xmlns:xlink="http://www.w3.org/1999/xlink" x="0px" y="0px"
	 viewBox="0 0 402.4 77.2" style="enable-background:new 0 0 402.4 77.2;" xml:space="preserve">
<style type="text/css">
	.st0{clip-path:url(#SVGID_2_);fill:#00953A;}
</style>
<g>
	<defs>
		<rect id="SVGID_1_" y="0" width="402.4" height="77.2"/>
	</defs>
	<clipPath id="SVGID_2_">
		<use xlink:href="#SVGID_1_"  style="overflow:visible;"/>
	</clipPath>
	<path class="st0" d="M132.7,1.1c-0.8-1-2-1.1-3.2-1.1c-1,0-2.1,0.3-3.5,0.6c-1.5,0.4-3.5,0.9-5.7,1.1c-0.1,0-0.2,0-0.3,0
		c-0.2,0-0.4,0-0.6,0c-0.7,0-3,0.3-3,3.5V18C113,14,106.3,5.3,105.5,3.8l-0.2-0.4c-0.7-1.2-1.5-2.8-4.3-2.8c-0.3,0-0.5,0-0.9,0
		c-1.9,0.2-5.2,0.2-6.2,0l-0.3,0c-0.5,0-1.9,0-2.8,1.1c-0.9,1.1-0.6,2.5-0.6,2.9c0.2,1.5,0.8,18.7,0.7,22.7c-0.1,4-0.3,18-0.3,18.9
		c0,2.1,1,3.2,2.9,3.4c0.2,0,0.4,0,0.6,0c1.4,0,8-0.1,9.3-0.1h0.1c0.7,0,2.2,0,3.1-1.1c0.6-0.7,0.8-1.6,0.7-2.7
		c-0.1-0.8-0.1-6.9-0.1-10.5c0-1.1,0-2,0-2.7c3.2,4.1,8.5,11.2,9.5,12.9c1.3,2,2.5,3.6,5,3.8c0.3,0,0.5,0,0.9,0c0,0,0.1,0,0.1,0
		c0,0,0,0,0,0c0.3,0,0.8,0,1.3-0.1h0.1c0.2,0,0.4,0,0.6,0c2.1,0,4.8,0,5.2,0c0.2,0,0.3,0,0.5,0c1-0.1,1.6-0.6,2-1.1
		c0.4-0.6,0.5-1.3,0.5-2.4c0-0.2,0-1,0-2.1c-0.1-4.4-0.3-14.7-0.3-23.7c0.1-8.1,0.5-14.8,0.6-15.5l0-0.1
		C133.4,3.3,133.6,2.1,132.7,1.1 M125.8,23.3c-0.1,7.4-0.1,16.7-0.1,17.4l0-0.1c0.2,0.7,0,2.1-0.8,2.5c-0.9,0.5-1.8-0.1-2.8-1.5
		c-1.3-1.9-11.9-14.9-17.5-21.9c-2.7-3.3-4.7-6.2-4.7-6.2s0.4,26.3,0.4,27.7c0.1,0.8-0.3,1.7-0.9,2.1c-0.4,0.3-1,0.4-1.4,0.1
		c-0.4-0.2-0.9-0.8-0.9-2.1c0-0.9-0.1-5.7-0.1-11.3c0-7.8-0.1-17.5-0.2-19.5c-0.1-1-0.2-2.7,0.9-3.1c1-0.4,1.9,0.7,2.2,1.2
		c0.3,0.5,1.5,1.8,2.9,3.6l4.5,5.4C111.7,23,122.6,37,122.6,37l-0.2-26.8c0-1.8,0.7-2.9,1.7-2.9c1.5,0,1.6,1,1.7,2.1
		C125.9,10,125.8,15.1,125.8,23.3"/>
	<path class="st0" d="M88,43.4c-0.4-2.5-0.5-36.2-0.3-38.5c0-0.2,0.1-0.3,0.1-0.5c0.2-0.8,0.4-2.1-0.4-3.2c-0.7-0.8-1.7-1.2-3.2-1.1
		c-1.7,0.1-4.6,0-6.3-0.1c-0.7,0-1.3,0-1.6,0c-2.5,0-3.8,1.5-4.1,4.8c-0.2,1.5-0.6,6.9-1,12.7c-0.5,6-1,12.8-1.2,14.2l0,0.4
		c0,0.4-0.1,0.9-0.2,1.2c-0.2,0.1-0.6,0.2-1.4,0.3c-0.9,0.1-1.6,0.1-2.1,0.1c-0.6,0-1-0.1-1.5-0.1c-0.3,0-0.6-0.1-1-0.1c0,0,0,0,0,0
		c0-0.2,0-0.5,0-0.9c0-1.6-0.2-11.2-0.4-19C63.1,8.8,63,4.3,63,3.8c0-2.2-1.4-3.6-3.5-3.6c-0.3,0-0.6,0-1,0.1
		c-0.1,0-0.7,0.1-2.8,0.1c-0.8,0-1.7,0-2.6,0c-0.8,0-1.5,0-2.1,0c-0.9,0-1.4,0-1.6,0c-0.1,0-0.2,0-0.3,0c-0.2,0-0.3,0-0.5,0
		c-0.4,0-1.6,0-2.4,1c-0.9,1-0.9,2.6-0.8,4c0.3,3.3,0.4,9.9,0.4,12.6c0,2.9-0.4,19.1-1.3,22.4c-0.4,1.4-0.5,3.8,3.3,5.3
		c1.7,0.5,10.9,3.3,11.9,3.6c0.4,0.1,0.8,0.2,1.2,0.2c0.1,0,0.2,0,0.3,0c0,0,0,0,0.1,0c0,0,0,0,0,0c0.1,0,0.3,0,0.4,0
		c1-0.1,1.9-0.5,2.8-1.3c0.7-0.6,4.1-2.5,5.4-3.1c0.3,3.2,2.6,3.5,3.4,3.5h0c0,0,0,0,0,0c0.5,0,0.9-0.1,1.1-0.1c0,0,0.1,0,0.2,0
		c0.1,0,0.2,0,0.2,0h0.1c2.4-0.1,9,0,9.8,0c0.1,0,0.2,0,0.4,0c0.9-0.1,1.7-0.5,2.2-1.1C88,46.3,88.3,45,88,43.4 M80.8,9.4l0,0.3
		c-0.1,1.6-0.6,27.6-0.5,28.9c0.2,1.3-0.4,2.5-1.3,2.7c-0.6,0.1-1.3-0.2-1.6-1.3c-0.1-0.4-0.6-0.8-1.4-0.7l-1.4,0.2
		c-3,0.5-10,1.7-11.8,2.4c-2.4,0.9-3.8,0.3-4.7-0.1c-0.1,0-0.2-0.1-0.3-0.1c-0.8-0.3-2.9-1.4-3.6-1.8c0,0-0.1,0-0.1,0
		c-1-0.3-2.2-1-2-3.9c0.1-2.1,0.2-10.3,0.3-16.9c0.1-5.5,0.1-8.9,0.1-9.6c0-0.1,0-0.2,0-0.4c0-0.8,0-1.6,0.5-2.2
		c0.3-0.3,0.7-0.5,1.3-0.4c1.8,0.2,2.1,0.9,1.9,2.9c-0.2,1.3-0.4,13.9-0.5,20.6l-0.1,4.8c0,0,0,0.6,0,0.6c-0.1,1.5-0.1,1.6,0.9,1.8
		c1.3,0.3,2.3,0.8,3,1.2c0.4,0.2,0.8,0.4,1,0.4c0.5,0.2,1.9,0.6,3.2,0c1.6-0.6,10.4-2.2,12.8-2.2c0.2,0,0.3,0,0.3,0
		c0-0.1,0-0.2,0-0.2c0-0.2,0-0.6,0-0.9c0-0.5,0.1-2.8,0.1-5.7c0.1-6.8,0.3-17.1,0.6-20.3c0-0.2,0-0.4,0-0.5c0.1-0.8,0.2-2.2,1.5-2.3
		c0.4,0,1-0.1,1.4,0.4C80.9,7.6,80.9,8.4,80.8,9.4"/>
	<path class="st0" d="M42.5,25.1c0-1.5-0.1-4.8-0.2-8.3c-0.1-4.2-0.2-10.1-0.2-10.7c0-0.1,0.1-0.3,0.1-0.4c0.3-1,0.8-2.6-0.1-4
		c-0.4-0.5-1.2-1.2-2.6-1.2c-1,0-5,0-9,0.1c-4.2,0-8.4,0.1-9.5,0.1l-0.5,0c-3.1,0-3.6,2.3-3.6,3.6c0,0.9,0.4,4.6,1,11
		c0.6,6.2,1.3,13.3,1.4,15.8c0.1,3.5,0,7.1-2,9.2c-1.4,1.5-3.8,2.1-7.1,1.8c-0.6-0.1-1.1-0.1-1.7-0.1c-1.4-0.1-3.3-0.3-3.9-0.5
		C4.2,41.1,3.7,41,3.2,41c-1.1,0-2.1,0.5-2.6,1.4c-0.5,0.8-0.9,2.2,0,4.3c1.3,2.9,2.7,11.6,2.7,13.1c0,3.1,2.2,3.5,3.6,3.7
		c0.3,0.1,0.7,0.1,1.1,0.2c2.3,0.5,8.8,1.5,12,1.6h0h0h0l0.1,0c0.3,0,0.6,0,1-0.1c0.2,0,0.3,0,0.5,0c4.5-0.6,10.6-3.5,14.7-7.3
		c2.4-2.2,4.6-4.4,5.2-7.7c1.1-6.5,1-18.3,1-23.4L42.5,25.1z M30.7,49.2c-3.8,3.1-9,5.2-13.7,5.5c-4,0.3-5.5-0.7-6-1.5
		c-0.4-0.6-0.4-1.2-0.2-1.8c0.1-0.1,0.1-0.3,0.2-0.4c0.5-1.4,1.1-1.4,2.5-1.1c0.6,0.1,1.5,0.3,2.8,0.4c2.9,0.3,9.4-1.7,12.3-5.3
		c1.2-1.5,1.1-3.6,1.1-5.7l-0.2-8.1c-0.2-5.9-0.3-12-0.7-19.3c0-0.2,0-0.3-0.1-0.6c-0.1-0.7-0.3-1.6,0.3-2.3c0.4-0.5,1-0.7,1.9-0.7
		c0.9,0,1.5,0,2,0.5c0.4,0.5,0.3,1.1,0.3,1.7c0,0.4-0.1,0.9-0.1,1.6c0,1.5,0.2,9.8,0.4,16.4c0.1,5,0.3,9.2,0.3,9.9
		c0,0.2,0,0.5,0,0.8C33.9,41.5,34.2,46.2,30.7,49.2"/>
	<path class="st0" d="M393.6,22.6c0.3-3.9,4.6-9.7,6.8-11.6c0.7-0.6,2.4-2.1,1.9-4c-0.5-1.8-2.6-2.2-3.5-2.4c-1.3-0.3-5.2-1-8.4-1.6
		c-1.6-0.3-2.9-0.5-3.3-0.6c-0.1,0-0.2-0.1-0.3-0.1c-0.5-0.2-1.3-0.6-2.3-0.6c-1.3,0-2.4,0.6-3.4,1.7c-0.2,0.2-0.5,0.5-0.8,0.9
		c-2.8,2.9-9.3,9.8-9.3,18.5c0,4.3,1.9,7.4,3.8,10.5c0.5,0.8,0.9,1.5,1.4,2.4c1.4,2.6,2.3,5.5,2.3,7.5c0,3.9-3.9,8.4-5.1,9.3
		c-1.3,1-2,2.4-1.8,3.7c0.1,0.8,0.6,2.1,2.8,2.9c2.1,0.7,10.3,3.5,11.4,3.9l0.4,0.2c0.5,0.2,1,0.4,1.7,0.4c0,0,0.1,0,0.1,0
		c0,0,0,0,0.1,0c0,0,0.1,0,0.1,0c0.1,0,0.1,0,0.2,0c1-0.1,1.9-0.6,2.5-1.1c1.7-1.3,10.4-9.6,10.4-18.4c0.1-4.5-2.4-9.3-4.6-13.5
		C395.1,27.5,393.5,24.3,393.6,22.6 M392.2,43.9l-0.1,0.4c-1,4.3-1.1,5-3.6,8.2c-1.6,2-2.1,2.5-2.9,2.5c-0.6,0-0.9-0.4-1-0.6
		c-0.4-0.1-1-0.4-1.2-1.2c-0.3-0.8,0.2-1.7,1-2.9c1-1.4,3.4-4.9,3.1-7.5c-0.2-1.8-1.3-4.1-2.2-6c-0.5-1-0.9-1.8-1.1-2.4
		c-0.1-0.4-0.5-1.1-0.9-1.8c-1.3-2.7-3.3-6.7-3.3-9.7c0-3.5,2.9-9.5,5.1-11.4c0.1-0.1,0.3-0.3,0.4-0.5c0.6-0.7,1.9-2.3,3.4-1.1
		c0.4,0.3,1.1,0.7,1.2,1.5c0.1,0.8-0.4,1.4-1.2,2.4l-0.6,0.7l-0.1,0.2c-1.7,2.1-3.3,4.1-3.3,7.8c0,2.6,2.1,6.9,4,10.8
		C390.8,37.7,392.7,41.5,392.2,43.9"/>
	<path class="st0" d="M243.5,34.5c-0.2,0-0.4,0-0.7,0.1c-2,0.3-12.3,0.6-13.9,0.6c-0.2,0-0.6,0-0.8,0c0-0.3-0.1-0.5-0.1-0.8
		c0-0.2,0-0.4-0.1-0.7c2.8-0.2,8.7-0.2,11.7-0.2h0.5h0c0.2,0,0.5,0,0.8-0.1c1.1-0.2,2.3-0.6,3.1-1.4c0.6-0.6,1-1.5,0.9-2.3
		c0-1.4-0.5-2.8-1-4.5c-0.4-1.2-0.8-2.5-1.1-4l-0.1-0.3c-0.4-1.9-1.1-2.5-3-2.7c-0.3,0-0.8,0-1.4-0.1c-0.6-0.1-2.4,0-4.7,0.1
		c-1.9,0.1-4,0.2-5.3,0.2l-0.4,0h0c0-0.1,0-0.2,0-0.4c0-0.2-0.1-0.5-0.1-0.8c3.1-0.2,10.2-0.5,13.5,0c1.4,0.2,2.4,0.3,2.9,0.2
		c0.6,0,1.6-0.1,2.3-1c0.8-1,0.5-2.2,0.4-2.7c-1-4.4-1.7-7.8-1.8-9.4c-0.2-2.8-2.1-3.4-3.6-3.4c-0.4,0-0.8,0-1.3,0.1
		c-2.8,0.2-22,0.6-24,0.6l-0.4,0c-0.5,0-1.9,0-2.9,1c-0.7,0.7-1,1.7-1,3c0.1,3.7-0.2,38.2-0.4,39.8l0,0.5c-0.1,1-0.2,2.3,0.8,3.4
		c1,1.1,2.5,1.1,3,1.1c0.1,0,0.3,0,0.5,0c0,0,0,0,0.1,0c0,0,0.1,0,0.1,0h0.1c0,0,0.1,0,0.1,0c0.1,0,0.3,0,0.5,0c0,0,0.1,0,0.1,0
		c2.7-0.1,8.9-0.1,14.1,0c0.1,0,0.2,0,0.2,0c0.4,0,0.8,0,1.2,0c0.2,0,0.4,0,0.6,0c0.3,0,0.7,0,1,0c0.3,0,0.6,0,0.9,0
		c0.2,0,0.3,0,0.5,0c0.2,0,0.5,0,0.7,0c0.3,0,0.6,0,0.9,0c0.1,0,0.1,0,0.2,0c0.3,0,0.5,0,0.7,0c0.1,0,0.2,0,0.2,0c0.2,0,0.4,0,0.6,0
		l0.6,0c0.1,0,0.1,0,0.2,0c0.1,0,0.2,0,0.3,0c0.2,0,0.3,0,0.5,0c0.1,0,0.2,0,0.3,0c0,0,0,0,0.1,0c0,0,0.1,0,0.1,0c0.2,0,0.3,0,0.5,0
		c1.9-0.2,3-1.1,3.4-3.2c0.3-1.3,0.8-2.8,1.1-4.1c0.3-1.1,0.6-2,0.8-2.7c0.3-1.1,0.8-3.2-0.4-4.7C245.5,34.9,244.6,34.5,243.5,34.5
		 M237.7,43.6c-0.4,0.4-0.9,0.4-2,0.4l-0.6,0c-1.1,0-6,0.1-9.5,0.2c-2.1,0-3.8,0.1-4.1,0.1c-2.2,0-3.6-1-3.6-2.7
		c0-1.1-0.2-12.4-0.3-20.7l-0.2-10.1c0-0.1,0-0.1,0-0.2c0-0.5,0-1.3,0.5-1.9c0.4-0.4,0.9-0.6,1.6-0.6c0.9,0,5.3-0.1,9.1-0.2
		c3.3-0.1,6.2-0.2,6.7-0.2c2.3,0,2.7,0.6,2.9,0.8c0.2,0.3,0.3,0.6,0.3,0.9c0,0.4-0.1,0.8-0.5,1.1c-0.4,0.3-0.8,0.3-1.3,0.2
		c-0.3,0-0.6-0.1-1-0.1c-3.1,0-13.3,0-15,0.2c-0.1,0-0.2,0-0.3,0c-0.1,0-0.2,0-0.3,0c0,0-0.1,0.3-0.1,1.1c0.1,1.7,0,8.4,0,11.3
		l0,1.3c0,0.2,0,0.2,0,0.2c0,0,0.2,0.2,1.4,0.2c1.2,0,6.4-0.1,9.9-0.2c1.9-0.1,2.9-0.1,3-0.1c0.1,0,0.2,0,0.3-0.1
		c0.5-0.1,1.1-0.3,1.6,0.1c0.2,0.1,0.4,0.4,0.4,0.9c0,1.6-1,1.6-2.5,1.7l-0.4,0c-2.3,0.2-11.7,0.3-12.6,0.2c-0.3,0-0.6-0.1-0.7,0
		c-0.1,0.1-0.2,0.4-0.2,1.5c-0.1,2.4,0,10.9,0.1,11.7l0,0.2c0,0.1,0,0.3,0.1,0.4c0,0,0.3,0.1,1.2,0.2c1,0.1,4.5,0,7.5-0.1
		c3.8-0.1,5.4-0.1,5.7-0.1c0.1,0,0.4,0,0.6,0c0.7-0.1,1.4-0.1,1.9,0.3c0.2,0.2,0.4,0.4,0.4,0.9C238.1,42.9,238,43.3,237.7,43.6"/>
	<path class="st0" d="M309.6,32.4c0-1.2-0.1-2.3-0.1-2.8c-0.1-2.6,0.7-21.6,0.9-23.6l0-0.4c0.1-1.1,0.2-2.3-0.7-3.2
		c-0.9-0.9-2.1-0.9-2.5-0.9c-0.3,0-0.6,0-1,0.1c-1.8,0.2-6.7,0.4-10,0.2c-0.1,0-0.3,0-0.4,0c-0.2,0-0.5,0-0.7,0
		c-0.5,0-1.9,0-2.9,1.1c-0.7,0.8-1,1.9-0.9,3.3c0.2,2.8,0.6,14.4,0.6,17.4c0,3.4-0.4,21.6-0.6,23.1c-0.2,1.2,0.3,2,0.7,2.4
		c0.9,1,2.1,1,2.6,1c0.3,0,0.6,0,0.9,0c0.2,0,0.8,0,1.6,0c1.2,0,2.9-0.1,5-0.2c1.3-0.1,2.6-0.1,3.6-0.1c0.6,0,1,0,1.2,0
		c0.2,0,0.4,0,0.7,0c0.5,0,1.7-0.1,2.5-1.1c0.4-0.5,0.8-1.4,0.5-2.8C310,44.1,309.8,36.2,309.6,32.4 M303.3,30.5l-0.1,9.9
		c0,0.2,0,0.3,0,0.5c0,0.5,0,1.1-0.4,1.5c-0.4,0.4-0.9,0.5-1.3,0.5c-1.6,0-2.1-0.7-2.1-2.5l0-3.6l0-25.7v-0.1c0-0.6,0-1.4,0.5-2
		c0.2-0.2,0.6-0.5,1.2-0.5c0.1,0,0.2,0,0.4,0c0.4,0,0.9-0.1,1.3,0.3c0.5,0.5,0.6,1.2,0.6,2.4L303.3,30.5z"/>
	<path class="st0" d="M289.2,20c0-1.1-0.1-3.7-0.1-6.4c-0.1-3.1-0.2-7.3-0.1-8.1c0-0.1,0-0.1,0.1-0.2c0.2-0.8,0.7-2.3-0.2-3.5
		c-0.3-0.4-1-1.1-2.4-1.1c-0.8,0-3.8,0-6.9,0.1c-3.2,0-6.4,0.1-7.3,0.1l-0.4,0c-3,0-3.2,2.5-3.2,3.2c0,0.7,0.3,3.5,0.8,8.5
		c0.5,4.7,1,10.1,1.1,12c0.1,2.6,0,5.2-1.4,6.6c-1,1-2.7,1.4-5.1,1.2c-0.4,0-0.9-0.1-1.3-0.1c-1-0.1-2.4-0.2-2.8-0.3
		c-1.2-0.6-2.9-0.2-3.7,1c-0.5,0.7-0.8,1.9,0,3.8c1,2.1,2,8.7,2,9.8c0,2.8,2.1,3.1,3.1,3.3c0.2,0,0.5,0.1,0.8,0.1
		c1.7,0.4,6.7,1.1,9.3,1.2h0.2h0c0,0,0,0,0.1,0c0,0,0.1,0,0.1,0c0.8,0,1.7-0.1,2.7-0.4c3.3-0.8,7.1-2.9,9.8-5.4
		c1.9-1.7,3.6-3.5,4.1-6.2c0.8-5,0.8-14.1,0.8-18L289.2,20z M278.5,40c-2.9,2.4-6.9,4-10.5,4.3c-2.5,0.2-4.1-0.3-4.8-1.3
		c-0.3-0.5-0.4-1.1-0.2-1.6c0-0.1,0.1-0.2,0.1-0.3c0.4-1.3,1-1.2,2.1-1c0.5,0.1,1.1,0.2,2.2,0.3c2.2,0.3,7-1.3,9.2-3.9
		c0.9-1.1,0.8-2.6,0.8-4.2l-0.2-6.2c-0.1-4.5-0.2-9.2-0.6-14.7c0-0.1,0-0.3-0.1-0.4c-0.1-0.6-0.2-1.3,0.3-1.9
		c0.3-0.4,0.9-0.6,1.6-0.6c0.7,0,1.3,0,1.7,0.5c0.4,0.4,0.3,1,0.3,1.5c0,0.3-0.1,0.7-0.1,1.2c0,1.2,0.2,7.5,0.3,12.5
		c0.1,3.9,0.2,7.1,0.2,7.5c0,0.1,0,0.3,0,0.6C281,33.8,281.3,37.6,278.5,40"/>
	<path class="st0" d="M366.9,43.8c-1-2.9-10.6-35-11.3-39.6c-0.3-2.1-1.7-3.4-3.7-3.4l-6,0c-2.2,0-3.5,1.5-3.8,2.9
		c-0.2,0.8-2.5,8.4-4,13.1c-0.3-1-0.7-2.2-1-3.3c-1.7-5.7-2.8-9.2-3.2-10.1c-0.9-1.9-1.9-2.6-3.7-2.6c-0.3,0-0.6,0-1.1,0
		c-1.1,0.1-2.9,0.1-4,0c-0.3-0.1-0.6-0.1-0.9-0.1c-2.8,0-3.3,2.5-3.4,3.3l-0.1,0.4c-0.3,1.7-2.8,12-4.9,21
		c-3.6,14.8-4.7,19.5-4.7,20.3c-0.1,1.3,0.2,2.2,0.8,3c0.4,0.4,1,0.8,2,0.9c0.1,0,0.2,0,0.4,0c0.3,0,2.5,0,4.8,0.1
		c0.3,0,0.5,0,0.8,0c0.1,0,0.2,0,0.3,0c1.7,0.1,3.1,0.1,3.7,0.3c0.3,0.1,0.6,0.1,0.8,0.1c0,0,0,0,0.1,0c0,0,0.1,0,0.1,0
		c1.8-0.1,3.6-1.3,3.7-4.4c0.1-1.3,0.5-3.7,1.2-6.7c1,3,2.2,6.8,2.4,7.4c0.7,3,2.4,3.5,3.6,3.5c0,0,0,0,0,0c0.1,0,0.3,0,0.4,0h0
		c0.3,0,0.7,0,1.1,0c0.3,0,0.6,0,0.9,0.1c0.5,0,1,0.1,1.5,0.1c0.4,0,0.7,0,1,0c0.2,0,0.4,0,0.6-0.1c2.4-0.3,3.1-1.9,3.3-2.5
		c0.3-0.6,2-5.3,3.3-9c0.6,3,1.2,6.5,1.2,7.8c0.1,2.3,1.4,3.7,3.3,3.8c0.1,0,0.3,0,0.4,0c0,0,0,0,0,0h0c0.1,0,0.3,0,0.4,0
		c0,0,0.1,0,0.1,0l8.8,0h1.3c0.2,0,0.4,0,0.5,0c1.8-0.2,2.6-1.2,3-1.8C368.2,46.8,367.4,44.7,366.9,43.8 M357.6,43.4
		c-0.8,0.2-1.6-0.5-1.9-1.6c-0.2-0.9-1.8-6.1-3.5-11.5c-1.7-5.5-3.4-11.1-4.1-13.5c-1.3,4.4-6.9,22.2-7.5,23.8
		c-0.5,1.2-1.2,1.4-1.6,1.4c-0.7,0-1.3-0.4-1.7-1.2c-0.5-0.9-7.7-20.7-9-24.8c-0.4,2.3-6,24.8-6,25l-0.1,0.3c-0.3,1-0.9,2.9-2.6,2.4
		c-1.6-0.6-1.1-2.2-0.9-3c0-0.1,0.1-0.3,0.1-0.4c0.8-3.1,6.6-25.4,7.3-28.5c0.3-1.3,0.8-2.7,1.8-2.7c1,0,1.6,1.3,2,2.4
		c0.4,1.1,8.3,23.6,8.8,25.1c0,0.1,0,0.1,0.1,0.2c1.3-4,6.9-22.4,7.6-25.2c0.4-1.6,1.1-2.4,2-2.3c1,0.1,1.6,1.5,1.6,2.4
		c0.1,0.7,2.5,8.4,4.4,14.6c2.6,8.6,4.3,13.8,4.4,14.8C358.9,42.9,357.9,43.3,357.6,43.4"/>
	<path class="st0" d="M172.3,19.7c-1.7-0.6-4.3-0.8-6.2-0.8c-1.3,0-2.7,0.1-3.9,0.2c-3.3,0.4-3.8,2.7-3.9,4l0,1
		c-0.1,6.4-0.1,8.8-0.1,9.8c-0.1,0-0.2,0.1-0.4,0.1c-0.5,0-2.1-0.6-3.6-2c-1.6-1.4-2.5-3.2-2.5-4.7c0-3.6,11.1-12.2,16.7-14.2
		c0.9-0.4,2.9-1.1,3-2.9c0.1-1.1-0.6-2-1.8-2.7l-1-0.6c-5.8-3.4-7.9-4.6-8.8-5.1c-0.1,0-0.1-0.1-0.2-0.1c-0.5-0.4-1.5-1.1-2.9-1.1
		c-0.9,0-1.8,0.3-2.8,0.8c-1.2,0.6-5.6,3.1-9.8,7.1c-4.7,4.3-10.1,11.9-10.1,19.1c0,8.1,7,16.9,14,21.4c1.4,0.9,4.2,1.1,6,1.2
		c0,0,0.1,0,0.1,0c0.3,0,0.7,0,0.9,0c0.1,0,0.1,0,0.2,0c0.5,0,1.2,0,1.8-0.1c1.6-0.2,4.6-0.4,7.6-0.6c3.7-0.3,6.8-0.5,7.9-0.7
		c1.5-0.2,3-1.4,2.9-3.2c0-1-0.2-16.2,0.3-19.7C175.9,22,175.6,20.9,172.3,19.7 M168.9,27.2l0,0.4c0,0.8-0.2,4-0.4,7.1
		c-0.1,2.3-0.3,4.7-0.3,5.1c0,1,0,2.8-2.6,3.1c-1.9,0.2-7.4,0.3-9,0.3c-2.2,0-3-0.1-5.6-0.8l-0.1,0l-0.1-0.1
		c-4.3-2.7-10.4-9.3-10.5-15.5c-0.1-7.2,12.4-16.8,12.5-16.9c0,0,0.3-0.2,0.3-0.2c1.5-1.1,2.8-1.9,3.8-1.7c0.4,0.1,0.7,0.3,0.9,0.6
		c0.1,0.1,0.1,0.2,0.1,0.3c0.2,0.4,0.5,0.9,0.3,1.5c-0.2,0.7-0.9,1.1-1.8,1.5c-1,0.5-12.1,9.1-12.3,15c-0.2,4.4,4.5,9.4,7.1,11.5
		c1.1,0.8,3,1.5,4.1,1.5c0.7,0,3.3-0.1,5.4-0.1c1.6-0.1,3.1-0.1,3.4-0.1c0.6,0,0.8,0,0.8-0.8c0-0.9,0.1-3.8,0.1-6.3
		c0.1-1.9,0.1-3.7,0.1-4.1c0-0.1,0-0.3,0-0.5c0-1-0.1-2.3,0.7-3c0.2-0.2,0.7-0.5,1.3-0.4C169,24.6,168.9,26.1,168.9,27.2"/>
	<path class="st0" d="M367.8,0.4c-4.2-0.2-7.2,2.7-7.2,7c-0.1,2.6,0.8,4.7,2.5,6.1c-0.2,0.6-0.3,0.7-0.4,0.8
		c-1.4,0.7-2.7,2.2-2.3,3.9c0.1,0.3,0.4,1.1,1.3,1.6c0.1,0.3,0.5,0.6,1.2,0.6c0.2,0,0.4,0,0.7-0.1c0.1,0,0.1,0,0.2,0
		c3,0,7.4-4.2,8.7-7c1.3-2.7,1.4-3.8,1.5-5.5l0-0.8C373.9,1.7,370.5,0.5,367.8,0.4 M367.7,12.5l-1.5-0.8c0.2-0.5,0-1.3-0.4-1.8
		c-0.1-0.2-0.2-0.2-0.4-0.4c-0.4-0.2-1.1-0.6-1.1-1.7c0-1.5,0.8-2.4,2.2-2.6l0.2,0l0.2,0.1c0.1,0,0.2,0.1,0.3,0.1
		c0.8,0.2,1.7,0.6,2.1,2.1C369.7,9,368.1,11.7,367.7,12.5"/>
	<path class="st0" d="M209.8,33.9c-0.8-1.5-2.6-2.1-4.5-1.4c-1.2,0.5-7.2,1-9.4,1.1c0-0.2,0-0.5,0-0.9c0-1.1,0-4,0-7.7
		c0-6.6,0-16.7,0.3-18.6l0-0.2c0.2-1,0.5-2.9-0.6-4.3c-0.6-0.7-1.5-1.1-2.6-1.1l-0.2,0c-1.8,0.1-6,0-8.7,0c-0.9,0-1.7,0-2.1,0
		c-0.3,0-0.6-0.1-0.8-0.1c-1.7-0.3-2.6,0.3-3.1,0.8c-0.9,0.9-0.9,2.3-0.8,3.4c0.2,2.9,0.7,16.3,0.7,19.4c0,3.4-0.2,16.6-1,20.5
		c-0.2,1.1-0.5,2.4,0.4,3.5c0.8,1,2.1,1.1,3.3,1.2c0,0,0,0,0.1,0c2.1,0,17.3,0.1,18.9,0.1c0,0,0,0,0,0c0.2,0,0.5,0.1,0.7,0.2
		c0.4,0.1,0.8,0.2,1.2,0.3c0.1,0,0.3,0,0.4,0c0,0,0,0,0,0h0h0c0,0,0.1,0,0.1,0c1.1,0,2.4-0.5,3.3-2.6c0.3-0.8,0.8-2.1,1.4-3.6
		c0.8-2.1,2.2-5.9,2.8-6.7C210.3,36.2,210.4,34.9,209.8,33.9 M200.9,41.4c-0.2,1.7-1.2,1.7-2.3,1.7h-11.4H187c-0.5,0-1.1,0-1.6-0.5
		c-0.5-0.5-0.5-1.3-0.4-2c0.1-0.8,0-7.6,0-14.1c0-6.9-0.1-13.5,0-14.5c0-0.2,0-0.4,0-0.7c0-1.5,0-2.8,0.7-3.4c0.3-0.3,0.7-0.4,1-0.4
		c1.8,0.2,1.7,2.5,1.7,4.1l0,0.3V39c0,0.1,0,0.2,0,0.4c0,0.2,0,0.4,0,0.6c0.1,0,0.2,0.1,0.6,0c1.8-0.1,8.3-0.2,9.1-0.2
		c0.1,0,0.3,0,0.4,0c0.7-0.1,1.5-0.1,2,0.5C200.7,40.4,201,40.8,200.9,41.4"/>
	<polygon class="st0" points="162.2,67.5 165.6,67.5 164,62.8 	"/>
	<polygon class="st0" points="268.4,67.5 271.8,67.5 270.2,62.8 	"/>
	<polygon class="st0" points="221.2,67.5 224.6,67.5 223,62.8 	"/>
	<path class="st0" d="M137.5,63c-0.4-0.3-0.9-0.4-1.5-0.4h-1.5v3h1.5c0.7,0,1.2-0.1,1.5-0.4c0.4-0.3,0.5-0.6,0.5-1.1
		C138,63.6,137.8,63.2,137.5,63"/>
	<path class="st0" d="M193.3,62.3c-1.1,0-1.9,0.4-2.5,1.1c-0.6,0.7-0.9,1.7-0.9,2.9c0,1.2,0.3,2.1,1,2.8c0.6,0.7,1.5,1.1,2.5,1.1
		c1,0,1.9-0.4,2.5-1.1c0.6-0.7,1-1.6,1-2.8c0-1.2-0.3-2.2-0.9-2.9C195.2,62.7,194.4,62.3,193.3,62.3"/>
	<path class="st0" d="M284.4,63c-0.4-0.3-0.9-0.4-1.5-0.4h-1.5v3h1.5c0.7,0,1.2-0.1,1.5-0.4c0.4-0.3,0.5-0.6,0.5-1.1
		C285,63.6,284.8,63.2,284.4,63"/>
	<path class="st0" d="M339.9,65.8c-0.1-3.7-0.2-9.2-0.4-9.6c-0.2-0.6-144.5,0-222.7-0.2c-27.8-0.1-46.4-0.2-47.1,0.5
		c-0.7,0.6-0.3,19.1,0,19.9c0.2,0.4,88.7,0.5,164,0.7c56.3,0.2,105.6,0,105.9-0.3C340.5,75.8,340,71.3,339.9,65.8 M92.3,70.6
		c0,0.7-0.1,1.2-0.4,1.5c-0.3,0.3-0.7,0.5-1.2,0.5c-0.5,0-1-0.2-1.2-0.5c-0.3-0.3-0.4-0.8-0.4-1.5v-8.7c0-0.7,0.1-1.2,0.4-1.5
		c0.3-0.3,0.7-0.5,1.2-0.5c0.5,0,1,0.2,1.2,0.5c0.3,0.3,0.4,0.8,0.4,1.5V70.6z M107.8,70.9c0,0.6-0.1,1.1-0.4,1.3
		c-0.2,0.3-0.6,0.4-1.1,0.4c-0.3,0-0.7-0.1-1-0.2c-0.3-0.2-0.6-0.4-0.9-0.8l-5.9-6.8v5.7c0,0.7-0.1,1.2-0.4,1.5
		c-0.3,0.3-0.7,0.5-1.2,0.5c-0.6,0-1-0.2-1.2-0.5c-0.3-0.3-0.4-0.8-0.4-1.5v-8.8c0-0.6,0.1-1.1,0.4-1.4c0.3-0.3,0.6-0.5,1.1-0.5
		c0.3,0,0.6,0.1,0.9,0.2c0.3,0.1,0.5,0.4,0.8,0.7l6,6.9v-5.8c0-0.7,0.1-1.2,0.4-1.5c0.3-0.3,0.7-0.5,1.2-0.5c0.5,0,1,0.2,1.2,0.5
		c0.3,0.3,0.4,0.8,0.4,1.5V70.9z M118.8,62.3c-0.4,0.2-1,0.3-1.7,0.3h-1.2v7.9c0,0.7-0.1,1.2-0.4,1.5c-0.3,0.3-0.7,0.5-1.2,0.5
		c-0.6,0-1-0.2-1.2-0.5c-0.3-0.3-0.4-0.8-0.4-1.5v-7.9h-1.2c-0.8,0-1.4-0.1-1.7-0.3c-0.4-0.2-0.6-0.5-0.6-1c0-0.4,0.2-0.8,0.6-1
		c0.4-0.2,1-0.3,1.7-0.3h5.7c0.8,0,1.4,0.1,1.7,0.3c0.4,0.2,0.6,0.6,0.6,1C119.4,61.7,119.2,62.1,118.8,62.3 M128.3,72.1
		c-0.4,0.2-1,0.3-1.7,0.3h-3.8c-0.8,0-1.4-0.1-1.7-0.4c-0.3-0.3-0.5-0.7-0.5-1.4V62c0-0.8,0.2-1.3,0.5-1.6c0.3-0.3,0.9-0.4,1.7-0.4
		h3.6c0.8,0,1.4,0.1,1.7,0.3c0.4,0.2,0.6,0.6,0.6,1c0,0.4-0.2,0.8-0.6,1c-0.4,0.2-1,0.3-1.7,0.3h-2.6v2.2h2.3c0.8,0,1.3,0.1,1.7,0.3
		c0.4,0.2,0.6,0.5,0.6,1c0,0.4-0.2,0.8-0.6,1c-0.4,0.2-1,0.3-1.7,0.3h-2.3v2.3h2.7c0.8,0,1.4,0.1,1.7,0.3c0.4,0.2,0.6,0.5,0.6,1
		S128.7,71.9,128.3,72.1 M141.1,72.3c-0.3,0.3-0.7,0.4-1.1,0.4c-0.3,0-0.6-0.1-0.8-0.2c-0.3-0.2-0.6-0.4-0.9-0.8l-3.8-4.1v3.1
		c0,0.7-0.1,1.2-0.4,1.5c-0.3,0.3-0.7,0.5-1.2,0.5c-0.6,0-1-0.2-1.2-0.5c-0.3-0.3-0.4-0.8-0.4-1.5V62c0-0.8,0.2-1.3,0.5-1.6
		c0.3-0.3,0.9-0.4,1.7-0.4h2.5c1.7,0,3,0.3,4,1c1,0.7,1.4,1.6,1.4,2.8c0,0.9-0.3,1.6-0.9,2.2c-0.6,0.6-1.4,1-2.5,1.1l2.6,2.5
		c0.3,0.3,0.6,0.6,0.7,0.9c0.2,0.3,0.2,0.5,0.2,0.7C141.5,71.7,141.3,72,141.1,72.3 M156,70.9c0,0.6-0.1,1.1-0.4,1.3
		c-0.2,0.3-0.6,0.4-1.1,0.4c-0.3,0-0.7-0.1-1-0.2c-0.3-0.2-0.6-0.4-0.9-0.8l-5.9-6.8v5.7c0,0.7-0.1,1.2-0.4,1.5
		c-0.3,0.3-0.7,0.5-1.2,0.5c-0.5,0-1-0.2-1.2-0.5c-0.3-0.3-0.4-0.8-0.4-1.5v-8.8c0-0.6,0.1-1.1,0.4-1.4c0.3-0.3,0.6-0.5,1.1-0.5
		c0.3,0,0.6,0.1,0.9,0.2c0.3,0.1,0.5,0.4,0.8,0.7l6,6.9v-5.8c0-0.7,0.1-1.2,0.4-1.5c0.3-0.3,0.7-0.5,1.2-0.5c0.5,0,1,0.2,1.2,0.5
		c0.3,0.3,0.4,0.8,0.4,1.5V70.9z M169.8,72.2c-0.3,0.2-0.7,0.4-1.2,0.4c-0.4,0-0.8-0.1-1-0.3c-0.3-0.2-0.5-0.6-0.7-1l-0.4-1.2h-5.3
		l-0.5,1.3c-0.2,0.4-0.4,0.7-0.6,1c-0.3,0.2-0.6,0.3-0.9,0.3c-0.4,0-0.8-0.1-1.1-0.4c-0.3-0.3-0.4-0.6-0.4-1c0-0.2,0-0.3,0-0.4
		c0-0.1,0.1-0.3,0.1-0.4l3.7-8.8c0.3-0.6,0.6-1.1,1-1.4c0.4-0.3,0.9-0.4,1.5-0.4c0.6,0,1,0.1,1.4,0.4c0.4,0.3,0.7,0.7,0.9,1.2
		l3.6,8.9c0.1,0.2,0.1,0.4,0.2,0.5c0,0.1,0.1,0.3,0.1,0.4C170.3,71.7,170.1,72,169.8,72.2 M178.8,62.3c-0.4,0.2-1,0.3-1.7,0.3h-1.2
		v7.9c0,0.7-0.1,1.2-0.4,1.5c-0.3,0.3-0.7,0.5-1.2,0.5c-0.5,0-1-0.2-1.2-0.5c-0.3-0.3-0.4-0.8-0.4-1.5v-7.9h-1.2
		c-0.8,0-1.4-0.1-1.7-0.3c-0.4-0.2-0.6-0.5-0.6-1c0-0.4,0.2-0.8,0.6-1c0.4-0.2,1-0.3,1.7-0.3h5.7c0.8,0,1.4,0.1,1.7,0.3
		c0.4,0.2,0.6,0.6,0.6,1C179.4,61.7,179.2,62.1,178.8,62.3 M184,70.6c0,0.7-0.1,1.2-0.4,1.5c-0.3,0.3-0.7,0.5-1.2,0.5
		s-1-0.2-1.2-0.5c-0.3-0.3-0.4-0.8-0.4-1.5v-8.7c0-0.7,0.1-1.2,0.4-1.5c0.3-0.3,0.7-0.5,1.2-0.5s1,0.2,1.2,0.5
		c0.3,0.3,0.4,0.8,0.4,1.5V70.6z M198.4,71c-1.3,1.2-3,1.8-5.1,1.8c-2.1,0-3.8-0.6-5.1-1.8c-1.3-1.2-1.9-2.8-1.9-4.8
		c0-2,0.6-3.6,1.9-4.8c1.3-1.2,3-1.8,5.1-1.8c2.1,0,3.8,0.6,5.1,1.8c1.3,1.2,1.9,2.8,1.9,4.8C200.3,68.2,199.7,69.7,198.4,71
		 M215,70.9c0,0.6-0.1,1.1-0.4,1.3c-0.2,0.3-0.6,0.4-1.1,0.4c-0.3,0-0.7-0.1-0.9-0.2c-0.3-0.2-0.6-0.4-0.9-0.8l-5.9-6.8v5.7
		c0,0.7-0.1,1.2-0.4,1.5c-0.3,0.3-0.7,0.5-1.2,0.5c-0.6,0-1-0.2-1.2-0.5c-0.3-0.3-0.4-0.8-0.4-1.5v-8.8c0-0.6,0.1-1.1,0.4-1.4
		c0.2-0.3,0.6-0.5,1.1-0.5c0.3,0,0.6,0.1,0.9,0.2c0.3,0.1,0.5,0.4,0.8,0.7l6,6.9v-5.8c0-0.7,0.1-1.2,0.4-1.5
		c0.3-0.3,0.7-0.5,1.2-0.5c0.6,0,1,0.2,1.2,0.5c0.3,0.3,0.4,0.8,0.4,1.5V70.9z M228.8,72.2c-0.3,0.2-0.7,0.4-1.2,0.4
		c-0.4,0-0.8-0.1-1-0.3c-0.3-0.2-0.5-0.6-0.7-1l-0.4-1.2h-5.3l-0.5,1.3c-0.2,0.4-0.4,0.7-0.6,1c-0.3,0.2-0.6,0.3-0.9,0.3
		c-0.5,0-0.8-0.1-1.1-0.4c-0.3-0.3-0.4-0.6-0.4-1c0-0.2,0-0.3,0-0.4c0-0.1,0.1-0.3,0.1-0.4l3.7-8.8c0.3-0.6,0.6-1.1,1-1.4
		c0.4-0.3,0.9-0.4,1.5-0.4c0.6,0,1,0.1,1.4,0.4c0.4,0.3,0.7,0.7,0.9,1.2l3.6,8.9c0.1,0.2,0.1,0.4,0.2,0.5c0,0.1,0.1,0.3,0.1,0.4
		C229.3,71.7,229.1,72,228.8,72.2 M238.6,72.1c-0.4,0.2-1,0.3-1.7,0.3h-3.8c-0.8,0-1.4-0.1-1.7-0.4c-0.3-0.3-0.5-0.7-0.5-1.4v-8.8
		c0-0.7,0.1-1.2,0.4-1.5c0.3-0.3,0.7-0.5,1.2-0.5c0.5,0,1,0.2,1.2,0.5c0.3,0.3,0.4,0.8,0.4,1.5v7.9h2.7c0.8,0,1.4,0.1,1.7,0.3
		c0.4,0.2,0.6,0.5,0.6,1S239,71.9,238.6,72.1 M262.7,72.2c-0.3,0.3-0.7,0.4-1.2,0.4c-0.5,0-0.8-0.1-1.1-0.4
		c-0.3-0.3-0.4-0.7-0.5-1.2l-1-7.4c-0.8,3-1.4,5.1-1.8,6.3c-0.4,1.2-0.7,2-0.9,2.3c-0.1,0.2-0.3,0.3-0.5,0.4
		c-0.2,0.1-0.5,0.1-0.8,0.1c-0.5,0-1-0.1-1.3-0.3c-0.3-0.2-0.5-0.6-0.7-1.1l-2.1-7.7l-1.1,7.3c-0.1,0.6-0.3,1.1-0.6,1.4
		c-0.3,0.3-0.7,0.4-1.1,0.4c-0.5,0-0.9-0.1-1.2-0.4c-0.3-0.3-0.4-0.6-0.4-1.1c0-0.1,0-0.2,0-0.4c0-0.1,0-0.3,0.1-0.5l1.7-8.5
		c0.1-0.7,0.4-1.2,0.7-1.5c0.3-0.3,0.8-0.4,1.5-0.4c0.6,0,1.1,0.1,1.5,0.4c0.4,0.3,0.6,0.7,0.8,1.3l2.2,7.4l2-7.4
		c0.1-0.6,0.4-1,0.8-1.2c0.4-0.3,0.8-0.4,1.4-0.4c0.7,0,1.2,0.2,1.5,0.5c0.4,0.3,0.6,0.8,0.7,1.6l1.6,8.6c0,0.1,0,0.2,0.1,0.4
		c0,0.1,0,0.2,0,0.3C263.2,71.6,263,71.9,262.7,72.2 M276,72.2c-0.3,0.2-0.7,0.4-1.2,0.4c-0.4,0-0.8-0.1-1-0.3
		c-0.3-0.2-0.5-0.6-0.7-1l-0.4-1.2h-5.3l-0.5,1.3c-0.2,0.4-0.4,0.7-0.6,1c-0.3,0.2-0.6,0.3-0.9,0.3c-0.4,0-0.8-0.1-1.1-0.4
		c-0.3-0.3-0.4-0.6-0.4-1c0-0.2,0-0.3,0-0.4c0-0.1,0.1-0.3,0.1-0.4l3.7-8.8c0.3-0.6,0.6-1.1,1-1.4c0.4-0.3,0.9-0.4,1.5-0.4
		c0.6,0,1,0.1,1.4,0.4c0.4,0.3,0.7,0.7,0.9,1.2l3.6,8.9c0.1,0.2,0.1,0.4,0.2,0.5c0,0.2,0.1,0.3,0.1,0.4
		C276.5,71.7,276.3,72,276,72.2 M288,72.3c-0.3,0.3-0.7,0.4-1.1,0.4c-0.3,0-0.6-0.1-0.8-0.2c-0.3-0.2-0.6-0.4-0.9-0.8l-3.8-4.1v3.1
		c0,0.7-0.1,1.2-0.4,1.5c-0.3,0.3-0.7,0.5-1.2,0.5c-0.5,0-1-0.2-1.2-0.5c-0.3-0.3-0.4-0.8-0.4-1.5V62c0-0.8,0.2-1.3,0.5-1.6
		c0.3-0.3,0.9-0.4,1.7-0.4h2.5c1.7,0,3,0.4,4,1c1,0.7,1.5,1.6,1.5,2.8c0,0.9-0.3,1.6-0.9,2.2c-0.6,0.6-1.4,1-2.5,1.1l2.6,2.5
		c0.3,0.3,0.6,0.6,0.7,0.9c0.2,0.3,0.2,0.5,0.2,0.7C288.5,71.7,288.3,72,288,72.3 M301.4,72.2c-0.3,0.3-0.7,0.4-1,0.4
		c-0.3,0-0.5-0.1-0.7-0.2c-0.2-0.1-0.6-0.4-1-0.8l-4.9-4.7v3.7c0,0.7-0.1,1.2-0.4,1.5c-0.3,0.3-0.7,0.5-1.2,0.5
		c-0.6,0-1-0.2-1.2-0.5c-0.3-0.3-0.4-0.8-0.4-1.5v-8.7c0-0.7,0.1-1.2,0.4-1.5c0.3-0.3,0.7-0.5,1.2-0.5c0.5,0,1,0.2,1.2,0.5
		c0.3,0.3,0.4,0.8,0.4,1.5v3.1l4.1-4.1c0.4-0.4,0.7-0.6,0.9-0.8c0.3-0.1,0.5-0.2,0.7-0.2c0.4,0,0.7,0.1,1,0.4
		c0.3,0.3,0.4,0.6,0.4,0.9c0,0.2-0.1,0.4-0.2,0.7c-0.1,0.2-0.3,0.5-0.6,0.7l-3.5,3.2l4.3,4.1c0.3,0.3,0.5,0.5,0.6,0.7
		c0.1,0.2,0.2,0.5,0.2,0.7C301.9,71.6,301.7,71.9,301.4,72.2 M311,72.1c-0.4,0.2-1,0.3-1.7,0.3h-3.8c-0.8,0-1.4-0.1-1.7-0.4
		c-0.3-0.3-0.5-0.7-0.5-1.4V62c0-0.8,0.2-1.3,0.5-1.6c0.3-0.3,0.9-0.4,1.7-0.4h3.6c0.8,0,1.4,0.1,1.7,0.3c0.4,0.2,0.6,0.6,0.6,1
		c0,0.4-0.2,0.8-0.6,1c-0.4,0.2-1,0.3-1.7,0.3h-2.6v2.2h2.3c0.8,0,1.3,0.1,1.7,0.3c0.4,0.2,0.6,0.5,0.6,1c0,0.4-0.2,0.8-0.6,1
		c-0.4,0.2-1,0.3-1.7,0.3h-2.3v2.3h2.7c0.8,0,1.4,0.1,1.7,0.3c0.4,0.2,0.6,0.5,0.6,1C311.6,71.5,311.4,71.9,311,72.1 M321.8,62.3
		c-0.4,0.2-1,0.3-1.7,0.3h-1.2v7.9c0,0.7-0.1,1.2-0.4,1.5c-0.3,0.3-0.7,0.5-1.2,0.5c-0.6,0-1-0.2-1.2-0.5c-0.3-0.3-0.4-0.8-0.4-1.5
		v-7.9h-1.2c-0.8,0-1.4-0.1-1.7-0.3c-0.4-0.2-0.6-0.5-0.6-1c0-0.4,0.2-0.8,0.6-1c0.4-0.2,1-0.3,1.7-0.3h5.7c0.8,0,1.4,0.1,1.7,0.3
		c0.4,0.2,0.6,0.6,0.6,1C322.4,61.7,322.2,62.1,321.8,62.3"/>
</g>
</svg>
