<svg id="Layer_1" xmlns="http://www.w3.org/2000/svg" viewBox="0 0 526.5 350.7"><style>.st0{fill:#FFFFFF;}</style><path class="st0" d="M.9 112.4c0 6.3.2 12.5.2 18.8V144c0 4-.2 8.1-.2 12.1 0 2.1.2 4.1.2 6.2 0 1.4-.2 2.7-.2 4.1 0 2.4.2 4.7.2 7.1 0 2 .8 3.1 2.7 3.5.8.2 1.6.3 2.4.3 4.4 0 8.7-.1 13.1-.2h10.5c2.8 0 5.6.2 8.4.2 2.6 0 5.2-.3 7.8-.2 3.3.2 6-1.1 8.4-3.2 3.4-3 6.8-6 10.4-8.8 2.6-2 3.8-4.4 3.6-7.7-.1-2.1-.2-4.1-.2-6.2 0-2.7.2-5.3.2-8 0-2.1-.1-4.1.1-6.2.2-3.1-.9-5.4-3.6-7.1-2.9-1.7-5.6-3.7-8.3-5.6-2.1-1.5-2.1-3.3-.1-4.9 2-1.6 4-3.2 6-4.9 1.5-1.2 3.2-2.4 3.5-4.4.4-2 .5-4 .5-6 .1-3.4 0-6.8 0-10.2h-.2v-8.1c0-1.7-.6-3.2-1.9-4.3-4.3-3.6-8.5-7.2-12.8-10.7-1.3-1-2.6-1.9-4.4-2h-9.1c-4.1 0-8.2-.2-12.4-.2-1.5 0-3.1.1-4.6.2h-9.3c-2.6 0-5.2-.1-7.8.1-1.9.2-2.9 1.3-3 3.2C.8 74.4.8 76.7.8 79c0 6.3.2 12.6.2 18.9.1 4.9-.1 9.7-.1 14.5zm26-19.2c0-2 1.1-3.1 3.1-3.1h9.2c2 0 3.1 1 3.1 3v16.1c0 1.7-1.2 2.8-2.8 2.9-3 .1-6.1.2-9.1.3-2.3 0-3.5-1.2-3.5-3.5v-7.7-8zm0 51.2v-8c0-2.2 1.1-3.2 3.2-3.2h9.2c2.1 0 3.1 1 3.1 3.2v16c0 2.5-1 3.8-3.5 3.8-3.2.1-6.3-.1-9.5-.3-1.6-.1-2.5-1.3-2.5-3.2v-8.3zM86.1 68.9c-2.1.1-3.6 1.4-3.7 3.2-.1 4-.3 8.1-.2 12.1 0 6.6.2 13.2.2 19.8 0 3.3-.2 6.5-.2 9.8 0 2.1.2 4.2.2 6.3 0 2.1-.2 4.2-.2 6.3 0 6.2.2 12.5.2 18.7 0 4.1-.2 8.2-.2 12.4 0 2.9.9 5.5 3.3 7.4 3.9 3 7.6 6.2 11.3 9.4 2.3 2 4.8 2.9 8 2.8 5.2-.2 10.3-.1 15.5-.1h8.2c2 0 3.9-.5 5.5-1.8 4.2-3.6 8.4-7.2 12.7-10.7 2.4-1.9 3.1-4.3 3.1-7.2V87.1c0-2.7-.2-5.3-.2-8 0-1 0-2 .1-3 .1-1.3.2-2.7.2-4-.1-2.3-1.4-3.4-3.7-3.4h-17.1c-4.2 0-5.3 1.1-5.3 5.2v78.3c0 2.5-1.2 3.7-3.7 3.7h-7.7c-2.9 0-4.1-1.2-4.1-4V98.7 77.8c0-1.6.1-3.2 0-4.8-.1-1.5-.2-3.1-1.8-3.8-.8-.3-1.8-.5-2.8-.5H90.2c-1.5.2-2.8.2-4.1.2zM275.2 107.2c-.4 1-.9 2.4-2.2 2.1-1.2-.3-1.1-1.7-1.1-2.7.1-6 .2-11.9.2-17.9 0-4.7-.1-9.4-.2-14 0-1.1-.1-2.1-.3-3.2-.2-1.6-1.3-2.5-2.9-2.5-5.6-.1-11.2-.2-16.7-.2-4.8 0-5.9 1-5.9 5.9v33.6c0 2.5-.2 5-.2 7.5 0 2.6.2 5.1.1 7.7 0 3.6-.1 7.1-.2 10.7v26.1c0 2.3.1 4.5.2 6.8.1 2.5.1 5 .3 7.4.1 1.4 1 2.3 2.4 2.5 1.3.2 2.6.3 4 .3 1.9 0 3.9-.2 5.8-.2h10c1.8 0 2.8-1 3.1-2.8.1-1 .2-2 .2-3.1v-26.7c0-1.2-.2-2.4-.2-3.6.1-1.7.3-3.4.6-5.1.3-1.3 1.1-1.4 1.9-.5.6.7 1 1.5 1.3 2.3 3.7 8.8 7.4 17.7 11.1 26.5 1.4 3.3 2.7 6.5 4.1 9.8.7 1.7 1.9 2.7 3.7 3 1.1.2 2.2.3 3.3.3h10.9v-.3c2.3 0 4.6.1 7 0 3-.1 4.2-1.5 2.8-4.4-1.3-2.6-2.4-5.4-3.7-8-6.2-13.6-12.3-27.3-18.6-40.8-1.3-2.8-1.2-5.3.1-8 5.5-11.6 11-23.3 16.4-34.9 1.3-2.7 2.6-5.4 3.7-8.1.9-2.1 0-3.5-2.3-3.7-1.4-.1-2.7 0-4.1 0-2.7-.1-5.4-.2-8.1-.2-2.6 0-5.2.2-7.8.2-2.1 0-3.5.9-4.3 2.8-1.9 4.6-3.8 9.1-5.7 13.7-2.8 7.1-5.7 14.4-8.7 21.7zM164.2 128.8v29.5c0 2.6.8 4.7 2.9 6.4 4.2 3.3 8.3 6.8 12.4 10.2 1.5 1.3 3.2 2.3 5.3 2.3 3.8-.1 7.5-.1 11.3-.2h14.2c2 0 3.9-.5 5.5-1.8 4.7-3.7 9.3-7.4 14-11.2 1.3-1 2.3-2.3 2.3-4.1.1-6.4.2-12.9.2-19.3v-5.9c-.1-1.8-.4-3.6-2.4-4.2-.8-.3-1.8-.3-2.7-.4h-9.6c-2.2 0-4.4.2-6.6.2-3.4 0-4.6 1.2-4.7 4.6v17.7c0 1.8-.9 3-2.6 3.2-1.3.2-2.6.3-3.8.3-2.1 0-4.2-.2-6.3-.2-2.5 0-3.5-1-3.5-3.5.1-7.2.2-14.3.2-21.5 0-2.9-.2-5.8-.2-8.8 0-3.2.2-6.4.2-9.7 0-2.7-.2-5.4-.2-8.1v-11c0-2.2 1.1-3.3 3.2-3.3h9.8c2.2 0 3.2 1.1 3.2 3.3v12c0 .9.1 1.8.3 2.7.2 1.4 1.3 2.4 2.7 2.4 2.4.1 4.7.2 7.1.2 4 0 8-.1 12-.1 2.5 0 3.5-.9 3.9-3.3.1-.5.1-1.1.1-1.7v-8.6-9c0-2.7-1-4.9-3.2-6.7-4.2-3.2-8.2-6.6-12.4-9.8-1.2-1-2.8-1.9-4.3-2.1-4-.4-8-.5-12.1-.5-2.4 0-4.7.2-7.1.2h-8.1c-1.9 0-3.6.5-5.1 1.8-4.4 3.7-8.9 7.3-13.3 11-1.7 1.4-2.7 3.2-2.7 5.4 0 2.4-.1 4.8-.1 7.2 0 4.2.2 8.4.2 12.6 0 4.8-.2 9.5-.2 14.3-.1 2.4.2 5 .2 7.5zM374.1 68.9c-2.2-.1-4.4-.2-6.6-.2-3 0-6 .2-9 .2h-19.4c-.5 0-.9-.1-1.4-.1-1.8 0-3.7-.1-5.5.1-2.1.2-3.1 1.3-3.2 3.4-.1 2.1 0 4.3 0 6.4v32.2c0 2-.2 4-.2 6v8.9c.1 4.7.2 9.4.2 14.1 0 .6-.1 1.2-.1 1.8v18.5c0 1.3 0 2.7.1 4 0 3.2 0 6.4.1 9.6.1 1.8 1 2.7 2.8 2.8 3 .2 6.1.2 9.1.2h12.2c2.8 0 5.6.2 8.4.2 2.9 0 5.7-.2 8.6-.2h8.6c2.1 0 3.3-1 3.7-3.1.2-1.1.3-2.1.2-3.2-.1-4-.1-8-.3-12.1-.1-1.4-1.1-2.3-2.5-2.5-1.4-.2-2.8-.2-4.2-.2-3 0-6 .2-9 .2-2.9 0-5.7-.2-8.6-.2-2.2 0-3.2-1.1-3.2-3.3v-19.1c0-2.2 1.1-3.2 3.3-3.2h7.5v-.2c3.1 0 6.3.1 9.4 0 1.8-.1 2.9-1.3 3.1-3 .2-2.1.3-4.3.3-6.4 0-2.6-.1-5.2-.2-7.9-.1-1.8-1.2-3.3-3-3.5-1.4-.2-2.9-.3-4.4-.3-4.1 0-8.2.2-12.4.2-2.3 0-3.5-1.3-3.5-3.6V93.1c0-2.4 1.2-3.5 3.6-3.5 3.9.1 7.7.2 11.6.2 2.9 0 5.7-.2 8.6-.2 2.8 0 4-1.1 4.1-3.8.1-4.3.1-8.7 0-13 0-2.6-1.1-3.8-3.4-4-2 0-3.7.1-5.4.1zM472.3 72.5c-.1.5-.1 1-.1 1.5v27.4c-.1 6.2-.2 12.3-.2 18.5 0 3 .2 6.1.2 9.1 0 1.3-.2 2.6-.2 3.9 0 3.5.2 6.9.2 10.4 0 2.2-.2 4.4-.2 6.6 0 2.6.2 5.1.2 7.7 0 5.2.1 10.3 0 15.5-.1 2.7 1.7 4 3.9 4h46.7c1.6 0 2.6-.8 2.9-2.5.1-.8.2-1.6.2-2.4 0-2.2.1-4.5.1-6.7 0-2.3-.1-4.5-.3-6.8-.1-1.3-1-2.1-2.3-2.2-2.4-.2-4.9-.5-7.3-.5-2.7 0-5.4.2-8.1.2h-6.7c-2.1 0-3.2-1.2-3.2-3.3v-9.7-4.9-4.9c0-2 1.2-3.2 3.2-3.2h15.8c2.4 0 3.8-.9 4.2-2.6.2-.9.3-1.9.3-2.8 0-3.3-.2-6.6-.2-9.9v-1.8c-.2-2.4-.9-3.3-3.3-3.7-1.7-.2-3.5-.3-5.3-.3-3.7 0-7.4.2-11.2.2-2.3 0-3.5-1.1-3.5-3.5V93.3c0-2 1.1-3.1 3.1-3.1l20.5-.3c3.1 0 4.1-1 4.3-4v-1.4-11.6c0-2.8-1-3.8-3.7-3.8h-23.5c-2.6 0-5.1-.2-7.7-.2-4.9 0-9.8.1-14.6.2-2.9-.1-3.9.8-4.2 3.4zM394.8 68.7c-2.5 0-3.6 1.4-2.9 3.8.1.5.3 1 .4 1.5 2.5 6.6 5.1 13.1 7.6 19.7 4.2 11 8.4 22 12.7 33 1.2 3.1 1.8 6.2 1.8 9.5v37.2c0 1.8 1 3.2 2.8 3.4 3.8.3 7.6.5 11.4.7v-.2h7.1c.5 0 1-.2 1.5-.2 1.9-.3 3-1.3 3.1-3.1.2-2.9.3-5.8.3-8.7v-18.6c0-.6 0-1.3-.1-1.9-.1-3.2-.3-6.4-.1-9.7.1-2.2.4-4.5 1.2-6.5 5.2-13.9 10.5-27.8 15.7-41.7 1.8-4.8 3.6-9.7 5.3-14.5.6-1.6-.1-2.8-1.8-3.1-1.4-.3-2.9-.3-4.3-.4-4.7-.1-9.4-.1-14.2-.1-3.2 0-4.9.6-5.8 3.7-1.9 6.8-3.8 13.7-5.7 20.5-.4 1.5-.8 3.1-1.4 4.5-.3.6-1.1 1.3-1.7 1.4-.5 0-1-.9-1.5-1.4-.2-.2-.2-.5-.2-.7-1.4-4.8-2.7-9.7-4.1-14.5-1-3.6-2-7.1-3.1-10.7-.4-1.4-1.3-2.3-2.8-2.4-2.2-.2-4.4-.4-6.7-.4-4.9-.2-9.7-.1-14.5-.1zM9.7 276.1h26.7c1.8 0 3.5-.5 5-1.7 3.2-2.6 6.3-5.3 9.5-7.9 1.8-1.5 2.6-3.4 2.6-5.7-.1-5.4 0-10.7 0-16.1 0-2.5-.9-4.4-3-5.7-1.9-1.2-3.8-2.5-5.6-3.9-2-1.4-2.1-3-.2-4.6 1.1-1 2.2-1.9 3.4-2.7 2-1.5 3.8-3 3.9-5.7.1-5.1.2-10.2.2-15.3 0-2.7-.8-5.2-3.1-7-3.1-2.4-6-5.1-9.1-7.4-1.1-.8-2.7-1.4-4-1.4-10.4-.2-20.8-.2-31.1-.3-2.9 0-4.1 1-4.4 3.6-.2 1.9-.3 3.8-.3 5.6 0 3.6.2 7.2.2 10.8v17.1c0 3.2-.2 6.4-.2 9.5 0 5.9.2 11.9.2 17.8 0 1.8-.2 3.7-.2 5.5 0 4.2.1 8.3.2 12.5 0 1.7 1.2 3 2.9 3.2 2.1-.1 4.2-.2 6.4-.2zm23.1-25.7v5.8c0 2.1-1.2 3.3-3.3 3.4h-5c-2.4 0-3.8-1.3-3.8-3.7 0-1.8.2-3.6.2-5.4 0-1.8-.2-3.6-.2-5.4 0-2.6 1.3-3.9 3.9-3.8 1.9 0 3.8.1 5.6.3 1.6.1 2.6 1.3 2.6 3v5.8zm-12.2-38.6c0-.8.2-1.6.4-2.4.5-1.8 2.1-2 3.6-2.2 1.7-.1 3.4-.1 5.2 0 1.9.1 3 1.2 3 3.1v11.2c0 2.1-1.1 3.2-3.1 3.2h-5.8c-2.1 0-3.2-1.1-3.2-3.2-.1-3.2-.1-6.4-.1-9.7zM321.5 259.1c-.1-5.1-.1-10.1 0-15.2 0-1.6-.4-2.9-1.7-3.9-2.3-1.8-4.7-3.5-7-5.2-1.8-1.3-2-2.8-.4-4.3 1.7-1.5 3.6-3 5.3-4.5 1.3-1.1 2.1-2.5 2.2-4.2v-7.5c-.1-3.6-.1-7.2-.3-10.8-.1-1-.7-2.2-1.4-2.9-3.1-2.8-6.3-5.6-9.6-8.2-1.2-.9-2.9-1.6-4.4-1.8-2.1-.4-4.4-.3-6.5-.3-2.8 0-5.6.2-8.4.2-5.5 0-11.1 0-16.6-.1-2.4 0-3.9 1.1-4.3 3.2-.2 1.1-.3 2.1-.3 3.2 0 2.9.2 5.8.2 8.8v34.2c0 2.6-.2 5.1-.2 7.7 0 2.7.2 5.5.2 8.2v14.8c0 1 .1 2 .3 2.9.2 1.4 1.1 2.2 2.4 2.5.9.2 1.9.3 2.8.3 3.6 0 7.2-.2 10.8-.2h11.5v.3h7c2.5 0 4.8-.7 6.8-2.3 2.6-2.3 5.2-4.7 8-6.7 2.9-2.1 3.7-4.8 3.6-8.2zm-20.6-8.6v5.7c0 2.1-.7 3.1-2.8 3.3-2.3.2-4.6.1-6.9-.1-1.7-.2-2.5-1.3-2.5-3.1 0-1.7.2-3.3.2-5 0-1.8-.2-3.7-.2-5.5 0-3.1 1.4-4.5 4.5-4.4h4.5c1.9 0 3.1 1.2 3.1 3.1.1 1.9.1 3.9.1 6zm-.1-28.5c0 1.8-1.4 2.8-3.6 3h-1.8v.1c-1.3-.1-2.6-.2-4-.3-1.4-.2-2.5-1.1-2.5-2.5-.1-4.1-.1-8.2 0-12.3 0-1.6 1.3-2.7 2.9-2.7 2.1 0 4.2.1 6.3.3 1.6.1 2.5 1.4 2.6 3.7.2 3.5.2 7.1.1 10.7zM526.5 214.5h-.3v-13.4c0-1 .1-2.1.1-3.1 0-1.6 0-3.3-.1-4.9-.1-1.2-.9-1.9-2.1-2.2-1-.2-2-.3-3.1-.3-4 0-8.1-.1-12.1.1-2.1.1-3.1 1.5-3.1 3.6v7.4c-.1 5.4-.2 10.8-.2 16.2 0 1.5.2 2.9.2 4.4 0 1.8-1.2 3.1-2.9 3.1-2.1.1-4.1.1-6.2 0-2.1-.1-3.2-.9-3.5-2.4-.2-.9-.3-1.9-.3-2.8 0-1.8.2-3.7.2-5.5 0-4.1-.2-8.2-.2-12.2 0-2.9.1-5.8 0-8.8 0-1.6-1-2.7-2.6-2.8-4.6-.2-9.3-.5-13.9-.4-2.7 0-3.6 1.1-3.8 3.8v11.9c-.1 4.6-.2 9.3-.2 13.9 0 3.7.2 7.4.2 11v19.4c0 2.7-.2 5.3-.2 8 0 4.4.1 8.8.2 13.3 0 .6.1 1.2.2 1.8.3 1.4 1.3 2.3 2.8 2.3 1.2 0 2.4.1 3.6.1 3.5 0 7 0 10.5-.1 1.6-.1 2.7-1.2 3-2.9.1-.8.2-1.7.2-2.6v-9.1c.1-4 .2-8 .2-12 0-1.5-.2-2.9-.2-4.4 0-1.6.9-2.8 2.2-2.9 2.6-.1 5.1-.2 7.7 0 2.1.1 2.7 1.1 2.7 3.1v7.9c0 1.6.1 3.3.2 4.9l.3 15.2c0 1.4 1.3 2.5 2.7 2.7 1.1.2 2.3.3 3.5.2 3.1 0 6.3-.1 9.4-.2.8 0 1.5-.1 2.3-.3 1.2-.3 2-1.1 2.2-2.2.2-.8.3-1.7.3-2.6 0-2.4-.2-4.8-.2-7.2 0-6.4.2-12.9.2-19.3 0-2.4-.2-4.9-.2-7.3 0-4.2.2-8.3.2-12.5.1-3.1.1-6.5.1-9.9zM232.1 239.2c-2-1.3-4-2.8-6-4.2-1.8-1.3-2-2.9-.3-4.4 1.2-1.1 2.5-2.2 3.9-3.2 1.8-1.4 3.5-2.8 3.6-5.3v-17c0-2-.7-3.8-2.4-5.2-2.1-1.6-4.2-3.3-6.1-5.1-3-2.8-6.3-4.2-10.4-4-4.6.2-9.3 0-13.9 0h-15c-2.4 0-3.7 1.2-3.8 3.2-.1 2.7-.2 5.3-.2 8 0 1.9.2 3.8.2 5.7 0 3-.2 5.9-.2 8.9 0 2.3.2 4.6.2 6.9 0 5.4-.2 10.7-.2 16.1 0 4.8.2 9.7.2 14.5v11.6c0 2.5.1 5.1.3 7.6.1 1.8 1.1 2.8 2.9 2.9 2 .1 4.1 0 6.2 0 2.4 0 4.9.1 7.3 0 2.6-.1 3.7-1.2 3.8-3.9.1-4 .3-8 .2-12.1 0-5.2-.2-10.3-.2-15.5 0-1.8 1-3 2.7-3.1 2-.1 3.9-.2 5.9-.3 2.4 0 3.5 1.1 3.5 3.5V271c0 .9.1 1.8.3 2.7.2 1.4 1.3 2.4 2.8 2.4 4.5 0 8.9.1 13.4 0 3-.1 4-1.2 4.2-4.2v-1.4-22.4c0-.7.1-1.4.2-2 0-2.9-.6-5.3-3.1-6.9zm-17.9-17.6c0 2.1-1.1 3.2-3.2 3.2h-5.7c-2.1 0-3.3-1.2-3.3-3.2v-11c0-2 1.1-3.1 3.1-3.1h5.8c2.1 0 3.2 1.1 3.2 3.2v5.5c.1 1.8.1 3.6.1 5.4zM389.6 257.6c-.9-5.6-1.8-11.3-2.8-16.9-.7-4.5-1.4-9-2.2-13.5l-2.4-15.3c-.6-4-1.3-7.9-2-11.9-.4-2.2-.8-4.4-1.2-6.5-.3-1.5-1.4-2.5-3-2.6-4.2-.2-8.5-.4-12.7-.5-4.2-.1-8.5.1-12.7.1-2.7 0-4.1.8-4.7 3.5-.6 2.8-1.1 5.7-1.5 8.5l-3.6 21.6c-1 6.1-2 12.2-3.1 18.3-1.7 9.7-3.4 19.5-5.1 29.2-.4 2.4.4 4.1 2.2 4.3 1.8.2 3.7.2 5.5.2h7.1c2.9 0 4.4-.8 4.9-3.7.5-2.8.8-5.6 1.1-8.4.3-2.5 1.3-3.8 3.3-3.8l9.3-.3c2.3 0 3.5.9 4.1 3.1.2.7.3 1.4.4 2.1.4 2.5.6 5.1 1.1 7.6.3 1.9 1.6 3.1 3.2 3.2h8.2v.3c1.8-.1 3.6-.2 5.4-.2 3.2 0 4-.9 3.6-4.2-.1-.4 0-.8-.1-1.2-.8-4.2-1.5-8.6-2.3-13zm-26.2-14c-.6.1-1.2 0-1.8 0-4.3 0-4.9-.6-4.4-5 .5-4.5 1.3-9 2-13.5.4-2.6.5-5.2.9-7.8.2-1.7.4-3.5.8-5.2.1-.6.8-1.1 1.3-1.6.4.5 1.1 1 1.2 1.6.5 2.3.8 4.7 1.1 7.1.7 5.1 1.4 10.1 2 15.2.2 1.8.5 3.6.6 5.3 0 3.2-1.4 3.6-3.7 3.9zM406.7 266.2l9.6 7.8c1.8 1.5 3.7 2.2 6 2.1 2.4-.1 4.9 0 7.3 0 3.4.1 6.9.2 10.3.2 2.2 0 4.1-.6 5.8-2 3.2-2.6 6.3-5.3 9.4-8 1.4-1.2 2.3-2.8 2.5-4.6.2-1.4.3-2.7.3-4.1-.1-5.5-.1-11-.3-16.5 0-2-.6-3.7-2.2-5-3.4-2.8-6.7-5.6-10.1-8.4-1.6-1.4-3.3-2.7-5.5-2.9-3.7-.4-7.3-.6-11-.8-2.6-.1-4-1.3-4-3.9v-9.3c0-2.3 1.3-3.6 3.6-3.6 1.9 0 3.9.1 5.8.3 1.3.1 2.3.9 2.4 2.2.2 1.6.3 3.2.3 4.9 0 3 1 4.1 4.1 4.2h2.3c1.9-.1 3.8-.2 5.7-.2 1.2 0 2.5.1 3.7 0 1.7-.2 2.7-1.1 2.8-2.8.2-3.6.2-7.1.3-10.7 0-1.5-.4-2.7-1.5-3.7-3.7-3.1-7.4-6.2-11.2-9.3-1.3-1-2.8-1.5-4.5-1.5h-16.5c-2.1 0-4 .4-5.6 1.8-3.4 2.9-6.8 5.7-10.2 8.6-1.1.9-1.7 2.1-1.8 3.6-.1 3.2-.2 6.4-.2 9.7 0 3.7.1 7.4.3 11.1.1 2.1.8 3.8 2.4 5.2 3.6 3 7.1 6.1 10.7 9 1 .8 2.3 1.5 3.5 1.7 3.7.5 7.5.8 11.2 1.1 2.9.2 4.3.9 4.4 3.7.1 3.3.2 6.5.2 9.8 0 2.6-1.2 3.8-3.9 3.8-1.7 0-3.4-.2-5.1-.2-2-.1-3.1-1.1-3.1-3.1v-4.1c0-1.8-1.2-3.3-3-3.5-1.2-.2-2.5-.3-3.7-.3-2 0-3.9.1-5.9.2-1.6.1-3.2.1-4.7.2-2 .2-3 1.3-3 3.3-.1 3 0 6.1 0 9.1 0 1.9.6 3.7 2.1 4.9zM147.8 207.4c1.1-.1 2.1.1 3.2.1 3.9-.1 7.9-.2 11.8-.2 3 0 4.2-1.2 4.1-4.3v-4.1c0-1.8 0-3.7-.1-5.5-.1-1.5-1.1-2.3-2.5-2.6-.8-.2-1.7-.3-2.6-.3h-25.2v.2h-8.8c-1.9 0-3.1.9-3.3 2.9-.1 1.3 0 2.7 0 4.1-.1 3.9-.2 7.8-.2 11.7 0 2.7.2 5.5.2 8.2v24.8c0 2.8-.2 5.6-.2 8.4v20.1c0 .9.1 1.7.3 2.5.4 1.5 1.3 2.5 3 2.6 1.7.1 3.3 0 5 0 3.9.1 7.8.2 11.7.2 4.5 0 9-.2 13.5-.2 1.9 0 3.8.1 5.6 0 2.4-.2 3.3-1.3 3.4-3.7.1-3.2.1-6.4 0-9.6 0-1.5-.8-2.5-2.3-2.9-1.2-.3-2.4-.5-3.7-.5-4.1 0-8.2.1-12.4.2-2.5 0-3.6-1.1-3.6-3.6.1-4.4.2-8.8.2-13.2 0-2.5 1-3.5 3.5-3.5h10.1c3.2-.1 4.4-1.2 4.5-4.3.1-2.7 0-5.4 0-8.1 0-2.9-1.3-4.3-4.2-4.4-3.6-.1-7.1 0-10.7 0-1.9 0-3-.9-3.2-2.8-.2-3.2-.3-6.3-.2-9.5.4-1.7 1.3-2.6 3.1-2.7zM67.8 199.2c-.1 2.1-.2 4.2-.2 6.3 0 3.3.2 6.7.2 10v11.1c0 4.3-.2 8.7-.2 13 0 2.3.2 4.5.2 6.8v25.5c0 2.5 1 3.8 3.4 4 2.7.2 5.5.2 8.2.2h18.2c.5 0 .9.1 1.4.1 2.7 0 5.3.1 8-.1 2-.1 3.1-1.5 3.1-3.5 0-1 .1-2 .1-3 0-2.4.1-4.8-.1-7.2-.1-1.8-1.3-3-3.1-3.1-2.9-.1-5.8 0-8.8 0-2.1 0-4.1.2-6.2.1-2.6-.1-3.6-1.1-3.6-3.1l-.3-13c-.1-3.1 1.3-4.4 4.3-4.3 3.7.1 7.4-.1 11.1-.2 1.5-.1 2.5-1 2.9-2.4.3-1.2.2-2.5.2-3.8 0-1 0-2-.1-3 0-1.6.1-3.2-.1-4.7-.2-1.6-1.4-2.6-3-2.6l-12.1-.3c-2.1 0-3.2-1.1-3.2-3.2 0-2.8.1-5.7.2-8.5.1-2.5 1.1-3.3 3.6-3.3 4.6 0 9.3 0 13.9.1 2.4 0 4-.9 4.1-3 .2-3.7.1-7.4 0-11 0-1.4-1.1-2.2-2.4-2.5-.9-.2-1.9-.3-2.8-.3-2.2 0-4.4.2-6.6.2H71.7c-2.5 0-3.7 1-4 3.4 0 1.9.2 3.6.1 5.3zM291.4 296.2c-.3-1.5-1.6-2.3-3-1.8-3 1-5.9 2.5-8.5 4.4-1.3 1-2.7 1.9-4.2 2.4-1.8.7-3.8 1.1-5.7 1.4-.9.2-1.9.2-2.7 0-2.2-.7-4.5-1.5-6.6-2.6-2.5-1.2-5.1-1.8-7.8-1.8-2.6.2-5.2.3-7.8.6-2.2.2-4 1.1-4.4 3.6-.2 1-.2 2-.2 2.9.1 2 .3 4 .3 6-.1 7.3-.3 14.6-.5 21.9 0 .3-.1.7-.2 1-.3 2.8-.1 5.1 3.6 6.2 1.6.5 2.8 1.4 3.8 2.8.7.9 1.6 1.7 2.6 2.2 1.2.7 2.5 1.2 3.8 1.5 2.6.6 5.3 1.3 8.1.4 1.3-.4 2.7-.1 3.8 1 .7.7 1.4 1.2 2.2 1.7 1.7 1 3.2.7 4.2-1 .5-.9.9-1.9 1.1-3 .5-1.9 1.3-3.3 3.1-4.3.9-.5 1.8-1.5 2.3-2.5 1.1-2 2.5-3.4 4.6-4.2 3-1.2 5-3.5 6-6.5.7-2 1.2-4.1 1.5-6.2.6-3.8 1.4-7.6 1.5-11.4.1-4.5-.4-9.1-.7-13.6 0-.2-.1-.6-.2-1.1zM463.6 44.5c2.2 1.8 4.6 2.7 7.7 2.5 2.5 0 5.1-.4 7.4-2 3.7-2.6 3.9-7.1.6-10.2-3.3-3.2-12.6-3.1-16 .3-2.9 2.9-2.9 6.8.3 9.4zm12.4-6.4c1.1-.7 2.3.4 2.4 2-.2.6-.3 1.2-.7 1.8-1.2 1.8-3 2.7-5.2 2.8-1.5 0-2.4-1.3-1.5-2.4 1.6-1.6 3.3-3.1 5-4.2zm-10.6-.7c1.3-1.6 3-2.3 5-2.5 1.7-.1 2.5 1.2 1.5 2.5-1.2 1.5-2.7 2.8-4.3 3.9-1.4.9-2.9-.1-3.1-2 .2-.7.4-1.4.9-1.9zM516.1 47.2c3.1.3 6.1-.3 8.4-2.6 1.7-1.6 1.5-5.4-.4-6.1-3.5-1.3-7.1-2.6-10.9-.9-.7.3-1.4.3-1.7-.5-.3-.8.1-1.3 1-1.5 3-.9 6-.9 9 0 .9.3 1.8.4 2.7.7.1-1.6-.3-2.3-1.6-2.9-.9-.4-2-.6-3-.7-2.9-.2-5.7-.5-8.4.9-4.6 2.3-5.4 8-1.6 11.4 1.8 1.7 4.2 2 6.5 2.2zm-4.6-5.3c.2-.8.7-1.7 1.4-2.1 2.7-1.4 5.5-1.2 8.1.2 1.5.8 1.6 2.9.1 3.7-1.3.7-2.7 1-4.1 1.5-1.5-.4-2.8-.8-4.1-1.3-.9-.3-1.7-1-1.4-2zM438.8 35.8c.2-.1.3-.1.5-.2 2.6-1.3 5.4-1.2 8.1-.5 1.2.3 2.1.9 2.2 2.2.1 1.3-.7 2-1.8 2.5-1.5.6-3.1 1.2-4.6 1.8-1.8.7-3.7 1.3-5.5 2.1-.5.2-1.1 1.2-1 1.7.1.5.9 1.1 1.5 1.3.8.3 1.8.3 2.7.3 1.7 0 3.4-.2 5.1-.3v.2c1.8-.1 3.5-.1 5.3-.4 1.6-.2 2-1.7.9-2.8-1.3-1.4-1.4-1.8-.1-3.1 2.1-2.1 1.5-4.5-.6-6.1-1.8-1.4-3.9-1.7-6-1.9-2.6-.3-5.2-.1-7.7.8-1 .3-1.8.9-1.5 2.2.2.7 1.2.8 2.5.2zM492 44.3c-.7 1-.4 1.9.8 2.2.8.2 1.6.2 2.5.3.3 0 .8 0 1.1-.1.6-.2 1.5-.5 1.7-.9.2-.4-.5-1.1-.8-1.7-.4-1-1-1.9-1.1-2.9-.2-1.9-.2-3.8-.3-5.6-.1-1.1-.7-1.8-1.7-1.9-1.3-.2-2.1.7-2.7 1.6-.6.8-.3 1.7.3 2.5 2 2.2 2 4 .2 6.5zM344.8 26.6c2 .7 4 1.3 6.1 1.9.5.1 1.5-.1 1.7-.5.3-.5 0-1.3-.2-1.9-.2-.8-.6-1.6-.8-2.1.1-.8.1-1.3.3-1.7.3-1 .7-2.1 1.9-2.2 1.2 0 1.6 1.1 1.9 2.1.3 1.3.7 2.5 1 3.8 1.1 4.1 2.9 4.6 6.1 1.7 1.3-1.2 2.7-2.3 4.2-3.2 1-.6 1.8 0 1.9 1.2.1 2-.8 3.5-2.5 4.5-.5.3-1.2 1-1.2 1.5.1.6.7 1.3 1.3 1.5 1.9.7 3.8 1.3 5.7 1.8.5.1 1.4-.4 1.8-.9.2-.3-.2-1.1-.4-1.7-.1-.2-.4-.3-.6-.5-1.1-1-1.6-2.1-1-3.6.3-.9.6-1.8.8-2.7.5-2.1 1.4-3.7 3.9-3.9.5 0 1.3-.7 1.3-1.1 0-.5-.5-1.3-1-1.6-1.1-.6-2.4-.9-3.6-1.3-2.1-.7-3.8.1-5.4 1.4-1.6 1.3-3.2 2.6-4.7 4-1.8 1.5-3.3 1.2-4-1-.6-1.9-1.2-3.8-1.7-5.7-.7-2.8-2.4-4.4-5.1-5.2-.7-.2-1.3-.3-2-.5-.9-.3-1.7-.2-2.2.6-.6.9.1 1.5.8 2.1 1.1.9 1.5 2.1 1.2 3.5-.3 1.4-.8 2.8-1.2 4.2-.5 1.8-1.7 2.8-3.5 3-.5.1-1 .6-1.5.9 0 .5.3 1.4.7 1.6zM265.6 16.8h.1c5.2.3 10.4.6 15.7.9 1.5-.1 3-.2 4.4-.4.4 0 .8-.2 1-.4.8-.7 1.4-1.4.8-2.5-.6-1.2-1.5-1-2.5-.8-1.4.3-2.9.8-4.3.8-2.4 0-4.9-.3-7.3-.5-.5 0-1-.1-1.3-.3-.4-.4-1-1-1-1.5s.5-1.2 1-1.5c.5-.3 1.1-.3 1.7-.3 2.1-.1 4.1 0 6.2-.1.8 0 1.8-.3 1.8-1.3s-.9-1.3-1.7-1.4c-2.2-.2-4.4-.3-6.5-.5-1.2-.1-2.2-.8-2.1-1.7.1-1.2 1-1.7 1.9-1.7 4.2.2 8.6-.9 12.7 1.1.4.2 1.4-.2 1.9-.5.7-.6.6-1.5 0-2.1-.4-.5-1.1-.9-1.7-1.1-1.5-.3-3.1-.4-4.7-.5-3.4-.2-6.8-.4-10.3-.5-2-.1-4-.1-6 0-.6 0-1.4.7-1.5 1.2-.1.4.5 1.3 1.1 1.5 2.1.8 2.6 2.4 2.4 4.4-.1.9 0 1.7 0 2.6-.1 1.6-.6 3-2.3 3.7-.8.4-2 .7-1.8 1.9.2 1.3 1.4 1.2 2.3 1.5zM174.1 14.6c.7 2.1 1.2 4.4 1.5 6.7.2 1.4-1.2 2-2.1 2.9-.3.3-.7 1.1-.6 1.4.2.5.9.8 1.4 1.1.3.1.7.1 1 0 1.3-.2 2.6-.5 3.9-.8 1.1-.3 2.2-.5 3.3-1 .4-.2 1-.9.9-1.3 0-.4-.6-.9-1-1.2-.2-.2-.6-.2-1-.3-1.1-.3-2-1-2.3-2.2-.2-.8-.7-1.6-.7-2.4 0-.9.1-2.1.7-2.5.5-.4 1.8-.2 2.6.1 1.5.7 2.9 1.6 4.3 2.5 2.5 1.4 4.9 2.9 7.4 4.3.9.5 2 .6 2.9-.2.9-.8 1-1.8.7-2.8l-1.2-5.1c-.6-2.4-.9-4.7 1.7-6.2.3-.2.5-.9.4-1.2-.2-.4-.8-.7-1.2-.9-.2-.1-.6 0-.9 0 0-.1 0-.2-.1-.2-2.2.6-4.5 1-6.7 1.7-.5.2-1.3 1-1.2 1.4.1.5.8 1.3 1.4 1.4 2.5.5 3.1 2.4 3.4 4.5.3 1.8-1 2.8-2.7 2.2-.7-.2-1.3-.6-1.9-1-2.4-1.4-4.8-2.6-7.1-4.2-3.2-2.2-6.4-1.8-9.6-.6-.6.2-1 1.1-1.5 1.6.6.4 1.2.9 1.8 1.2.9.2 2.2.4 2.5 1.1zM206 17.3c3.5 2.8 7.6 3.3 11.9 2.5 2.1-.4 4.1-1 6.2-1.5 2.1-.5 3-1.6 2.8-3.6-.2-2-1.6-3.6-3.5-3.5-2.5.1-5 .5-7.5 1-.6.1-1.5.9-1.5 1.4 0 .6.8 1.2 1.4 1.7.3.3.9.4 1.6.8-.7.4-1.1.7-1.6.9-2.7 1-6.7-.4-8.1-2.9-.5-.9-.7-2.1-.5-3 .6-3.1 4.1-5.5 7.4-5.7 2.7-.1 5.2.5 7.8 1.2 1.2.3 2.4-.5 2.6-1.7.2-1-.8-2.3-1.9-2.3-3-.1-6-.2-9 0-3.4.3-6.4 1.7-8.8 4.3-3.1 3.1-2.8 7.6.7 10.4zM384.8 38.4c.3.8.9 1.6 1.6 2.2 1.1.9 2.3 1.7 3.6 2.3 2.6 1.3 5.2 2.7 8 3.7 1.3.5 2.8.6 4.1.4 3-.3 4.5-3.3 2.9-5.8-.8-1.2-1.9-2.2-3.1-3-2.3-1.6-4.7-3-7-4.6-.9-.6-1.7-1.5-1.1-2.7.6-1.3 1.8-.9 2.8-.8.1 0 .2.1.4.1 3.5 1.1 6.6 2.7 8.9 5.7.9 1.2 2 1.3 2.8.5.9-.9.8-2-.3-3-.2-.2-.4-.4-.6-.5-2.7-1.5-5.2-3.2-8-4.6-1.8-.9-3.8-1.3-4.9-1.7-4.1 0-6.1 1.7-5.7 4.5.2 1.2 1 2.6 1.9 3.3 2.2 1.7 4.6 3 7 4.6.9.6 1.8 1.2 2.5 1.9.4.4.5 1.3.3 1.9-.2.4-1 .8-1.5.8-.9 0-1.9-.1-2.7-.4-3.4-1.3-6.7-2.8-8.7-6.1-.5-.8-1.2-1.2-2.1-.8-.9.3-1.4 1.2-1.1 2.1zM137.7 23.5c2.5.3 3.6 2 4.4 4.1 2.1 5.6 7.6 7.1 12.4 5.7 5.6-1.7 9.8-6.4 7.6-12.7-.7-2.1-.7-3.9 1.2-5.4.4-.3.6-1.3.4-1.5-.4-.4-1.2-.9-1.7-.7-2.4.6-4.8 1.4-7.2 2.3-.6.2-1.3 1.1-1.3 1.7 0 .9.9 1.2 1.8 1.3 1.2.1 2.3.6 2.8 1.7.6 1.3.9 2.7 1.4 4.1-.1 0-.1.1-.2.1-.1.5-.1.9-.2 1.4-1.1 3.8-6.2 6.5-9.9 5.2-2.7-.9-3.8-3.1-4.5-5.5-.5-1.8.1-3.2 1.5-4.4.3-.3.5-1.1.3-1.5-.2-.4-1-.8-1.4-.7-2.6.8-5.2 1.7-7.8 2.7-.4.2-.9.9-.8 1.3.1.2.7.8 1.2.8zM255 16.8c.9-.1 1.8-.3 2.6-.7 1-.5 1.3-1.9.7-2.8-.7-1-1.6-1-2.6-.5-.8.4-1.6.8-2.4.9-3.1.3-6.2.4-9.4.5-1.7.1-2.9-.9-3.1-2.6-.2-1.2-.2-2.5-.3-3.7-.2-2.2.4-3.9 2.5-4.8.4-.2.9-1 .8-1.5-.1-.4-.8-.9-1.4-1.1-1.1-.3-2.2-.3-3.3-.4-1.1.1-2.3.2-3.4.3-1.1.1-2.2.3-2.4 1.5-.2 1.1 1 1.5 1.8 1.9 1.3.6 2 1.7 2 3.2 0 .9-.1 1.8.1 2.7.4 2.2-.1 4-2.4 4.9-.7.3-1.5.9-1 1.8.3.5 1.2 1 1.8 1 1.1.1 2.2-.2 3.3-.2l11.6-.3c1.6.1 3 0 4.5-.1zM304.3 18.3c1.9 1.7 4.1 2.4 6.6 2.4h1.2c.2 0 .3-.1.5-.1 3.9-.8 5.9-3.3 6.7-7 .5-2.6.8-5.1 4-5.9 1.1-.3 1-1.6 0-2.2-.3-.2-.7-.4-1-.5-2.1-.3-4.2-.7-6.3-.8-.6 0-1.6.3-1.9.8-.5.8.4 1.3.9 1.9.6.7 1.4 1.5 1.5 2.4.2 2.3-.3 4.5-1.7 6.4-1 1.3-2.4 1.9-4 2-1.8.1-3.2-.8-4.6-1.6-.8-.4-1.5-.7-2.2.1-.9.8-.3 1.5.3 2.1zM120 46.3c2.3.4 4.4-.4 6.3-1.6 3.6-2.4 4.8-6.5 3.2-10.4-.3-.8-.7-1.6-1.1-2.4-.6-1.5-.6-2.9.5-4.2.5-.6 1.2-1.4.4-2-.5-.4-1.5-.4-2.1-.2-2.1.8-4 1.8-6 2.8-.4.2-.7.5-1 .8-.7.8-.5 1.5.5 1.9.5.2 1.2.1 1.8.2.7.2 1.6.3 2 .8 1.5 1.7 2.3 3.6 2.5 5.8-.1 1.8-.7 3.2-2.1 4.2-1.4 1.1-3.1 1.3-4.8 1.3-.9 0-2.1.3-2.1 1.4 0 1 1 1.4 2 1.6zM329.1 23.2c2.3.7 4.7 1.2 7.3 1.8.5-.3 1.3-.6 1.8-1.2.2-.3-.2-1.3-.6-1.6-1.9-1.3-2.3-2.9-1.8-5 .6-2.8.7-5.7 4.5-6.1.3 0 .9-.6.9-.9 0-.4-.3-1-.7-1.2-.9-.4-2-.8-3-1-1.8-.4-3.7-.7-5.5-.9-.5 0-1.2.4-1.4.8-.1.4.3 1 .6 1.5.2.3.5.4.8.6.9.7 1.4 1.5 1.3 2.6-.2 1.3-.3 2.6-.5 3.9-.3 2-1.1 3.6-3.5 4-.5.1-1.3.8-1.3 1.3-.2.5.5 1.3 1.1 1.4zM384.3 26.2c1-.1 1.5-.7 1.6-2.1-.3-.2-.8-.9-1.3-.9-.9 0-1.6.6-1.6 1.6 0 .9.4 1.5 1.3 1.4zM27.3 45.8c.4.3.8.5 1.3.6.9.2 1.8.3 2.6.4 3.2.6 6.4.5 9.5-.4 2.2-.7 3.6-2.2 3.5-3.7-.1-1.6-1.4-3-3.7-3.4-2.4-.5-4.8-.7-7.2-1.1-1.5-.2-2.4-.9-2.3-1.8.2-1.4 1.3-1.5 2.4-1.8h.5c2.3-.2 4.5.3 6.6 1.1 1.5.6 2.4.3 2.7-.7.3-.9-.5-1.8-1.9-2.2-.2 0-.3-.1-.5-.1-1.6-.1-3.2-.2-5.5-.4-1.6.2-3.9.4-6.1 1-1.5.4-2.6 1.6-2.6 3.3 0 1.7 1.1 2.7 2.6 3.3.3.1.6.2.8.3 1.9.3 3.9.5 5.8.8.9.1 1.8.1 2.6.5.5.2 1.2.9 1.2 1.4 0 .6-.6 1.3-1.1 1.6-.5.3-1.2.4-1.8.4-2.8 0-5.7 0-8.2-1.5-.7-.4-1.5-.3-2 .5-.3.8.2 1.5.8 1.9zM3.5 46.7c.5.1.9.2 1.4.1 4.2-.7 8.4-.5 12.7-.2.7.1 1.5 0 2.1-.3.9-.3 1.8-.8 1.4-1.9-.4-1.1-1.3-1-2.3-.7-1.8.5-3.7.8-5.4 1.2-1.7-.2-3.1-.3-4.5-.6-.8-.2-1.4-.9-1.1-1.7.2-.6.8-1.2 1.3-1.6.4-.3 1-.2 1.5-.3 1.2-.1 2.3-.1 3.5-.3.3-.1.6-.6.9-.9-.3-.3-.6-.7-1-.8-.5-.1-1.1 0-1.7 0-1-.1-2.1-.1-3-.4-.6-.2-1.1-.9-1.3-1.5-.3-.9.4-1.5 1.2-1.7.7-.2 1.4-.4 2.1-.3 2.6.3 5.3 0 7.9 1 .2.1.5.1.6 0 .4-.2.9-.3 1.1-.7.2-.3 0-.9-.2-1.2-.3-.4-.9-.8-1.4-.9-1.6-.2-3.2-.2-4.7-.2s-3 .2-4.5.1C8 33 6 32.8 4 32.8c-.6 0-1.5.4-1.7.9-.2.4.1 1.3.4 1.8 1.8 2.5 1.8 6.5-.1 8.8-.9 1.2-.6 2.1.9 2.4zM72.1 45.7c.2.5 1 .8 1.6 1 .4.2.9.1 1.4 0 2.5-.1 5.1-.4 7.6-.2 2.4.1 4.5-.3 6.5-1.6 1.8-1.2 3-2.7 3.2-5 .3-2.9-2.8-6.1-5.8-6.4-3.4-.3-6.8-.6-10.2-.8-1-.1-2 0-2.9.2-1.3.3-1.6 1.3-.7 2.3 1.2 1.3 1.5 2.7 1.4 4.4.2 1.6-.2 3.1-1.3 4.4-.5.5-.9 1.3-.8 1.7zm4.8-6.4c0-.6.1-1.2.3-1.8.3-1.3 1-2.3 2.5-2.5 2.8-.4 5.6-.7 7.9 1.3 2.4 2.1 2.2 5-.5 6.7-1.7 1.1-3.6 1.4-5.3 1.3h-.4c-4.3.3-4.7-1.6-4.5-5zM50.2 35.7c.6 0 1.3-.3 2-.5 2.7-.7 4.9.5 5 2.8.1 2.3.3 4.6-1.5 6.5-.7.8-.4 1.8.7 1.9 1.5.1 3.1.1 4.5-.2 1.1-.2 1.2-1 .5-2-.8-1.1-1.2-2.3-1.1-3.7.1-.8 0-1.5 0-2.3 0-2.6 1.8-3.9 4.3-3.2.8.2 1.5.6 2.3.7.5 0 1.4-.2 1.6-.6.2-.4-.2-1.3-.5-1.6-.6-.4-1.4-.6-2.2-.6-3.3-.1-6.7 0-10 0v-.1c-1.3 0-2.7-.1-4 0-.9.1-1.8.4-2.6.8-.3.2-.6 1.1-.5 1.4.3.3.9.7 1.5.7zM525.5 321.9c-.3-.1-.6-.2-.9-.2H506c-.4 0-.7 0-1.1-.1-.6-.1-.8-.6-.6-1.2.1-.3.3-.7.5-1 1.7-2.7 3.4-5.3 5.1-8 .5-.8 1.2-1.3 2.2-1.3 1.4-.1 2.8-.1 4.2-.2.6 0 1.2-.2 1.5-.9.2-.5.2-1-.1-1.5-.4-.5-1-.7-1.6-.7-12.2 0-24.5-.1-36.7-.1-1.1 0-2.1.1-3.2.1-12.6 0-25.3.1-37.9.1-.6 0-1.2-.1-1.8-.1H411c-13.7 0-27.4.1-41.1.1-1.5 0-3-.1-4.4-.1h-22.8c-.2 0-.4 0-.5.1-1.1.2-1.8 1.1-2.4 2-2.4 3.7-4.8 7.5-7.2 11.2-.5.8-1.1 1.3-2 1.4-.5.1-1 .1-1.5.1h-15.2c-.4 0-.8.1-1.2.3-.5.2-.7.7-.7 1.3 0 .5.2 1 .7 1.2.4.2.8.3 1.3.3h15.4c1.5 0 2.6.6 3.5 2 2.3 3.8 4.8 7.4 7.1 11.2.8 1.2 1.8 1.8 3.2 1.8h15.3c8.8 0 17.7-.1 26.5-.1.9 0 1.7.1 2.6.1H406.3c26.6 0 53.1-.1 79.7-.1.8 0 1.7.1 2.5.1h27.8c.4 0 .7-.1 1.1-.3.5-.2.8-.7.7-1.3 0-.6-.3-1-.8-1.2-.4-.2-.9-.3-1.3-.3h-2.9c-1.4 0-2.5-.5-3.3-1.9-1.2-2-2.4-3.8-3.6-5.7-.5-.8-1.1-1.7-1.6-2.6-.4-.7-.1-1.3.7-1.4.4-.1.8-.1 1.2-.1h18.2c.4 0 .8-.1 1.2-.3.6-.3.8-.8.8-1.5-.3-.6-.7-1-1.2-1.2zM445.7 310H471.1c1.2.1 1.5.8.8 1.9-1.1 1.8-2.3 3.6-3.4 5.4-.5.8-1.1 1.6-1.6 2.5-.8 1.4-2 1.9-3.4 2h-25.3c-.2 0-.3-.1-.5-.1-.9-.2-1.2-.7-.8-1.6.3-.6.7-1.2 1.1-1.8 1.4-2.1 2.8-4.2 4.1-6.4 1.1-1.4 2.2-1.9 3.6-1.9zm-33.5 0h24.6c.4 0 .7 0 1.1.1.6.1.9.6.7 1.2-.1.3-.2.5-.4.8-1.6 2.6-3.3 5.1-4.9 7.7-.9 1.4-2.1 1.9-3.5 1.9h-24.5c-.4 0-.7 0-1.1-.1-.6-.1-.9-.7-.7-1.3.1-.3.3-.7.5-1 1.6-2.5 3.3-5.1 4.9-7.6.7-1.3 1.9-1.7 3.3-1.7zm-33.2-.1c1.1.1 2.2 0 3.3 0 .6 0 1.2.1 1.8.1h19c.4 0 .8 0 1.2.1.8.1 1.1.7.7 1.4-.3.7-.7 1.3-1.1 1.9-1.4 2.2-2.8 4.3-4.2 6.5-.8 1.2-1.8 1.8-3.2 1.8h-24.8c-.4 0-.7 0-1.1-.1-.7-.1-1-.7-.7-1.4l1.2-2.1c1.4-2.1 2.7-4.2 4.1-6.3.9-1.5 2.2-2 3.8-1.9zm-42.8 10.3c.6-1.1 1.3-2.2 2-3.3 1-1.6 2.1-3.2 3.1-4.8.9-1.5 2.2-2.2 3.8-2.1 2.5 0 5 .1 7.5.1h16.9c.4 0 .7 0 1.1.1.9.1 1.2.7.7 1.5-.5.9-1 1.7-1.5 2.5-1.2 1.9-2.4 3.7-3.6 5.6-.9 1.5-2.1 2-3.6 2h-24.4c-.4 0-.8 0-1.2-.1-.9-.2-1.2-.8-.8-1.5zm33.9 16.4h-2.7c-1.9 0-3.7.1-5.6.1-2.5 0-5-.1-7.5-.1h-5c-1 0-2 .1-3.1.1-.8 0-1.7-.1-2.5-.3-.9-.1-1.6-.8-2.1-1.6-1.7-2.7-3.4-5.3-5.1-8l-.3-.6c-.3-.6 0-1.2.6-1.3.4-.1.8-.1 1.2-.1h22.2c1.1 0 2.3 0 3.4.1.9.1 1.6.5 2.1 1.3 1.8 2.8 3.6 5.6 5.4 8.3.6 1.1.6 2-1 2.1zm34.9-.6c-.3.6-.9.6-1.4.6h-9.7c-.9 0-1.8.1-2.6.1-4.2 0-8.4-.1-12.6-.1-1.5 0-2.7-.6-3.5-2-1.5-2.6-3.2-5-4.8-7.6-.1-.2-.3-.5-.4-.7-.3-.7 0-1.3.7-1.4.4-.1.8-.1 1.2-.1h24.6c1.4 0 2.6.5 3.3 1.9.2.4.5.8.8 1.2l4.2 6.6c.1.5.5.9.2 1.5zm33.6 0c-.3.6-1 .6-1.5.6h-24.7c-.5 0-1 0-1.5-.1-.9-.2-1.5-.7-2-1.4-1.7-2.6-3.4-5.3-5.1-7.9-.2-.2-.3-.5-.4-.7-.3-.7 0-1.3.7-1.4.4-.1.8-.1 1.2-.1h24.5c1.5 0 2.6.6 3.5 1.9 1.6 2.6 3.2 5.1 4.8 7.6.4.4.8.9.5 1.5zm32.9.5c-.4.1-.8.1-1.2.1h-7.1c-.8 0-1.6.1-2.4.1-3.4 0-6.7-.1-10.1-.1-1.1 0-2.2.1-3.3.1-.9 0-1.8-.1-2.7-.2-1.1-.2-1.9-1-2.5-2l-4.8-7.5c-.3-.5-.7-1-.4-1.6.3-.6.9-.6 1.5-.6h21.8c1.3 0 2.7 0 4 .1 1.2.1 2 .7 2.7 1.7 1.7 2.7 3.4 5.3 5.1 8 .1.1.2.3.2.4.2.8-.1 1.4-.8 1.5zm34-2c.3.5.7.9.4 1.5-.3.6-.9.6-1.5.6h-9.6c-1.3 0-2.5.1-3.8.1-1.3 0-2.5-.1-3.8-.1-.9 0-1.8.1-2.6.1-1.1 0-2.1-.1-3.2-.1-1 0-2 0-2.9-.1-1-.1-1.8-.7-2.3-1.6-1.6-2.6-3.3-5.1-4.9-7.7-.2-.3-.3-.6-.5-.9-.2-.6 0-1.1.6-1.3.3-.1.6-.1.9-.1v.1H497c.5 0 1 0 1.5.1.9.2 1.5.7 2 1.4 1.6 2.6 3.3 5.3 5 8zm-4.9-14.7c-.8 1.4-2 1.9-3.5 1.9H472.4c-.3 0-.6 0-1-.1-.9-.2-1.1-.7-.7-1.5.5-.9 1-1.7 1.6-2.5 1.3-2 2.6-4 3.8-6 .7-1.1 1.7-1.6 2.9-1.6 2.1-.1 4.1-.1 6.2-.1 2.7 0 5.5.1 8.2.1h10.5c.4 0 .8 0 1.2.1.7.1 1.1.7.7 1.4-.4.9-1 1.7-1.5 2.5-1.2 1.9-2.5 3.8-3.7 5.8zM216.3 322c-.4-.2-.8-.3-1.3-.3h-15.4c-1.5 0-2.6-.6-3.5-2-2.3-3.8-4.8-7.4-7.1-11.2-.8-1.2-1.8-1.8-3.2-1.8h-15.3c-8.8 0-17.7.1-26.5.1-.9 0-1.7-.1-2.6-.1H122.7c-26.6 0-53.1.1-79.7.1-.8 0-1.7-.1-2.5-.1H12.7c-.4 0-.7.1-1.1.3-.5.2-.8.7-.7 1.3 0 .6.3 1 .8 1.2.4.2.9.3 1.3.3h2.9c1.4 0 2.5.5 3.3 1.9 1.2 2 2.4 3.8 3.6 5.7.5.8 1.1 1.7 1.6 2.6.4.7.1 1.3-.7 1.4-.4.1-.8.1-1.2.1H4.3c-.4 0-.8.1-1.2.3-.6.3-.8.8-.8 1.5.1.6.4 1 .9 1.2.3.1.6.2.9.2h18.6c.4 0 .7 0 1.1.1.6.1.8.6.6 1.2-.1.3-.3.7-.5 1-1.7 2.7-3.4 5.3-5.1 8-.5.8-1.2 1.3-2.2 1.3-1.4.1-2.8.1-4.2.2-.6 0-1.2.2-1.5.9-.2.5-.2 1 .1 1.5.4.5 1 .7 1.6.7 12.2 0 24.5.1 36.7.1 1.1 0 2.1-.1 3.2-.1 12.6 0 25.3-.1 37.9-.1.6 0 1.2.1 1.8.1h25.5c13.7 0 27.4-.1 41.1-.1 1.5 0 3 .1 4.4.1H186c.2 0 .4 0 .5-.1 1.1-.2 1.8-1.1 2.4-2 2.4-3.7 4.8-7.5 7.2-11.2.5-.8 1.1-1.3 2-1.4.5-.1 1-.1 1.5-.1h15.2c.4 0 .8-.1 1.2-.3.5-.2.7-.7.7-1.3.3-.5.1-1-.4-1.2zm-92.5-11.5c.3-.6.9-.6 1.4-.6h9.7c.9 0 1.8-.1 2.6-.1 4.2 0 8.4.1 12.6.1 1.5 0 2.7.6 3.5 2 1.5 2.6 3.2 5 4.8 7.6.1.2.3.5.4.7.3.7 0 1.3-.7 1.4-.4.1-.8.1-1.2.1h-24.6c-1.4 0-2.6-.5-3.3-1.9-.2-.4-.5-.8-.8-1.2L124 312c-.1-.4-.5-.9-.2-1.5zm-33.6 0c.3-.6 1-.6 1.5-.6h24.7c.5 0 1 0 1.5.1.9.2 1.5.7 2 1.4 1.7 2.6 3.4 5.3 5.1 7.9.2.2.3.5.4.7.3.7 0 1.3-.7 1.4-.4.1-.8.1-1.2.1H99c-1.5 0-2.6-.6-3.5-1.9-1.6-2.6-3.2-5.1-4.8-7.6-.4-.4-.8-.8-.5-1.5zm-33-.5c.4-.1.8-.1 1.2-.1h7.1c.8 0 1.6-.1 2.4-.1 3.4 0 6.7.1 10.1.1 1.1 0 2.2-.1 3.3-.1.9 0 1.8.1 2.7.2 1.1.2 1.9 1 2.5 2l4.8 7.5c.3.5.7 1 .4 1.6-.3.6-.9.6-1.5.6H68.4c-1.3 0-2.7 0-4-.1-1.2-.1-2-.7-2.7-1.7-1.7-2.7-3.4-5.3-5.1-8-.1-.1-.2-.3-.2-.4-.2-.7.1-1.4.8-1.5zm-33.9 2c-.3-.5-.7-.9-.4-1.5.3-.6.9-.6 1.5-.6H34c1.3 0 2.5-.1 3.8-.1 1.3 0 2.5.1 3.8.1.9 0 1.8-.1 2.6-.1 1.1 0 2.1.1 3.2.1 1 0 2 0 2.9.1 1 .1 1.8.7 2.3 1.6 1.6 2.6 3.3 5.1 4.9 7.7.2.3.3.6.5.9.2.6 0 1.1-.6 1.3-.3.1-.6.1-.9.1v-.1H31.8c-.5 0-1 0-1.5-.1-.9-.2-1.5-.7-2-1.4-1.6-2.6-3.3-5.3-5-8zm29.3 22.9c-.7 1.1-1.7 1.6-2.9 1.6-2.1.1-4.1.1-6.2.1-2.7 0-5.5-.1-8.2-.1H24.8c-.4 0-.8 0-1.2-.1-.7-.1-1.1-.7-.7-1.4.4-.9 1-1.7 1.5-2.5 1.2-2 2.6-3.9 3.7-5.9.8-1.4 2-1.9 3.5-1.9H56.3c.3 0 .6 0 1 .1.9.2 1.1.7.7 1.5-.5.9-1 1.7-1.6 2.5-1.2 2.1-2.6 4.1-3.8 6.1zm30.4 1.6H57.6c-1.2-.1-1.5-.8-.8-1.9 1.1-1.8 2.3-3.6 3.4-5.4.5-.8 1.1-1.6 1.6-2.5.8-1.4 2-1.9 3.4-2h25.3c.2 0 .3.1.5.1.9.2 1.2.7.8 1.6-.3.6-.7 1.2-1.1 1.8-1.4 2.1-2.8 4.2-4.1 6.4-1 1.5-2.2 1.9-3.6 1.9zm33.5 0H91.9c-.4 0-.7 0-1.1-.1-.6-.1-.9-.6-.7-1.2.1-.3.2-.5.4-.8 1.6-2.6 3.3-5.1 4.9-7.7.9-1.4 2.1-1.9 3.5-1.9h24.5c.4 0 .7 0 1.1.1.6.1.9.7.7 1.3-.1.3-.3.7-.5 1-1.6 2.5-3.3 5.1-4.9 7.6-.7 1.3-1.9 1.7-3.3 1.7zm33.2.1c-1.1-.1-2.2 0-3.3 0-.6 0-1.2-.1-1.8-.1h-19c-.4 0-.8 0-1.2-.1-.8-.1-1.1-.7-.7-1.4.3-.7.7-1.3 1.1-1.9 1.4-2.2 2.8-4.3 4.2-6.5.8-1.2 1.8-1.8 3.2-1.8H157c.4 0 .7 0 1.1.1.7.1 1 .7.7 1.4l-1.2 2.1c-1.4 2.1-2.7 4.2-4.1 6.3-.8 1.5-2.2 2-3.8 1.9zm42.8-10.3c-.6 1.1-1.3 2.2-2 3.3-1 1.6-2.1 3.2-3.1 4.8-.9 1.5-2.2 2.2-3.8 2.1-2.5 0-5-.1-7.5-.1h-16.9c-.4 0-.7 0-1.1-.1-.9-.1-1.2-.7-.7-1.5.5-.9 1-1.7 1.5-2.5 1.2-1.9 2.4-3.7 3.6-5.6.9-1.5 2.1-2 3.6-2h24.4c.4 0 .8 0 1.2.1.9.2 1.2.8.8 1.5zm-.5-4.8c-.4.1-.8.1-1.2.1h-22.2c-1.1 0-2.3 0-3.4-.1-.9-.1-1.6-.5-2.1-1.3-1.8-2.8-3.6-5.6-5.4-8.3-.6-1-.7-1.9 1-2h2.7c1.9 0 3.7-.1 5.6-.1 2.5 0 5 .1 7.5.1h5c1 0 2-.1 3.1-.1.8 0 1.7.1 2.5.3.9.1 1.6.8 2.1 1.6 1.7 2.7 3.4 5.3 5.1 8l.3.6c.3.6 0 1.1-.6 1.2z"/></svg>