<svg id="Layer_1" xmlns="http://www.w3.org/2000/svg" viewBox="0 0 557.8 418.5"><style>.st0{fill:#BE2F26;} .st1{fill:#3A7458;} .st2{fill:#FFFFFF;}</style><path class="st0" d="M226.8 397.8c-5.2.3-10.4.6-15.6 1-4.1.4-7.3 2.5-9.5 5.9-.3.5-.7 1-.8 1.5-3 9.1-9.8 12.1-18.7 11.9-3.3-.1-6.6.1-10 0-6.6-.2-9.7-4.5-7.5-10.6 3.7-10.4 7.7-20.6 11.6-30.9 8.3-22.2 16.7-44.4 25-66.6.5-1.2 1-2.4 1.5-3.7 2.5-6.8 7.8-9.9 14.7-10 6.8-.2 13.7 0 20.5.6 4.7.4 8.2 3.4 10.1 7.8 3 7.1 5.8 14.3 8.5 21.5 10.1 26.6 20.1 53.1 30.2 79.7.3.9.6 1.8.8 2.7 1.4 4.7-1 8.6-5.8 8.8-6.7.3-13.5.3-20.2 0-3.5-.2-6.5-2.1-8.4-5.2-1.4-2.2-2.6-4.6-3.8-6.9-2.5-4.8-6.7-6.8-11.8-7.1-3.6-.2-7.2 0-10.8 0v-.4zm8.9-36.4c0-5.9-1.6-11.5-4.4-16.7-2.9-5.4-8.7-5.4-11.4.1-2.9 6-4.8 12.3-4.1 19.1.2 2 1.3 4.4 2.8 5.6 3.9 3 8.4 3 12.8 1.1 3.9-1.9 4.4-5.5 4.3-9.2zM496.6 397.8c-5.2.3-10.4.6-15.6 1-4.1.4-7.3 2.5-9.5 5.9-.3.5-.7 1-.8 1.5-3 9.1-9.8 12.1-18.7 11.9-3.3-.1-6.6.1-10 0-6.6-.2-9.7-4.5-7.5-10.6 3.7-10.4 7.7-20.6 11.6-30.9 8.3-22.2 16.7-44.4 25-66.6.5-1.2 1-2.4 1.5-3.7 2.5-6.8 7.8-9.9 14.7-10 6.8-.2 13.7 0 20.5.6 4.7.4 8.2 3.4 10.1 7.8 3 7.1 5.8 14.3 8.5 21.5 10.1 26.6 20.1 53.1 30.2 79.7.3.9.6 1.8.8 2.7 1.4 4.7-1 8.6-5.8 8.8-6.7.3-13.5.3-20.2 0-3.5-.2-6.5-2.1-8.4-5.2-1.4-2.2-2.6-4.6-3.8-6.9-2.5-4.8-6.7-6.8-11.8-7.1-3.6-.2-7.2 0-10.8 0v-.4zm8.9-36.4c0-5.9-1.6-11.5-4.4-16.7-2.9-5.4-8.7-5.4-11.4.1-2.9 6-4.8 12.3-4.1 19.1.2 2 1.3 4.4 2.8 5.6 3.9 3 8.4 3 12.8 1.1 4-1.9 4.4-5.5 4.3-9.2zM114.6 370.8c0-11.1.1-22.2 0-33.3 0-7-3.9-11-10.8-11.1-4.9-.1-9.9.2-14.8-.1-6.5-.3-9.1-2.4-10.1-8.1-.7-4.4-.7-9.1-.1-13.5.7-4.8 5.5-8.3 10.7-8.5 3.6-.2 5.2 0 8.8 0 10-.1 19.9-.4 29.9-.3 14.2 0 28.4.2 42.7.4 3.9 0 5.8-.2 9.5.6 4.8.9 7.2 4.3 7.4 9.1.2 3.4.1 6.8 0 10.2-.1 4.6-2.6 7.8-6.9 9-3.6 1-5.4 1.1-9.1 1.4-2.2.2-4.4-.1-6.5-.1-8.4 0-12.9 4-13 12.3-.1 20.1.1 40.2 0 60.3 0 3.8-.6 7.7-1.3 11.5-.6 3.3-3.1 5.4-6.3 6.3-7.4 2.1-15 1.7-22.5.2-4.7-.9-7-3.9-7-8.7-.1-12.5 0-25 0-37.6h-.6zM291.8 356.5c.3-16.8.5-33.6.9-50.3.1-4.8 2.3-8 7-8.6 6.6-.8 13.4-1.3 20-.8 7.1.6 10.3 5.4 10.5 13.8.2 11.8-.4 23.7-.5 35.5-.1 9.7 0 19.4.1 29 0 1.9.6 3.9 1 5.8 1.1 4.5 4.3 6.9 8.5 7 8.8.4 17.6.3 26.4.4 4.5.1 8.9 0 13.4.3 5.4.4 9.2 4.2 9.7 10.1.3 4.1-.3 8.3-1.2 12.3-.9 4-4.3 5.8-8.2 6.5-1.9.4-4 .6-5.9.6-23.3-.1-46.7-.2-70-.5-6.4-.1-10.6-4.3-10.7-10.5-.3-14-.3-28.1-.4-42.1v-8.5h-.6zM74.4 357.3V402c0 2.6.1 5.2-.5 7.6-1.6 6.4-5.6 8.1-11.8 8.5-5.1.3-10.2-.1-15.3-.5-4.8-.4-8.6-4.4-9-9.4-.2-2.6-.4-5.3-.4-8v-73.4c0-6.4-.3-12.9-.2-19.3.1-6.5 4-10.3 10.6-10.5 5.9-.2 11.9-.3 17.9.1 4.9.3 8.5 4.4 8.5 9.3.1 17 0 34 0 50.9h.2zM430.5 357.6v44.7c0 2.6.1 5.2-.5 7.6-1.6 6.4-5.6 8.1-11.8 8.5-5.1.3-10.2-.1-15.3-.5-4.8-.4-8.6-4.4-9-9.4-.2-2.6-.4-5.3-.4-8v-73.4c0-6.4-.3-12.9-.2-19.3.1-6.5 4-10.3 10.6-10.5 5.9-.2 11.9-.3 17.9.1 4.9.3 8.5 4.4 8.5 9.3.1 17 0 34 0 50.9h.2z"/><g><path class="st1" d="M441.1 45.3h-9.4c-1.6 0-2.4-.8-2.7-2.1-.5-2.3-1-4.6-1.6-6.9-.2-.8-.8-1.4-1.2-2.1-.7.5-1.6.8-2.1 1.5-1.7 2.4-3.2 4.9-4.8 7.3-1.1 1.8-1.9 1.8-3 0-1.6-2.6-3.2-5.2-4.7-7.9-.2-.3-.3-.7-.6-.9-.5-.4-1.1-1-1.5-.9-.5.2-1.1.9-1.3 1.4-.7 2.5-1.3 5-2 7.5-.8 3.1-1.2 3.4-4.3 3.4h-8.8c-1.7 0-2.3-.8-1.9-2.4 1.6-6.4 3.2-12.9 4.7-19.3 1.3-5.1 2.6-10.2 3.8-15.3.4-1.9 1.4-2.5 3.1-2.6 2.3-.1 4.6-.1 6.8-.1 1.4 0 2.1 1 2.7 2.2 1.7 3.9 3.4 7.7 5.1 11.6.1.2.2.5.3.7.9 1.8 2.2 1.9 3.3.2 1.1-1.8 2.1-3.8 3.1-5.7 1.1-2.2 2.2-4.5 3.3-6.7.6-1.3 1.7-2.1 3.1-2.1 2-.1 4-.2 5.9 0 2.3.2 2.8.9 3.1 3.3.9 7.4 1.8 14.8 2.9 22.2.6 3.7 1.7 7.3 2.5 10.9.6 2.6.2 3.2-2.5 3.2H441c.1-.2.1-.3.1-.4zM157.8 45.6c-1.6 0-3.2.1-4.8 0-2.4-.1-3-1.1-2.8-3.4.4-3.1.8-6.2.9-9.3.2-4.8.2-9.6 0-14.5-.1-2.9-.5-5.8-.9-8.7-.4-2.7.4-3.8 3.2-3.8 2.2 0 4.4 0 6.5.4 1.2.2 2.4.9 3.3 1.7 3.6 3.2 7 6.6 10.5 9.8.5.5 1.5 1 2 .9.5-.1 1-1.2 1-1.9.1-2 0-4 0-6V9.2c.2-2.7 1-3.2 3.7-3.1 3.1.1 6.2-.1 9.3-.1 2.6 0 3.1.5 3.1 3.1-.1 5.5-.3 11.1-.3 16.6 0 5.2.2 10.4.3 15.7 0 .5.2.9.2 1.4.3 1.6-.4 2.6-2.1 2.7-2.3.1-4.7.2-7 0-1.1-.1-2.3-.7-3-1.5-4.4-4.4-8.6-8.9-12.9-13.3-.5-.5-1.4-1.1-2-.9-.5.1-1.1 1.2-1.1 1.8-.1 3.7-.1 7.4-.1 11.1 0 2.7-.4 3.1-3.2 3.1-1.2-.2-2.5-.2-3.8-.2zM143.5 15.7c0 3.2-.1 6.4 0 9.6.1 5.8.3 11.6.5 17.4.1 1.8-.8 2.9-2.5 2.9l-9.9-.3c-1.2 0-1.9-.6-2.4-1.6-.8-1.7-1.7-1.9-2.7-.5-1.9 2.8-4.6 2.8-7.4 2.3-4-.7-8-1.5-11.9-2.6-3.8-1.1-3.8-2.3-3.4-5.8.5-4.9 1-9.7 1.1-14.6.1-4.8-.4-9.6-.6-14.4-.1-1.5.7-2.3 2.2-2.3h10.2c2.5 0 3.4.8 3.4 3.3-.1 4.1-.1 8.2-.4 12.3-.2 2.6-.8 5.1-1.3 7.6-.3 1.4.1 2.4 1.2 3.1 1.9 1.3 4 1.9 6.3 1.8 1.5-.1 2.2-.7 2.2-2.3 0-1.8-.3-3.6-.3-5.4l.3-17.9c0-1.6.9-2.5 2.3-2.5 3.8-.1 7.6-.1 11.4-.1 1.3 0 2.1.8 2.1 2.3-.1 2.5 0 5 0 7.5-.2.2-.3.2-.4.2zM222.6 45.7c-2.2-.1-4.3-.3-6.5-.4-2.6-.2-5-1.1-6.8-2.9-2.6-2.6-5.5-5.1-7.6-8.2-4.3-6.5-3.3-9.4.9-15.3 5.2-7.4 12.7-11.4 21.2-14.1 1.2-.4 2 .3 2.6 1.1 1.6 2.3 3.2 4.6 4.7 7 1 1.6.7 2.2-1 3.1-3.5 1.7-6.9 3.4-10.3 5.2-1.1.6-2 1.5-2.9 2.4-2 2-1.5 5 1.1 6.8l1.5.9c3 1.7 4.3 1.1 4.5-2.4.1-1.8 0-3.5 0-5.3 0-1.7.6-2.4 2.2-2 3.6 1 7.2 2 10.7 3.2 1.5.5 1.9 1.9 1.5 4.1-.8 4.6-.6 9.3.2 13.9.2 1.4-.4 2.4-1.8 2.4h-14c-.2.2-.2.4-.2.5zM297.9 45.3h-8.8c-1.3 0-2.6.1-3.8.2-2.3.2-3.9 0-3.7-3.2.2-4.1 0-8.2.1-12.3 0-3.9.2-7.7.3-11.6 0-3.3-.2-6.6-.3-9.9 0-2.2.5-2.7 2.7-2.7h22.3c1.3 0 2.2.6 2.5 1.8.6 2.1 1.2 4.3 1.6 6.4.4 1.8-.4 2.3-2.3 2.2-3-.1-5.9-.2-8.9-.1-1.4 0-2 1.1-1.9 2.4.1 1.4 1 2 2.3 2h8.9c1.4 0 1.9.5 1.6 1.9-.5 2.1-.9 4.2-1.4 6.3-.4 1.5-1.5 2.1-3 2.1H300c-1.2 0-2.1.3-2.4 1.6-.3 1.7.2 2.7 1.8 3 1.5.3 3 .2 4.5.1 1.6 0 3.3-.2 4.9-.3 1.2-.1 1.8.6 1.6 1.6-.4 2.3-.8 4.7-1.5 6.9-.2.6-1.2 1.3-1.9 1.3-3 .4-6.1.3-9.1.3zM265.3 31.6c2.5-.3 4.9-.6 7.4-.8 1.9-.2 2.7.7 2.4 2.5-.6 3.4-1.3 6.7-1.9 10.1-.3 1.4-1.2 2.2-2.7 2.2-1.6 0-3.2.1-4.8 0-6.3-.1-12.6-.2-18.8-.3-1.4 0-2-.8-1.9-2.1.2-5.8.6-11.5.6-17.3 0-5.5-.4-11-.6-16.4-.1-3.1 0-3.2 3.1-3.3l10.7-.3c2 0 2.8.8 2.8 2.8-.1 3.8-.1 7.7-.2 11.5-.1 2.7-.2 5.3-.3 8-.1 2.9.4 3.3 3.3 3.3h1c-.1 0-.1.1-.1.1zM348.1 45.3h-8.5c-2.2 0-3-.6-3.6-2.8-.9-3.2-1.8-6.4-2.6-9.6-.4-1.6.1-2.2 1.7-2 1.9.2 3.8.6 5.7.8 1.8.2 3.6.1 4.9-1.4 1.4-1.6 1.3-3.5 1.1-5.4 0-.3-.2-.6-.2-.9-.4-5.1-.7-10.3-1.1-15.4-.1-2.1.6-2.8 2.7-2.7 3.6.1 7.1.2 10.7.2 2.7 0 3 .3 3 3v14.2c0 3.3-.1 6.7 0 10 .1 3-1.6 5.2-3.1 7.5-1 1.4-2.4 2.6-3.7 3.7-2 1.7-4.6.9-7 .8zM89.9 5.9c1.3 0 2.6.1 3.8 0 2.3-.3 3.7 1.4 3.5 4-.2 2.2-.3 4.4-.4 6.5 0 5.2-.2 10.3.1 15.5.2 3.8-1.5 6.7-3.6 9.5-2.9 4-7 4.6-11.5 4.2-2.7-.2-5.3-.5-8-.6-1.6 0-2.5-.8-2.9-2.2-.9-3.2-1.7-6.4-2.5-9.6-.6-2.2 0-2.7 2.3-2.4 2.4.4 4.8.8 7.2.7 2.4-.1 3.9-1.8 3.8-4.2-.1-4.3-.5-8.7-.7-13-.1-2-.3-4-.5-6-.1-1.4.5-2.1 1.9-2.1 2.6-.2 5.1-.3 7.5-.5v.2zM489.5 34.4c-.3 4.9-3.4 7.7-7 10.2-3.3 2.3-6.5 2.8-10 .1-1.7-1.3-3.8-2.1-5.7-3.2-.5-.3-1-.8-1.1-1.2 0-.4.6-.9 1.1-1.2 4.8-2.5 5.8-7.7 2.4-11.9-1.1-1.4-2.2-2.7-3.2-4.2-2.8-4.2-2.3-8.1 1.1-11.8 2.2-2.3 4.8-4 7.8-5.1.9-.3 2.2-.2 3 .2 2.5 1.3 4.9 2.9 7.4 4.3 1.5.9 1.6 1.7.3 2.9-1.4 1.3-2.7 2.5-3.1 4.6-.4 2.1.2 3.8 1.4 5.5 1.3 1.9 2.8 3.8 3.8 5.8.9 1.6 1.2 3.3 1.8 5zM384.1 12.3v17.1c0 4.5.2 8.9.3 13.4 0 2.2-.7 2.8-2.9 2.8H371c-2 0-2.7-.7-2.6-2.7.1-3.8.3-7.5.3-11.3 0-4.6-.2-9.2-.3-13.9V8.1c0-1.3.5-2 1.9-2l11-.3c2.6 0 3.2.6 3.2 3.2v3.2c-.2.1-.3.1-.4.1zM457.3 0c1.5.1 3.1.3 4.6.4 1.3.1 1.6.8 1.6 2-.1 4.5-3 7.1-6.4 9.2-1.9 1.1-4 1.9-6 2.7-.6.2-1.6.3-2 0-.4-.2-.4-1.3-.3-1.9.9-3.5 1.9-7 2.9-10.5.4-1.2 1.2-1.9 2.6-1.9.9.1 2 .1 3 0 0 .1 0 0 0 0z"/><g><path class="st1" d="M515.5 191.9h-31c-4.1 0-8.2.5-12.3.4-10.5-.1-12.2-5.8-11.7-14.1.3-5.3.1-10.6.1-15.9 0-2.7-.2-5.5-.1-8.2.1-10.3.4-20.7.5-31 .1-14.8 0-29.5 0-44.3 0-5.5 3.6-9 9-9.2 4.2-.1 8.4 0 12.5-.1 2.3 0 4.5-.5 6.7-.4 3.6.1 7.2.6 10.8.7 2.1.1 4.2-.3 6.3-.3 6.5-.1 13-.1 19.6-.1h20.4c6.3.1 9.7 3.4 9.7 9.7 0 3.8.1 7.6-.5 11.3-.8 4.5-3.8 6.6-8.4 6.7-12.4 0-24.7 0-37.1.1-2 0-4.1 0-6 .5-3.5.9-5.1 2-5.3 5.3-.1 2.1-.2 4.4.4 6.4 1.2 3.8 4.6 4.1 7.9 4.1 10.8.2 21.6.3 32.5.5 1.5 0 3.1-.1 4.6.2 3.8.9 6.6 3 7.2 7.1.5 3.6 1.2 7.3.8 10.8-.7 5.9-3.8 8.8-11.6 9-10.6.3-21.3-.2-32-.3-1.8 0-3.5.2-5.3.5-2.5.4-4.7 2.7-4.8 5.4-.2 3.2-.2 6.4 0 9.6.2 3 2.6 5.4 5.5 5.8 1.9.3 3.8.5 5.8.5 12.9.1 25.9 0 38.8.1 5.5 0 9 2.7 9.4 8.2.3 4.8-.1 9.7-.9 14.4-.7 4.3-3.9 6.4-8.3 6.5-11.2.1-22.2.1-33.2.1zM163.6 69c4 .2 8.1.2 12.1.6 6.6.6 9.7 5.1 11.7 10.8 5.7 16.4 11.5 32.8 17.2 49.1 6.1 17.4 12.1 34.7 18.3 52 2.8 7.6-2.4 10.3-7.6 10.3-6.6.1-13.2-.1-19.8-.5-3.4-.2-6.1-2-7.7-5-1.1-2.1-2-4.3-2.9-6.6-2-5.2-4.3-7-9.8-7.2-7.2-.2-14.4-.4-21.5-.5-7.1-.1-9.4 1.7-11.6 8.4-.1.2-.1.5-.2.7-2.2 7.5-5.1 11.2-14.5 10.8-5.2-.2-10.5 0-15.8-.1-4.7 0-8.6-3-6.6-8.7 3.7-10.8 7.5-21.7 11.2-32.5 8.1-23.1 16.1-46.3 24.2-69.4 1.7-4.9 3.7-9.7 9.4-11.3 2.1-.6 4.4-.7 6.6-.9 2.4-.1 4.8 0 7.3 0 0 .1 0 0 0 0zm0 74.3c7.2.1 9.2-2 8.1-9.1-.7-4.7-2.2-9.3-3.5-13.9-.7-2.3-1.7-4.9-4.5-5-3.1-.2-3.8 2.7-4.5 4.8-1.5 4.5-2.8 9.1-3.9 13.8-1.3 5.6.2 8.4 4.9 9.3 1.1.3 2.3.1 3.4.1zM283.4 67.3c11.3.4 22 2.4 31.4 9.1 7.1 5.1 11.4 12.2 13.5 20.4 1.3 5.4-2.3 8.5-8 9.1-5 .6-10.1.7-15.2 1-4.6.3-8.2-1.6-10.7-5.5-1.4-2.2-2.9-4.5-4.9-6.1-4-3.2-8.9-2.5-13.7-2.1-5.1.5-7.2 4.4-5.9 8.4.6 1.8 2.3 3.9 4 4.6 5.1 2 10.4 3.5 15.7 5 8.3 2.4 16.8 4.2 24.2 8.7 9.6 5.8 16.9 13.4 19.2 24.9 2.2 11.1-.7 20.9-7.2 29.8-7.8 10.8-18.7 16.1-31.6 18.1-8 1.2-15.8.7-23.8 0-11.2-1-20.8-5.4-28.5-13.3-5.7-5.8-8.9-13.1-10.8-20.9-1.2-4.9 3-9.3 8.6-9.6 5.3-.3 10.6-.7 15.9-.8 3.8-.1 7.1 1.1 8.9 4.9 1.3 2.7 2.6 5.4 4.3 7.8 3.9 5.5 9.6 7 15.9 6.4 2.4-.2 4.9-.8 7.1-1.8 3.6-1.6 5.4-4.6 5.6-8.6.2-4-1.2-7.2-4.7-9.4-5.2-3.2-11.1-4.3-16.9-5.8-9.7-2.5-18.9-5.9-27.1-11.7-8.3-5.9-13.1-14-14.8-23.9-.5-3.2.2-6.8 1.2-9.9 4.8-15.1 15.8-23.6 30.7-27.1 5.8-1.1 11.8-1.1 17.6-1.7zM413.9 132.9c0 6.8-.1 13.6 0 20.4 0 4.6.4 9.2.4 13.8 0 5.1-.2 10.2-.5 15.2-.2 4.5-2.8 8-7.2 9-7.6 1.9-15.3.9-22.9 0-5.1-.6-6.3-4.3-6.6-8-.5-7-.6-14-.5-21 0-9.6.4-19.1.4-28.7 0-7.9-.2-15.8-.4-23.7-.1-5.7-2.5-8-8.4-8.2-5.6-.2-11.1-.4-16.7-.5-6.7-.2-10.4-3.1-10.4-10.4V78.7c.1-5.3 3.7-8.9 8.9-9 3.4-.1 6.8 0 10.2-.1 12.5-.1 25-.4 37.5-.4 14.1 0 28.2.3 42.3.4 4.4 0 9 3.1 9.3 8.6.3 5.2.4 10.2-.5 15.3-1.1 5.8-6.2 8-11.3 7.5-5.3-.5-10.7-.6-16-.2-5.6.4-7.6 3.1-7.7 9 0 7.8.1 15.5.1 23.1zM35.8 155v-25.5c0-6.4.1-12.7 0-19.1-.1-3.5-.5-7.1-4.6-8.4-1.9-.6-4.1-.6-6.1-.7-5.8-.2-11.6.2-17.3-.4-4.7-.4-7.2-4-7.3-8.7-.2-3.7-.5-7.5-.5-11.4-.1-7.2 3.6-11.4 10.9-11.2 5.3.1 10.6-.4 16-.4 12.7.1 25.4.3 38 .4 11.3.1 22.6.1 33.9 0 4.8 0 8.6 2.4 9.2 7.9.6 5.5.4 11.1.1 16.6-.3 4.4-3.6 6.9-8 7-5.7 0-11.5 0-17.2.1-1.7 0-3.4.2-5 .5-3.3.7-5 3.4-5 8.1-.1 7 0 14-.1 21-.1 9-.4 17.9-.4 26.9 0 6.9.3 13.9.4 20.8 0 2.3-.1 4.7-.6 7-.9 4.4-4.5 7.2-10.6 6.9-5.2-.3-10.3-.4-15.5-.5-6.5-.1-10.4-4.1-10.3-10.7V155z"/></g></g><g><path class="st2" d="M228.5 245c-.2-10.6 6.6-21.2 18.4-23.5 8.2-1.6 15.9-.7 22.6 4.6 5.4 4.2 7.8 10.1 8.5 16.7.5 4.8-.1 9.6-2.1 14.1-3.4 7.7-9.4 11.9-17.7 13.3-4.4.7-8.7.4-13-.7-8.4-2.2-14.8-9.6-16-18.4-.3-2-.5-4-.7-6.1zm34.7.1c-.3-2.1-.3-3.9-.7-5.7-1-4.4-4.5-7.7-8.7-7.6-5 .1-8.1 2-9.5 7-1.3 4.6-1.4 9.2-.2 13.8 1.1 4.4 4.9 7 9.7 6.8 4.4-.1 7.3-2.6 8.3-7.2.6-2.4.8-4.8 1.1-7.1zM292.4 243.5v-17.4c0-3.1 1.3-4.5 4.3-4.5 8.6-.1 17.3-.1 25.9-.2.4 0 .9 0 1.3.1 4.3.3 6.7 4.6 4.5 8.3-.6 1-2.2 1.8-3.4 1.9-3.7.2-7.3.1-11 .1-1.1 0-2.2.2-3.2.5-2.3.7-3 1.9-2.9 4.2.1 2.3 1.8 3 3.6 3.2 3.1.3 6.3.4 9.4.4 3.4 0 4.9 1.3 5.1 4.8.2 3.3-1.3 5.2-4.6 5.4-2.9.1-5.7 0-8.6.1-3.8 0-5.3 1.5-5.3 5.3v9.7c0 2.8-.9 4.2-3.7 4.5-2.8.3-5.7.1-8.5-.4-2.3-.4-3.1-2.6-3.1-6.1v-19.8c.1-.1.2-.1.2-.1zM190.2 253.3c1.5 0 2.8-1.2 2.8-2.8s-1.2-2.8-2.8-2.8h-41.4v-4.2h41.4c1.5 0 2.8-1.2 2.8-2.8 0-1.5-1.2-2.8-2.8-2.8h-41.4v-4.6h41.1c1.5 0 2.8-1.2 2.8-2.8 0-1.5-1.2-2.8-2.8-2.8h-44.1c-11.2 0-20 5.4-20 12.3v.6L30 237.9c-2.9-.1-5.3 2.6-5.3 6.1v3.4c0 3.4 2.4 6.2 5.3 6.1l95.8-2.8v.7c0 6.8 8.7 12.1 19.7 12.1h44.4c1.5 0 2.8-1.2 2.8-2.8s-1.2-2.8-2.8-2.8h-41.1v-4.6h41.4zm-58.8-5.9V244c.1-.1.3-.1.4-.2v3.8c-.1-.1-.3-.1-.4-.2zM527.8 235.6l-69.2 2.1v-2.1h-100c0 5.6 11.2 10.6 29.3 14.3 18.1 3.6 43.1 5.9 70.7 5.9v-6.6l69.2 2.1c2.9.1 5.3-2.7 5.3-6.1v-3.4c.1-3.5-2.4-6.3-5.3-6.2z"/></g></svg>