<svg xmlns="http://www.w3.org/2000/svg" width="24" height="28" viewBox="0 0 24 28" fill="#fff"><title>instagram</title><path d="M16 14c0-2.203-1.797-4-4-4s-4 1.797-4 4 1.797 4 4 4 4-1.797 4-4zm2.156 0c0 3.406-2.75 6.156-6.156 6.156S5.844 17.406 5.844 14 8.594 7.844 12 7.844s6.156 2.75 6.156 6.156zm1.688-6.406c0 .797-.64 1.437-1.437 1.437s-1.437-.64-1.437-1.436.64-1.437 1.437-1.437 1.437.64 1.437 1.437zM12 4.156c-1.75 0-5.5-.14-7.078.484-.547.22-.953.484-1.375.906s-.688.828-.906 1.375c-.624 1.58-.483 5.33-.483 7.08s-.14 5.5.484 7.077c.22.547.485.953.907 1.375s.828.688 1.375.906c1.578.625 5.328.484 7.078.484s5.5.14 7.078-.484c.547-.22.953-.484 1.375-.906s.688-.828.906-1.375c.624-1.578.483-5.328.483-7.078s.14-5.5-.484-7.08c-.22-.546-.485-.952-.907-1.374s-.828-.688-1.375-.906C17.5 4.015 13.75 4.156 12 4.156zM24 14c0 1.656.016 3.297-.078 4.953-.094 1.922-.53 3.625-1.937 5.03s-3.11 1.845-5.03 1.938c-1.657.095-3.298.08-4.954.08s-3.296.015-4.952-.08c-1.922-.093-3.625-.53-5.03-1.936S.172 20.874.08 18.954C-.014 17.296.002 15.655.002 14s-.016-3.297.078-4.953c.094-1.922.53-3.625 1.937-5.03s3.11-1.845 5.03-1.938C8.705 1.984 10.346 2 12.002 2s3.298-.015 4.954.08c1.922.093 3.625.53 5.03 1.936s1.845 3.11 1.938 5.03C24.016 10.704 24 12.345 24 14z"/></svg>