<svg xmlns="http://www.w3.org/2000/svg" width="22" height="28" viewBox="0 0 22 28" fill="#fff"><title>cutlery</title><path d="M10 1v10c0 1.266-.812 2.406-2 2.828V26c0 1.094-.906 2-2 2H4c-1.094 0-2-.906-2-2V13.828C.812 13.406 0 12.265 0 11V1c0-.547.453-1 1-1s1 .453 1 1v6.5c0 .547.453 1 1 1s1-.453 1-1V1c0-.547.453-1 1-1s1 .453 1 1v6.5c0 .547.453 1 1 1s1-.453 1-1V1c0-.547.453-1 1-1s1 .453 1 1zm12 0v25c0 1.094-.906 2-2 2h-2c-1.094 0-2-.906-2-2v-8h-3.5c-.266 0-.5-.234-.5-.5V5c0-2.75 2.25-5 5-5h4c.547 0 1 .453 1 1z"/></svg>