<svg xmlns="http://www.w3.org/2000/svg" width="28" height="28" viewBox="0 0 28 28" fill="#fff"><title>youtube</title><path d="M11.11 17.625l7.56-3.906-7.56-3.954v7.86zM14 4.155c5.89 0 9.797.282 9.797.282.547.063 1.75.063 2.812 1.188 0 0 .858.844 1.108 2.78.297 2.267.28 4.532.28 4.532v2.125s.017 2.266-.28 4.53c-.25 1.923-1.11 2.782-1.11 2.782-1.06 1.11-2.265 1.11-2.81 1.172 0 0-3.907.297-9.798.297-7.28-.063-9.516-.28-9.516-.28-.625-.11-2.03-.08-3.094-1.19 0 0-.86-.858-1.11-2.78-.296-2.266-.28-4.53-.28-4.53v-2.126s-.016-2.266.28-4.53c.25-1.938 1.11-2.782 1.11-2.782C2.452 4.5 3.656 4.5 4.202 4.437c0 0 3.906-.28 9.797-.28z"/></svg>