<svg xmlns="http://www.w3.org/2000/svg" width="26" height="28" viewBox="0 0 26 28" fill="#fff"><title>book</title><path d="M25.61 7.47c.39.56.5 1.296.28 2.015L21.593 23.64c-.39 1.33-1.766 2.36-3.11 2.36H4.064C2.467 26 .764 24.734.186 23.11c-.25-.704-.25-1.392-.03-1.985.03-.313.093-.625.108-1 .016-.25-.125-.453-.094-.64.064-.376.392-.642.642-1.063.47-.78 1-2.047 1.172-2.86.078-.296-.078-.64 0-.905.078-.297.375-.516.53-.797.423-.72.97-2.11 1.048-2.844.03-.328-.125-.688-.03-.938.108-.36.452-.516.687-.828.374-.516 1-2 1.093-2.828.03-.266-.125-.53-.078-.812.063-.297.438-.61.688-.97.656-.968.78-3.108 2.766-2.546l-.017.047c.266-.062.53-.14.797-.14h11.89c.735 0 1.392.328 1.782.875.406.562.5 1.297.28 2.03l-4.28 14.157C18.408 21.468 18.002 22 16.017 22H2.44c-.204 0-.454.047-.595.234-.125.187-.14.328-.016.672C2.14 23.812 3.22 24 4.08 24H18.5c.58 0 1.25-.328 1.423-.89L24.61 7.686c.095-.297.095-.61.08-.89.358.14.687.358.92.67zM8.983 7.5c-.094.28.063.5.344.5h9.5c.266 0 .562-.22.656-.5l.328-1c.094-.28-.063-.5-.344-.5h-9.5c-.266 0-.562.22-.656.5zm-1.296 4c-.094.28.063.5.344.5h9.5c.266 0 .562-.22.656-.5l.328-1c.094-.28-.063-.5-.344-.5h-9.5c-.266 0-.562.22-.656.5z"/></svg>