<svg xmlns="http://www.w3.org/2000/svg" width="26" height="28" viewBox="0 0 26 28" fill="#fff"><title>twitter</title><path d="M25.312 6.375c-.688 1-1.547 1.89-2.53 2.61.015.218.015.437.015.655 0 6.672-5.078 14.36-14.36 14.36-2.858 0-5.515-.83-7.75-2.267.407.047.798.063 1.22.063 2.36 0 4.53-.797 6.266-2.156-2.22-.047-4.078-1.5-4.72-3.5.314.047.626.078.954.078.453 0 .906-.063 1.328-.172-2.312-.47-4.047-2.5-4.047-4.953v-.063c.672.375 1.453.61 2.28.64C2.61 10.766 1.72 9.22 1.72 7.47c0-.938.25-1.797.69-2.547 2.483 3.063 6.218 5.064 10.405 5.282-.078-.375-.125-.766-.125-1.156 0-2.78 2.25-5.047 5.047-5.047 1.453 0 2.766.608 3.687 1.593 1.14-.22 2.234-.64 3.203-1.22-.375 1.173-1.172 2.157-2.22 2.782 1.017-.11 2-.39 2.907-.78z"/></svg>