<svg id="Layer_1" xmlns="http://www.w3.org/2000/svg" xmlns:xlink="http://www.w3.org/1999/xlink" viewBox="0 0 402.4 77.2"><style>.st0{clip-path:url(#SVGID_2_);fill:#00953A;}</style><defs><path id="SVGID_1_" d="M0 0h402.4v77.2H0z"/></defs><clipPath id="SVGID_2_"><use xlink:href="#SVGID_1_" overflow="visible"/></clipPath><path class="st0" d="M132.7 1.1c-.8-1-2-1.1-3.2-1.1-1 0-2.1.3-3.5.6-1.5.4-3.5.9-5.7 1.1H119.4c-.7 0-3 .3-3 3.5V18c-3.4-4-10.1-12.7-10.9-14.2l-.2-.4c-.7-1.2-1.5-2.8-4.3-2.8h-.9c-1.9.2-5.2.2-6.2 0h-.3c-.5 0-1.9 0-2.8 1.1-.9 1.1-.6 2.5-.6 2.9.2 1.5.8 18.7.7 22.7-.1 4-.3 18-.3 18.9 0 2.1 1 3.2 2.9 3.4h.6c1.4 0 8-.1 9.3-.1h.1c.7 0 2.2 0 3.1-1.1.6-.7.8-1.6.7-2.7-.1-.8-.1-6.9-.1-10.5v-2.7c3.2 4.1 8.5 11.2 9.5 12.9 1.3 2 2.5 3.6 5 3.8h1c.3 0 .8 0 1.3-.1h6.4c1-.1 1.6-.6 2-1.1.4-.6.5-1.3.5-2.4v-2.1c-.1-4.4-.3-14.7-.3-23.7.1-8.1.5-14.8.6-15.5v-.1c.2-.9.4-2.1-.5-3.1m-6.9 22.2c-.1 7.4-.1 16.7-.1 17.4v-.1c.2.7 0 2.1-.8 2.5-.9.5-1.8-.1-2.8-1.5-1.3-1.9-11.9-14.9-17.5-21.9-2.7-3.3-4.7-6.2-4.7-6.2s.4 26.3.4 27.7c.1.8-.3 1.7-.9 2.1-.4.3-1 .4-1.4.1-.4-.2-.9-.8-.9-2.1 0-.9-.1-5.7-.1-11.3 0-7.8-.1-17.5-.2-19.5-.1-1-.2-2.7.9-3.1 1-.4 1.9.7 2.2 1.2.3.5 1.5 1.8 2.9 3.6l4.5 5.4C111.7 23 122.6 37 122.6 37l-.2-26.8c0-1.8.7-2.9 1.7-2.9 1.5 0 1.6 1 1.7 2.1.1.6 0 5.7 0 13.9M88 43.4c-.4-2.5-.5-36.2-.3-38.5 0-.2.1-.3.1-.5.2-.8.4-2.1-.4-3.2C86.7.4 85.7 0 84.2.1c-1.7.1-4.6 0-6.3-.1h-1.6c-2.5 0-3.8 1.5-4.1 4.8-.2 1.5-.6 6.9-1 12.7-.5 6-1 12.8-1.2 14.2v.4c0 .4-.1.9-.2 1.2-.2.1-.6.2-1.4.3-.9.1-1.6.1-2.1.1-.6 0-1-.1-1.5-.1-.3 0-.6-.1-1-.1v-.9c0-1.6-.2-11.2-.4-19-.3-4.8-.4-9.3-.4-9.8C63 1.6 61.6.2 59.5.2c-.3 0-.6 0-1 .1-.1 0-.7.1-2.8.1H48.6c-.4 0-1.6 0-2.4 1-.9 1-.9 2.6-.8 4 .3 3.3.4 9.9.4 12.6 0 2.9-.4 19.1-1.3 22.4-.4 1.4-.5 3.8 3.3 5.3 1.7.5 10.9 3.3 11.9 3.6.4.1.8.2 1.2.2h.8c1-.1 1.9-.5 2.8-1.3.7-.6 4.1-2.5 5.4-3.1.3 3.2 2.6 3.5 3.4 3.5.5 0 .9-.1 1.1-.1h.5c2.4-.1 9 0 9.8 0h.4c.9-.1 1.7-.5 2.2-1.1.7-1.1 1-2.4.7-4m-7.2-34v.3c-.1 1.6-.6 27.6-.5 28.9.2 1.3-.4 2.5-1.3 2.7-.6.1-1.3-.2-1.6-1.3-.1-.4-.6-.8-1.4-.7l-1.4.2c-3 .5-10 1.7-11.8 2.4-2.4.9-3.8.3-4.7-.1-.1 0-.2-.1-.3-.1-.8-.3-2.9-1.4-3.6-1.8h-.1c-1-.3-2.2-1-2-3.9.1-2.1.2-10.3.3-16.9.1-5.5.1-8.9.1-9.6v-.4c0-.8 0-1.6.5-2.2.3-.3.7-.5 1.3-.4 1.8.2 2.1.9 1.9 2.9-.2 1.3-.4 13.9-.5 20.6l-.1 4.8v.6c-.1 1.5-.1 1.6.9 1.8 1.3.3 2.3.8 3 1.2.4.2.8.4 1 .4.5.2 1.9.6 3.2 0 1.6-.6 10.4-2.2 12.8-2.2h.3v-.2-.9c0-.5.1-2.8.1-5.7.1-6.8.3-17.1.6-20.3V9c.1-.8.2-2.2 1.5-2.3.4 0 1-.1 1.4.4.5.5.5 1.3.4 2.3M42.5 25.1c0-1.5-.1-4.8-.2-8.3-.1-4.2-.2-10.1-.2-10.7 0-.1.1-.3.1-.4.3-1 .8-2.6-.1-4-.4-.5-1.2-1.2-2.6-1.2-1 0-5 0-9 .1-4.2 0-8.4.1-9.5.1h-.5c-3.1 0-3.6 2.3-3.6 3.6 0 .9.4 4.6 1 11 .6 6.2 1.3 13.3 1.4 15.8.1 3.5 0 7.1-2 9.2-1.4 1.5-3.8 2.1-7.1 1.8-.6-.1-1.1-.1-1.7-.1-1.4-.1-3.3-.3-3.9-.5-.4-.4-.9-.5-1.4-.5-1.1 0-2.1.5-2.6 1.4-.5.8-.9 2.2 0 4.3 1.3 2.9 2.7 11.6 2.7 13.1 0 3.1 2.2 3.5 3.6 3.7.3.1.7.1 1.1.2 2.3.5 8.8 1.5 12 1.6h.1c.3 0 .6 0 1-.1h.5c4.5-.6 10.6-3.5 14.7-7.3 2.4-2.2 4.6-4.4 5.2-7.7 1.1-6.5 1-18.3 1-23.4v-1.7zM30.7 49.2c-3.8 3.1-9 5.2-13.7 5.5-4 .3-5.5-.7-6-1.5-.4-.6-.4-1.2-.2-1.8.1-.1.1-.3.2-.4.5-1.4 1.1-1.4 2.5-1.1.6.1 1.5.3 2.8.4 2.9.3 9.4-1.7 12.3-5.3 1.2-1.5 1.1-3.6 1.1-5.7l-.2-8.1c-.2-5.9-.3-12-.7-19.3 0-.2 0-.3-.1-.6-.1-.7-.3-1.6.3-2.3.4-.5 1-.7 1.9-.7.9 0 1.5 0 2 .5.4.5.3 1.1.3 1.7 0 .4-.1.9-.1 1.6 0 1.5.2 9.8.4 16.4.1 5 .3 9.2.3 9.9v.8c.1 2.3.4 7-3.1 10M393.6 22.6c.3-3.9 4.6-9.7 6.8-11.6.7-.6 2.4-2.1 1.9-4-.5-1.8-2.6-2.2-3.5-2.4-1.3-.3-5.2-1-8.4-1.6-1.6-.3-2.9-.5-3.3-.6-.1 0-.2-.1-.3-.1-.5-.2-1.3-.6-2.3-.6-1.3 0-2.4.6-3.4 1.7-.2.2-.5.5-.8.9-2.8 2.9-9.3 9.8-9.3 18.5 0 4.3 1.9 7.4 3.8 10.5.5.8.9 1.5 1.4 2.4 1.4 2.6 2.3 5.5 2.3 7.5 0 3.9-3.9 8.4-5.1 9.3-1.3 1-2 2.4-1.8 3.7.1.8.6 2.1 2.8 2.9 2.1.7 10.3 3.5 11.4 3.9l.4.2c.5.2 1 .4 1.7.4h.5c1-.1 1.9-.6 2.5-1.1 1.7-1.3 10.4-9.6 10.4-18.4.1-4.5-2.4-9.3-4.6-13.5-1.6-3.1-3.2-6.3-3.1-8m-1.4 21.3l-.1.4c-1 4.3-1.1 5-3.6 8.2-1.6 2-2.1 2.5-2.9 2.5-.6 0-.9-.4-1-.6-.4-.1-1-.4-1.2-1.2-.3-.8.2-1.7 1-2.9 1-1.4 3.4-4.9 3.1-7.5-.2-1.8-1.3-4.1-2.2-6-.5-1-.9-1.8-1.1-2.4-.1-.4-.5-1.1-.9-1.8-1.3-2.7-3.3-6.7-3.3-9.7 0-3.5 2.9-9.5 5.1-11.4.1-.1.3-.3.4-.5.6-.7 1.9-2.3 3.4-1.1.4.3 1.1.7 1.2 1.5.1.8-.4 1.4-1.2 2.4l-.6.7-.1.2c-1.7 2.1-3.3 4.1-3.3 7.8 0 2.6 2.1 6.9 4 10.8 1.9 4.4 3.8 8.2 3.3 10.6M243.5 34.5c-.2 0-.4 0-.7.1-2 .3-12.3.6-13.9.6h-.8c0-.3-.1-.5-.1-.8 0-.2 0-.4-.1-.7 2.8-.2 8.7-.2 11.7-.2h.5c.2 0 .5 0 .8-.1 1.1-.2 2.3-.6 3.1-1.4.6-.6 1-1.5.9-2.3 0-1.4-.5-2.8-1-4.5-.4-1.2-.8-2.5-1.1-4l-.1-.3c-.4-1.9-1.1-2.5-3-2.7-.3 0-.8 0-1.4-.1-.6-.1-2.4 0-4.7.1-1.9.1-4 .2-5.3.2h-.4V18c0-.2-.1-.5-.1-.8 3.1-.2 10.2-.5 13.5 0 1.4.2 2.4.3 2.9.2.6 0 1.6-.1 2.3-1 .8-1 .5-2.2.4-2.7-1-4.4-1.7-7.8-1.8-9.4-.2-2.8-2.1-3.4-3.6-3.4-.4 0-.8 0-1.3.1-2.8.2-22 .6-24 .6h-.4c-.5 0-1.9 0-2.9 1-.7.7-1 1.7-1 3 .1 3.7-.2 38.2-.4 39.8v.5c-.1 1-.2 2.3.8 3.4s2.5 1.1 3 1.1h1.5c2.7-.1 8.9-.1 14.1 0h10.3c1.9-.2 3-1.1 3.4-3.2.3-1.3.8-2.8 1.1-4.1.3-1.1.6-2 .8-2.7.3-1.1.8-3.2-.4-4.7-.6-.8-1.5-1.2-2.6-1.2m-5.8 9.1c-.4.4-.9.4-2 .4h-.6c-1.1 0-6 .1-9.5.2-2.1 0-3.8.1-4.1.1-2.2 0-3.6-1-3.6-2.7 0-1.1-.2-12.4-.3-20.7l-.2-10.1v-.2c0-.5 0-1.3.5-1.9.4-.4.9-.6 1.6-.6.9 0 5.3-.1 9.1-.2 3.3-.1 6.2-.2 6.7-.2 2.3 0 2.7.6 2.9.8.2.3.3.6.3.9 0 .4-.1.8-.5 1.1-.4.3-.8.3-1.3.2-.3 0-.6-.1-1-.1-3.1 0-13.3 0-15 .2h-.6s-.1.3-.1 1.1c.1 1.7 0 8.4 0 11.3v1.5s.2.2 1.4.2 6.4-.1 9.9-.2c1.9-.1 2.9-.1 3-.1.1 0 .2 0 .3-.1.5-.1 1.1-.3 1.6.1.2.1.4.4.4.9 0 1.6-1 1.6-2.5 1.7h-.4c-2.3.2-11.7.3-12.6.2-.3 0-.6-.1-.7 0-.1.1-.2.4-.2 1.5-.1 2.4 0 10.9.1 11.7v.2c0 .1 0 .3.1.4 0 0 .3.1 1.2.2 1 .1 4.5 0 7.5-.1 3.8-.1 5.4-.1 5.7-.1h.6c.7-.1 1.4-.1 1.9.3.2.2.4.4.4.9.4.5.3.9 0 1.2M309.6 32.4c0-1.2-.1-2.3-.1-2.8-.1-2.6.7-21.6.9-23.6v-.4c.1-1.1.2-2.3-.7-3.2-.9-.9-2.1-.9-2.5-.9-.3 0-.6 0-1 .1-1.8.2-6.7.4-10 .2h-1.1c-.5 0-1.9 0-2.9 1.1-.7.8-1 1.9-.9 3.3.2 2.8.6 14.4.6 17.4 0 3.4-.4 21.6-.6 23.1-.2 1.2.3 2 .7 2.4.9 1 2.1 1 2.6 1h2.5c1.2 0 2.9-.1 5-.2 1.3-.1 2.6-.1 3.6-.1h1.9c.5 0 1.7-.1 2.5-1.1.4-.5.8-1.4.5-2.8-.6-1.8-.8-9.7-1-13.5m-6.3-1.9l-.1 9.9v.5c0 .5 0 1.1-.4 1.5-.4.4-.9.5-1.3.5-1.6 0-2.1-.7-2.1-2.5V11c0-.6 0-1.4.5-2 .2-.2.6-.5 1.2-.5h.4c.4 0 .9-.1 1.3.3.5.5.6 1.2.6 2.4l-.1 19.3zM289.2 20c0-1.1-.1-3.7-.1-6.4-.1-3.1-.2-7.3-.1-8.1 0-.1 0-.1.1-.2.2-.8.7-2.3-.2-3.5-.3-.4-1-1.1-2.4-1.1-.8 0-3.8 0-6.9.1-3.2 0-6.4.1-7.3.1h-.4c-3 0-3.2 2.5-3.2 3.2 0 .7.3 3.5.8 8.5.5 4.7 1 10.1 1.1 12 .1 2.6 0 5.2-1.4 6.6-1 1-2.7 1.4-5.1 1.2-.4 0-.9-.1-1.3-.1-1-.1-2.4-.2-2.8-.3-1.2-.6-2.9-.2-3.7 1-.5.7-.8 1.9 0 3.8 1 2.1 2 8.7 2 9.8 0 2.8 2.1 3.1 3.1 3.3.2 0 .5.1.8.1 1.7.4 6.7 1.1 9.3 1.2h.4c.8 0 1.7-.1 2.7-.4 3.3-.8 7.1-2.9 9.8-5.4 1.9-1.7 3.6-3.5 4.1-6.2.8-5 .8-14.1.8-18l-.1-1.2zm-10.7 20c-2.9 2.4-6.9 4-10.5 4.3-2.5.2-4.1-.3-4.8-1.3-.3-.5-.4-1.1-.2-1.6 0-.1.1-.2.1-.3.4-1.3 1-1.2 2.1-1 .5.1 1.1.2 2.2.3 2.2.3 7-1.3 9.2-3.9.9-1.1.8-2.6.8-4.2l-.2-6.2c-.1-4.5-.2-9.2-.6-14.7 0-.1 0-.3-.1-.4-.1-.6-.2-1.3.3-1.9.3-.4.9-.6 1.6-.6.7 0 1.3 0 1.7.5.4.4.3 1 .3 1.5 0 .3-.1.7-.1 1.2 0 1.2.2 7.5.3 12.5.1 3.9.2 7.1.2 7.5v.6c.2 1.5.5 5.3-2.3 7.7M366.9 43.8c-1-2.9-10.6-35-11.3-39.6-.3-2.1-1.7-3.4-3.7-3.4h-6c-2.2 0-3.5 1.5-3.8 2.9-.2.8-2.5 8.4-4 13.1-.3-1-.7-2.2-1-3.3-1.7-5.7-2.8-9.2-3.2-10.1-.9-1.9-1.9-2.6-3.7-2.6h-1.1c-1.1.1-2.9.1-4 0-.3-.1-.6-.1-.9-.1-2.8 0-3.3 2.5-3.4 3.3l-.1.4c-.3 1.7-2.8 12-4.9 21-3.6 14.8-4.7 19.5-4.7 20.3-.1 1.3.2 2.2.8 3 .4.4 1 .8 2 .9h.4c.3 0 2.5 0 4.8.1h1.1c1.7.1 3.1.1 3.7.3.3.1.6.1.8.1h.2c1.8-.1 3.6-1.3 3.7-4.4.1-1.3.5-3.7 1.2-6.7 1 3 2.2 6.8 2.4 7.4.7 3 2.4 3.5 3.6 3.5h1.5c.3 0 .6 0 .9.1.5 0 1 .1 1.5.1h1c.2 0 .4 0 .6-.1 2.4-.3 3.1-1.9 3.3-2.5.3-.6 2-5.3 3.3-9 .6 3 1.2 6.5 1.2 7.8.1 2.3 1.4 3.7 3.3 3.8H363.9c1.8-.2 2.6-1.2 3-1.8 1.3-1.5.5-3.6 0-4.5m-9.3-.4c-.8.2-1.6-.5-1.9-1.6-.2-.9-1.8-6.1-3.5-11.5-1.7-5.5-3.4-11.1-4.1-13.5-1.3 4.4-6.9 22.2-7.5 23.8-.5 1.2-1.2 1.4-1.6 1.4-.7 0-1.3-.4-1.7-1.2-.5-.9-7.7-20.7-9-24.8-.4 2.3-6 24.8-6 25l-.1.3c-.3 1-.9 2.9-2.6 2.4-1.6-.6-1.1-2.2-.9-3 0-.1.1-.3.1-.4.8-3.1 6.6-25.4 7.3-28.5.3-1.3.8-2.7 1.8-2.7s1.6 1.3 2 2.4c.4 1.1 8.3 23.6 8.8 25.1 0 .1 0 .1.1.2 1.3-4 6.9-22.4 7.6-25.2.4-1.6 1.1-2.4 2-2.3 1 .1 1.6 1.5 1.6 2.4.1.7 2.5 8.4 4.4 14.6 2.6 8.6 4.3 13.8 4.4 14.8.1 1.8-.9 2.2-1.2 2.3M172.3 19.7c-1.7-.6-4.3-.8-6.2-.8-1.3 0-2.7.1-3.9.2-3.3.4-3.8 2.7-3.9 4v1c-.1 6.4-.1 8.8-.1 9.8-.1 0-.2.1-.4.1-.5 0-2.1-.6-3.6-2-1.6-1.4-2.5-3.2-2.5-4.7 0-3.6 11.1-12.2 16.7-14.2.9-.4 2.9-1.1 3-2.9.1-1.1-.6-2-1.8-2.7l-1-.6c-5.8-3.4-7.9-4.6-8.8-5.1-.1 0-.1-.1-.2-.1-.5-.4-1.5-1.1-2.9-1.1-.9 0-1.8.3-2.8.8-1.2.6-5.6 3.1-9.8 7.1-4.7 4.3-10.1 11.9-10.1 19.1 0 8.1 7 16.9 14 21.4 1.4.9 4.2 1.1 6 1.2h1.2c.5 0 1.2 0 1.8-.1 1.6-.2 4.6-.4 7.6-.6 3.7-.3 6.8-.5 7.9-.7 1.5-.2 3-1.4 2.9-3.2 0-1-.2-16.2.3-19.7.2-3.9-.1-5-3.4-6.2m-3.4 7.5v.4c0 .8-.2 4-.4 7.1-.1 2.3-.3 4.7-.3 5.1 0 1 0 2.8-2.6 3.1-1.9.2-7.4.3-9 .3-2.2 0-3-.1-5.6-.8h-.1l-.1-.1c-4.3-2.7-10.4-9.3-10.5-15.5-.1-7.2 12.4-16.8 12.5-16.9l.3-.2c1.5-1.1 2.8-1.9 3.8-1.7.4.1.7.3.9.6.1.1.1.2.1.3.2.4.5.9.3 1.5-.2.7-.9 1.1-1.8 1.5-1 .5-12.1 9.1-12.3 15-.2 4.4 4.5 9.4 7.1 11.5 1.1.8 3 1.5 4.1 1.5.7 0 3.3-.1 5.4-.1 1.6-.1 3.1-.1 3.4-.1.6 0 .8 0 .8-.8 0-.9.1-3.8.1-6.3.1-1.9.1-3.7.1-4.1V28c0-1-.1-2.3.7-3 .2-.2.7-.5 1.3-.4 1.9 0 1.8 1.5 1.8 2.6M367.8.4c-4.2-.2-7.2 2.7-7.2 7-.1 2.6.8 4.7 2.5 6.1-.2.6-.3.7-.4.8-1.4.7-2.7 2.2-2.3 3.9.1.3.4 1.1 1.3 1.6.1.3.5.6 1.2.6.2 0 .4 0 .7-.1h.2c3 0 7.4-4.2 8.7-7 1.3-2.7 1.4-3.8 1.5-5.5V7c-.1-5.3-3.5-6.5-6.2-6.6m-.1 12.1l-1.5-.8c.2-.5 0-1.3-.4-1.8-.1-.2-.2-.2-.4-.4-.4-.2-1.1-.6-1.1-1.7 0-1.5.8-2.4 2.2-2.6h.2l.2.1c.1 0 .2.1.3.1.8.2 1.7.6 2.1 2.1.4 1.5-1.2 4.2-1.6 5M209.8 33.9c-.8-1.5-2.6-2.1-4.5-1.4-1.2.5-7.2 1-9.4 1.1v-.9V25c0-6.6 0-16.7.3-18.6v-.2c.2-1 .5-2.9-.6-4.3-.6-.7-1.5-1.1-2.6-1.1h-.2c-1.8.1-6 0-8.7 0H182c-.3 0-.6-.1-.8-.1-1.7-.3-2.6.3-3.1.8-.9.9-.9 2.3-.8 3.4.2 2.9.7 16.3.7 19.4 0 3.4-.2 16.6-1 20.5-.2 1.1-.5 2.4.4 3.5.8 1 2.1 1.1 3.3 1.2h.1c2.1 0 17.3.1 18.9.1.2 0 .5.1.7.2l1.2.3h.5c1.1 0 2.4-.5 3.3-2.6.3-.8.8-2.1 1.4-3.6.8-2.1 2.2-5.9 2.8-6.7.7-1 .8-2.3.2-3.3m-8.9 7.5c-.2 1.7-1.2 1.7-2.3 1.7H187c-.5 0-1.1 0-1.6-.5s-.5-1.3-.4-2c.1-.8 0-7.6 0-14.1 0-6.9-.1-13.5 0-14.5v-.7c0-1.5 0-2.8.7-3.4.3-.3.7-.4 1-.4 1.8.2 1.7 2.5 1.7 4.1V40c.1 0 .2.1.6 0 1.8-.1 8.3-.2 9.1-.2h.4c.7-.1 1.5-.1 2 .5.2.1.5.5.4 1.1M162.2 67.5h3.4l-1.6-4.7zM268.4 67.5h3.4l-1.6-4.7zM221.2 67.5h3.4l-1.6-4.7zM137.5 63c-.4-.3-.9-.4-1.5-.4h-1.5v3h1.5c.7 0 1.2-.1 1.5-.4.4-.3.5-.6.5-1.1 0-.5-.2-.9-.5-1.1M193.3 62.3c-1.1 0-1.9.4-2.5 1.1-.6.7-.9 1.7-.9 2.9s.3 2.1 1 2.8c.6.7 1.5 1.1 2.5 1.1s1.9-.4 2.5-1.1c.6-.7 1-1.6 1-2.8 0-1.2-.3-2.2-.9-2.9-.8-.7-1.6-1.1-2.7-1.1M284.4 63c-.4-.3-.9-.4-1.5-.4h-1.5v3h1.5c.7 0 1.2-.1 1.5-.4.4-.3.5-.6.5-1.1.1-.5-.1-.9-.5-1.1"/><path class="st0" d="M339.9 65.8c-.1-3.7-.2-9.2-.4-9.6-.2-.6-144.5 0-222.7-.2-27.8-.1-46.4-.2-47.1.5-.7.6-.3 19.1 0 19.9.2.4 88.7.5 164 .7 56.3.2 105.6 0 105.9-.3.9-1 .4-5.5.3-11M92.3 70.6c0 .7-.1 1.2-.4 1.5-.3.3-.7.5-1.2.5s-1-.2-1.2-.5c-.3-.3-.4-.8-.4-1.5v-8.7c0-.7.1-1.2.4-1.5.3-.3.7-.5 1.2-.5s1 .2 1.2.5c.3.3.4.8.4 1.5v8.7zm15.5.3c0 .6-.1 1.1-.4 1.3-.2.3-.6.4-1.1.4-.3 0-.7-.1-1-.2-.3-.2-.6-.4-.9-.8l-5.9-6.8v5.7c0 .7-.1 1.2-.4 1.5-.3.3-.7.5-1.2.5-.6 0-1-.2-1.2-.5-.3-.3-.4-.8-.4-1.5v-8.8c0-.6.1-1.1.4-1.4.3-.3.6-.5 1.1-.5.3 0 .6.1.9.2.3.1.5.4.8.7l6 6.9v-5.8c0-.7.1-1.2.4-1.5.3-.3.7-.5 1.2-.5s1 .2 1.2.5c.3.3.4.8.4 1.5v9.1zm11-8.6c-.4.2-1 .3-1.7.3h-1.2v7.9c0 .7-.1 1.2-.4 1.5-.3.3-.7.5-1.2.5-.6 0-1-.2-1.2-.5-.3-.3-.4-.8-.4-1.5v-7.9h-1.2c-.8 0-1.4-.1-1.7-.3-.4-.2-.6-.5-.6-1 0-.4.2-.8.6-1 .4-.2 1-.3 1.7-.3h5.7c.8 0 1.4.1 1.7.3.4.2.6.6.6 1-.1.4-.3.8-.7 1m9.5 9.8c-.4.2-1 .3-1.7.3h-3.8c-.8 0-1.4-.1-1.7-.4-.3-.3-.5-.7-.5-1.4V62c0-.8.2-1.3.5-1.6.3-.3.9-.4 1.7-.4h3.6c.8 0 1.4.1 1.7.3.4.2.6.6.6 1s-.2.8-.6 1c-.4.2-1 .3-1.7.3h-2.6v2.2h2.3c.8 0 1.3.1 1.7.3.4.2.6.5.6 1 0 .4-.2.8-.6 1-.4.2-1 .3-1.7.3h-2.3v2.3h2.7c.8 0 1.4.1 1.7.3.4.2.6.5.6 1s-.1.9-.5 1.1m12.8.2c-.3.3-.7.4-1.1.4-.3 0-.6-.1-.8-.2-.3-.2-.6-.4-.9-.8l-3.8-4.1v3.1c0 .7-.1 1.2-.4 1.5-.3.3-.7.5-1.2.5-.6 0-1-.2-1.2-.5-.3-.3-.4-.8-.4-1.5V62c0-.8.2-1.3.5-1.6.3-.3.9-.4 1.7-.4h2.5c1.7 0 3 .3 4 1s1.4 1.6 1.4 2.8c0 .9-.3 1.6-.9 2.2-.6.6-1.4 1-2.5 1.1l2.6 2.5c.3.3.6.6.7.9.2.3.2.5.2.7 0 .5-.2.8-.4 1.1m14.9-1.4c0 .6-.1 1.1-.4 1.3-.2.3-.6.4-1.1.4-.3 0-.7-.1-1-.2-.3-.2-.6-.4-.9-.8l-5.9-6.8v5.7c0 .7-.1 1.2-.4 1.5-.3.3-.7.5-1.2.5s-1-.2-1.2-.5c-.3-.3-.4-.8-.4-1.5v-8.8c0-.6.1-1.1.4-1.4.3-.3.6-.5 1.1-.5.3 0 .6.1.9.2.3.1.5.4.8.7l6 6.9v-5.8c0-.7.1-1.2.4-1.5.3-.3.7-.5 1.2-.5s1 .2 1.2.5c.3.3.4.8.4 1.5v9.1zm13.8 1.3c-.3.2-.7.4-1.2.4-.4 0-.8-.1-1-.3-.3-.2-.5-.6-.7-1l-.4-1.2h-5.3l-.5 1.3c-.2.4-.4.7-.6 1-.3.2-.6.3-.9.3-.4 0-.8-.1-1.1-.4-.3-.3-.4-.6-.4-1v-.4c0-.1.1-.3.1-.4l3.7-8.8c.3-.6.6-1.1 1-1.4.4-.3.9-.4 1.5-.4s1 .1 1.4.4c.4.3.7.7.9 1.2l3.6 8.9c.1.2.1.4.2.5 0 .1.1.3.1.4.1.4-.1.7-.4.9m9-9.9c-.4.2-1 .3-1.7.3h-1.2v7.9c0 .7-.1 1.2-.4 1.5-.3.3-.7.5-1.2.5s-1-.2-1.2-.5c-.3-.3-.4-.8-.4-1.5v-7.9h-1.2c-.8 0-1.4-.1-1.7-.3-.4-.2-.6-.5-.6-1 0-.4.2-.8.6-1 .4-.2 1-.3 1.7-.3h5.7c.8 0 1.4.1 1.7.3.4.2.6.6.6 1-.1.4-.3.8-.7 1m5.2 8.3c0 .7-.1 1.2-.4 1.5-.3.3-.7.5-1.2.5s-1-.2-1.2-.5c-.3-.3-.4-.8-.4-1.5v-8.7c0-.7.1-1.2.4-1.5.3-.3.7-.5 1.2-.5s1 .2 1.2.5c.3.3.4.8.4 1.5v8.7zm14.4.4c-1.3 1.2-3 1.8-5.1 1.8-2.1 0-3.8-.6-5.1-1.8-1.3-1.2-1.9-2.8-1.9-4.8s.6-3.6 1.9-4.8c1.3-1.2 3-1.8 5.1-1.8 2.1 0 3.8.6 5.1 1.8 1.3 1.2 1.9 2.8 1.9 4.8s-.6 3.5-1.9 4.8m16.6-.1c0 .6-.1 1.1-.4 1.3-.2.3-.6.4-1.1.4-.3 0-.7-.1-.9-.2-.3-.2-.6-.4-.9-.8l-5.9-6.8v5.7c0 .7-.1 1.2-.4 1.5-.3.3-.7.5-1.2.5-.6 0-1-.2-1.2-.5-.3-.3-.4-.8-.4-1.5v-8.8c0-.6.1-1.1.4-1.4.2-.3.6-.5 1.1-.5.3 0 .6.1.9.2.3.1.5.4.8.7l6 6.9v-5.8c0-.7.1-1.2.4-1.5.3-.3.7-.5 1.2-.5.6 0 1 .2 1.2.5.3.3.4.8.4 1.5v9.1zm13.8 1.3c-.3.2-.7.4-1.2.4-.4 0-.8-.1-1-.3-.3-.2-.5-.6-.7-1l-.4-1.2h-5.3l-.5 1.3c-.2.4-.4.7-.6 1-.3.2-.6.3-.9.3-.5 0-.8-.1-1.1-.4-.3-.3-.4-.6-.4-1v-.4c0-.1.1-.3.1-.4l3.7-8.8c.3-.6.6-1.1 1-1.4.4-.3.9-.4 1.5-.4s1 .1 1.4.4c.4.3.7.7.9 1.2l3.6 8.9c.1.2.1.4.2.5 0 .1.1.3.1.4.1.4-.1.7-.4.9m9.8-.1c-.4.2-1 .3-1.7.3h-3.8c-.8 0-1.4-.1-1.7-.4-.3-.3-.5-.7-.5-1.4v-8.8c0-.7.1-1.2.4-1.5.3-.3.7-.5 1.2-.5s1 .2 1.2.5c.3.3.4.8.4 1.5v7.9h2.7c.8 0 1.4.1 1.7.3.4.2.6.5.6 1s-.1.9-.5 1.1m24.1.1c-.3.3-.7.4-1.2.4s-.8-.1-1.1-.4c-.3-.3-.4-.7-.5-1.2l-1-7.4c-.8 3-1.4 5.1-1.8 6.3-.4 1.2-.7 2-.9 2.3-.1.2-.3.3-.5.4-.2.1-.5.1-.8.1-.5 0-1-.1-1.3-.3-.3-.2-.5-.6-.7-1.1l-2.1-7.7-1.1 7.3c-.1.6-.3 1.1-.6 1.4-.3.3-.7.4-1.1.4-.5 0-.9-.1-1.2-.4-.3-.3-.4-.6-.4-1.1v-.4c0-.1 0-.3.1-.5l1.7-8.5c.1-.7.4-1.2.7-1.5.3-.3.8-.4 1.5-.4.6 0 1.1.1 1.5.4.4.3.6.7.8 1.3l2.2 7.4 2-7.4c.1-.6.4-1 .8-1.2.4-.3.8-.4 1.4-.4.7 0 1.2.2 1.5.5.4.3.6.8.7 1.6l1.6 8.6c0 .1 0 .2.1.4v.3c.2.2 0 .5-.3.8m13.3 0c-.3.2-.7.4-1.2.4-.4 0-.8-.1-1-.3-.3-.2-.5-.6-.7-1l-.4-1.2h-5.3l-.5 1.3c-.2.4-.4.7-.6 1-.3.2-.6.3-.9.3-.4 0-.8-.1-1.1-.4-.3-.3-.4-.6-.4-1v-.4c0-.1.1-.3.1-.4l3.7-8.8c.3-.6.6-1.1 1-1.4.4-.3.9-.4 1.5-.4s1 .1 1.4.4c.4.3.7.7.9 1.2l3.6 8.9c.1.2.1.4.2.5 0 .2.1.3.1.4.1.4-.1.7-.4.9m12 .1c-.3.3-.7.4-1.1.4-.3 0-.6-.1-.8-.2-.3-.2-.6-.4-.9-.8l-3.8-4.1v3.1c0 .7-.1 1.2-.4 1.5-.3.3-.7.5-1.2.5s-1-.2-1.2-.5c-.3-.3-.4-.8-.4-1.5V62c0-.8.2-1.3.5-1.6.3-.3.9-.4 1.7-.4h2.5c1.7 0 3 .4 4 1 1 .7 1.5 1.6 1.5 2.8 0 .9-.3 1.6-.9 2.2-.6.6-1.4 1-2.5 1.1l2.6 2.5c.3.3.6.6.7.9.2.3.2.5.2.7 0 .5-.2.8-.5 1.1m13.4-.1c-.3.3-.7.4-1 .4-.3 0-.5-.1-.7-.2-.2-.1-.6-.4-1-.8l-4.9-4.7v3.7c0 .7-.1 1.2-.4 1.5-.3.3-.7.5-1.2.5-.6 0-1-.2-1.2-.5-.3-.3-.4-.8-.4-1.5v-8.7c0-.7.1-1.2.4-1.5.3-.3.7-.5 1.2-.5s1 .2 1.2.5c.3.3.4.8.4 1.5V65l4.1-4.1c.4-.4.7-.6.9-.8.3-.1.5-.2.7-.2.4 0 .7.1 1 .4.3.3.4.6.4.9 0 .2-.1.4-.2.7-.1.2-.3.5-.6.7l-3.5 3.2 4.3 4.1c.3.3.5.5.6.7.1.2.2.5.2.7.2.3 0 .6-.3.9m9.6-.1c-.4.2-1 .3-1.7.3h-3.8c-.8 0-1.4-.1-1.7-.4-.3-.3-.5-.7-.5-1.4V62c0-.8.2-1.3.5-1.6.3-.3.9-.4 1.7-.4h3.6c.8 0 1.4.1 1.7.3.4.2.6.6.6 1s-.2.8-.6 1c-.4.2-1 .3-1.7.3h-2.6v2.2h2.3c.8 0 1.3.1 1.7.3.4.2.6.5.6 1 0 .4-.2.8-.6 1-.4.2-1 .3-1.7.3h-2.3v2.3h2.7c.8 0 1.4.1 1.7.3.4.2.6.5.6 1 .1.5-.1.9-.5 1.1m10.8-9.8c-.4.2-1 .3-1.7.3h-1.2v7.9c0 .7-.1 1.2-.4 1.5-.3.3-.7.5-1.2.5-.6 0-1-.2-1.2-.5-.3-.3-.4-.8-.4-1.5v-7.9h-1.2c-.8 0-1.4-.1-1.7-.3-.4-.2-.6-.5-.6-1 0-.4.2-.8.6-1 .4-.2 1-.3 1.7-.3h5.7c.8 0 1.4.1 1.7.3.4.2.6.6.6 1-.1.4-.3.8-.7 1"/></svg>